<svg width="565" height="636" viewBox="0 0 565 636" fill="none" xmlns="http://www.w3.org/2000/svg">
<path d="M340.933 370.796H452.352C464.11 370.796 473.64 378.285 473.64 387.536V400.23H319.658V387.536C319.658 378.285 329.187 370.796 340.933 370.796Z" fill="#655C51"/>
<path d="M394.859 236.896C456.964 236.896 460.862 266.745 455.218 300.617C449.575 334.488 429.166 347.395 415.267 347.395H374.438C360.552 347.395 340.13 334.5 334.487 300.617C328.843 266.733 332.754 236.896 394.859 236.896Z" fill="#564B44"/>
<path d="M455.626 532.013H464.556L453.396 396.599H441.103L455.626 532.013Z" fill="#6E6659"/>
<path d="M334.092 532.013H325.149L336.322 396.599H348.603L334.092 532.013Z" fill="#6E6659"/>
<path d="M417.764 375.635H424.707V337.729H417.764V375.635Z" fill="#DBD4F5"/>
<path d="M364.997 375.635H371.94V337.729H364.997V375.635Z" fill="#DBD4F5"/>
<path d="M466.314 379.326C458.772 382.272 444.657 385.052 435.956 386.59C431.714 387.347 428.771 387.773 428.529 387.856L394.693 375.966L364.959 388.045L359.647 387.489L353.341 386.827L353.43 384.969L354.436 362.668L355.226 345.372L355.405 341.397C355.405 341.397 393.992 337.729 430.631 335.872C433.415 339.409 436.9 342.421 440.899 344.745C442.542 345.703 444.186 346.626 445.829 347.584C447.319 348.767 450.925 353.559 454.747 359.143C460.148 367.247 465.983 376.936 466.314 379.326Z" fill="#375C78"/>
<path d="M451.205 308.425L438.848 263.03L445.549 242.753L464.581 253.72C469.905 271.713 473.801 290.044 476.238 308.567C476.238 315.133 471.664 347.395 453.753 394.931L443.357 382.65L451.205 308.425Z" fill="#E5B7AC"/>
<path d="M434.313 338.202C439.752 341.444 471.792 350.707 468.378 385.915L420.732 384.318L430.007 350.695L434.313 338.202Z" fill="#375C78"/>
<path d="M453.727 233.181L477.524 274.814L443.599 287.094L433.242 263.941C433.242 263.941 438.682 225.598 453.727 233.181Z" fill="#C34420"/>
<path d="M440.695 334.168L441.103 340.853C429.179 351.607 393.521 354.446 393.521 354.446C393.521 354.446 356.475 352.411 344.551 341.657C344.551 341.657 346.895 302.793 348.029 282.563C348.436 275.595 348.691 270.839 348.653 270.649L347.124 267.242L344.576 260.794L333.289 233.182C333.289 233.182 363.392 206.764 393.521 203.38C423.624 206.764 453.715 233.182 453.715 233.182L436.873 270.638L440.695 334.168Z" fill="#D25A30"/>
<g style="mix-blend-mode:multiply">
<path d="M441.103 340.841C429.179 351.595 393.521 354.434 393.521 354.434C393.521 354.434 356.475 352.399 344.551 341.645C344.551 341.645 346.895 302.781 348.029 282.551C348.768 288.62 357.265 337.765 440.695 334.156L441.103 340.841Z" fill="#E5E5E6"/>
</g>
<path d="M409.254 291.542L392.387 283.261L375.52 291.542L378.744 274.104L365.1 261.764L383.954 259.221L392.387 243.356L400.821 259.209L419.663 261.753L406.031 274.092L409.254 291.542ZM373.877 264.415L383.126 272.779L380.947 284.609L392.413 279.037L403.878 284.609L401.7 272.779L410.821 264.415L398.082 262.758L392.375 252.004L386.68 262.758L373.877 264.415Z" fill="#C34420"/>
<path d="M352.347 339.102C346.907 342.343 319.658 349.477 325.263 385.916L372.985 384.318L352.347 339.102Z" fill="#375C78"/>
<path d="M371.967 209.201C371.967 209.201 377.203 223.469 394.146 224.072C411.09 224.675 417.357 210.325 417.357 210.325L415.829 203.356L412.733 189.219L395.535 191.147L378.502 188.012L377.228 192.165L371.967 209.201Z" fill="#E5B7AC"/>
<path opacity="0.5" d="M375.24 205.876C376.4 209.011 382.973 223.078 414.809 198.778L412.732 189.313L395.534 191.147L378.502 188.012L375.24 205.876Z" fill="#CA7E86"/>
<path d="M303.899 309.359C307.721 279.653 333.709 233.466 333.709 233.466L340.079 242.753L351.29 263.03C351.29 263.03 336.55 288.786 326.945 304.166C338.856 315.831 372.985 344.059 372.985 344.059L368.437 354.481C330.219 334.57 307.874 317.806 306.702 316.493C304.536 314.707 303.313 313.488 303.899 309.359Z" fill="#E5B7AC"/>
<path d="M333.314 233.182L329.658 239.582L348.64 270.625L355.392 265.361C355.392 265.361 348.398 225.551 333.314 233.182Z" fill="#D25A30"/>
<path opacity="0.6" d="M445.014 286.585L470.633 277.31L471.754 282.054L445.014 286.585Z" fill="#CA7E86"/>
<path d="M371.966 500.365C371.966 500.365 374.921 513.379 375.482 515.509C376.042 517.638 378.718 534.698 375.482 537.135C372.246 539.572 349.251 539.572 348.092 537.135C346.933 534.698 354.869 513.308 355.659 510.634C356.449 507.961 355.366 505.5 355.366 504.423C355.366 503.347 371.966 500.365 371.966 500.365Z" fill="#E5B7AC"/>
<path d="M375.482 506.896C365.711 502.223 350.984 507.428 350.984 507.428C350.984 507.428 322.728 419.373 324.869 382.804C324.985 379.89 325.45 376.998 326.257 374.18C331.761 356.268 345.366 355.641 354.424 362.668C358.612 365.934 361.486 370.421 362.577 375.398C363.04 376.872 363.41 378.369 363.686 379.882C363.966 381.266 364.221 382.875 364.514 384.614C364.679 385.691 364.832 386.85 364.998 388.057C366.998 402.313 369.151 425.276 370.998 447.21C373.52 478.076 375.482 506.896 375.482 506.896Z" fill="#375C78"/>
<g style="mix-blend-mode:multiply">
<path d="M437.23 380.852L435.956 386.59L422.503 447.222C424.35 425.158 426.516 402.088 428.529 387.856L394.693 375.966L364.959 388.045C366.959 402.301 369.112 425.264 370.959 447.198L359.647 387.465L359.15 384.756L358.717 382.532L363.685 379.882L369.507 376.664L394.043 365.176L430.172 378.32L437.23 380.852Z" fill="#E5E5E6"/>
</g>
<path d="M421.484 500.365C421.484 500.365 418.528 513.379 417.968 515.509C417.407 517.638 414.745 534.698 417.968 537.135C421.191 539.572 444.198 539.572 445.357 537.135C446.517 534.698 438.58 513.308 437.79 510.634C437 507.961 438.083 505.5 438.083 504.423C438.083 503.347 421.484 500.365 421.484 500.365Z" fill="#E5B7AC"/>
<path d="M383.635 534.627C383.629 534.741 383.629 534.856 383.635 534.97C383.698 536.156 383.634 537.345 383.444 538.519C369.991 547.711 344.563 537.336 344.563 537.336C344.563 537.336 344.627 536.863 344.678 536.153C344.806 534.887 345.009 532.911 345.15 531.574C345.341 529.504 353.736 515.804 353.736 515.804C354.218 514.898 354.894 514.093 355.723 513.438L355.8 513.355C357.94 511.581 361.303 509.451 365.074 509.522C368.875 510.099 372.298 511.993 374.654 514.822C375.206 515.425 375.709 516.066 376.157 516.739C381.521 523.553 383.635 534.627 383.635 534.627Z" fill="#272425"/>
<path d="M383.648 534.97C383.71 536.156 383.646 537.345 383.456 538.519C378.819 540.601 370.449 538.72 362.538 539.158C356.44 539.273 350.378 538.264 344.703 536.189C344.831 534.923 345.034 532.947 345.174 531.61C347.679 529.08 350.791 527.135 354.257 525.932C357.724 524.73 361.447 524.304 365.124 524.689C368.862 524.939 372.485 525.999 375.702 527.785C378.919 529.57 381.64 532.031 383.648 534.97V534.97Z" fill="#434244"/>
<path d="M383.814 539.146C363.75 548.835 344.59 537.336 344.59 537.336C344.59 537.336 344.947 533.633 345.15 531.539C350.918 534.545 357.305 536.383 363.893 536.931C370.48 537.48 377.117 536.727 383.369 534.721C383.449 534.684 383.535 534.656 383.623 534.639L383.814 539.146Z" fill="white"/>
<path d="M353.494 516.857C353.494 516.857 354.233 510.942 355.112 510.291C355.991 509.641 358.806 512.066 360.208 512.326C361.609 512.587 368.539 513.344 369.61 512.705C370.68 512.066 373.737 509.345 374.425 509.499C375.113 509.652 375.992 515.923 375.877 516.94C375.763 517.958 362.896 518.443 362.896 518.443L353.494 516.857Z" fill="#272425"/>
<path d="M409.738 534.627C409.738 534.745 409.738 534.852 409.738 534.97C409.677 536.155 409.736 537.344 409.917 538.519C423.369 547.711 448.797 537.336 448.797 537.336C448.797 537.336 448.734 536.863 448.683 536.153C448.555 534.887 448.364 532.911 448.224 531.574C448.033 529.504 439.65 515.804 439.65 515.804C439.166 514.896 438.485 514.091 437.65 513.438L437.587 513.355C435.434 511.581 432.07 509.451 428.3 509.522C424.499 510.099 421.075 511.993 418.72 514.822C418.167 515.425 417.665 516.066 417.216 516.739C411.878 523.553 409.738 534.627 409.738 534.627Z" fill="#272425"/>
<path d="M409.726 534.97C409.664 536.156 409.724 537.344 409.904 538.519C414.541 540.601 422.911 538.72 430.822 539.158C436.92 539.274 442.982 538.265 448.657 536.189C448.53 534.923 448.339 532.947 448.199 531.61C445.69 529.082 442.576 527.137 439.108 525.935C435.639 524.733 431.915 524.306 428.236 524.689C424.5 524.939 420.879 526 417.664 527.785C414.449 529.571 411.73 532.032 409.726 534.97Z" fill="#434244"/>
<path d="M409.548 539.146C429.612 548.835 448.773 537.336 448.773 537.336C448.773 537.336 448.416 533.633 448.212 531.539C442.445 534.545 436.057 536.383 429.47 536.931C422.883 537.48 416.245 536.727 409.994 534.721C409.918 534.684 409.836 534.656 409.752 534.639L409.548 539.146Z" fill="white"/>
<path d="M439.905 516.857C439.905 516.857 439.166 510.942 438.287 510.291C437.408 509.641 434.593 512.066 433.192 512.326C431.79 512.587 424.86 513.344 423.803 512.705C422.745 512.066 419.662 509.345 418.974 509.499C418.287 509.652 417.407 515.923 417.535 516.94C417.662 517.958 430.504 518.443 430.504 518.443L439.943 516.857" fill="#272425"/>
<path d="M442.466 507.428C442.466 507.428 427.739 502.223 417.968 506.896C417.968 506.896 419.93 478.053 422.503 447.222C424.35 425.158 426.516 402.088 428.529 387.856C429.077 383.905 429.612 380.651 430.121 378.261C430.389 377.078 430.631 376.12 430.873 375.398C433.332 364.218 444.886 356.091 454.696 359.143C459.791 360.74 464.492 365.354 467.193 374.18C476.111 402.585 442.466 507.428 442.466 507.428Z" fill="#375C78"/>
<path d="M348.641 270.626C348.641 270.626 345.392 238.576 335.621 231.229L337.608 229.668C337.608 229.668 351.418 237.653 348.641 270.626Z" fill="#C64D2A"/>
<path d="M326.856 245.095C327.059 246.751 348.64 270.625 348.64 270.625C348.874 268.313 348.904 265.986 348.729 263.669C348.242 254.532 345.777 245.579 341.48 237.346C339.06 234.234 337.353 231.3 334.308 230.898C333.111 230.744 332.295 231.632 331.76 232.767C331.17 234.085 330.792 235.476 330.639 236.896V236.896C329.545 237.183 328.514 237.648 327.594 238.269C325.824 239.262 326.639 243.427 326.856 245.095Z" fill="#C34420"/>
<g style="mix-blend-mode:multiply">
<path d="M330.627 236.896C335.881 243.652 340.252 250.963 343.647 258.677C343.366 257.707 338.933 241.901 331.748 232.768C331.157 234.085 330.78 235.476 330.627 236.896V236.896Z" fill="#E5E5E6"/>
</g>
<path d="M374.704 138.004L370.182 136.17C370.182 136.17 361.264 139.352 360.207 156.672C360.207 174.537 364.411 179.245 364.411 179.245C367.201 179.245 365.366 179.044 365.621 178.902C365.621 178.902 364.857 160.529 368.768 153.123C371.255 148.268 373.242 143.206 374.704 138.004V138.004Z" fill="#564B44"/>
<path d="M387.419 139.802C387.419 139.802 407.713 135.07 418.452 157.749C418.452 157.749 424.822 172.419 418.261 186.663C418.261 186.663 404.057 205.51 387.419 210.845C375.737 214.181 366.335 194.696 363.686 175.247C362.042 157.323 374.119 141.399 387.419 139.802Z" fill="#E5B7AC"/>
<path d="M416.834 179.044V187.835C424.847 190.508 431.408 183.173 432.605 177.187C433.204 174.158 432.44 171.485 429.828 170.562C424.287 168.657 420.108 173.661 418.133 176.761C417.655 177.499 417.221 178.262 416.834 179.044V179.044Z" fill="#E5B7AC"/>
<path d="M427.382 175.708C421.79 175.637 418.579 180.31 418.465 180.511C418.402 180.611 418.383 180.729 418.411 180.841C418.44 180.954 418.514 181.052 418.618 181.115C418.697 181.136 418.781 181.136 418.86 181.115C418.94 181.117 419.02 181.099 419.092 181.064C419.163 181.028 419.224 180.977 419.267 180.914C420.156 179.7 421.294 178.663 422.618 177.861C424.541 179.045 423.548 182.061 423.535 182.097C423.499 182.206 423.511 182.325 423.568 182.427C423.625 182.529 423.723 182.605 423.841 182.641H423.981C424.081 182.642 424.179 182.612 424.26 182.557C424.34 182.501 424.399 182.423 424.427 182.333C424.427 182.191 425.522 178.997 423.497 177.365C424.656 176.798 425.945 176.498 427.255 176.489H427.382C427.507 176.489 427.627 176.443 427.716 176.361C427.804 176.279 427.854 176.168 427.854 176.051C427.854 175.935 427.804 175.824 427.716 175.742C427.627 175.66 427.507 175.614 427.382 175.614V175.708Z" fill="#CA7E86"/>
<path d="M400.069 182.842C400.133 183.256 401.279 183.446 402.617 183.268C403.955 183.091 405.025 182.606 404.961 182.191C404.897 181.777 403.687 181.588 402.413 181.766C401.139 181.943 400.005 182.428 400.069 182.842Z" fill="#CA7E86"/>
<path d="M399.827 185.338C399.89 184.924 401.101 184.723 402.375 184.912C403.649 185.102 404.782 185.575 404.719 185.989C404.655 186.403 403.445 186.592 402.171 186.415C400.897 186.237 399.763 185.752 399.827 185.338Z" fill="#CA7E86"/>
<path d="M366.972 185.338C366.908 184.924 365.698 184.723 364.424 184.912C363.15 185.102 362.016 185.575 362.08 185.989C362.143 186.403 363.29 186.592 364.628 186.415C365.965 186.237 367.035 185.752 366.972 185.338Z" fill="#CA7E86"/>
<path d="M367.201 182.842C367.138 183.256 365.991 183.446 364.653 183.268C363.316 183.091 362.246 182.606 362.309 182.191C362.373 181.777 363.583 181.588 364.857 181.766C366.131 181.943 367.265 182.428 367.201 182.842Z" fill="#CA7E86"/>
<path d="M391.826 177.187C391.826 180.156 392.578 182.57 393.508 182.57C394.438 182.57 395.189 180.204 395.189 177.187C395.189 174.17 394.438 171.792 393.508 171.792C392.578 171.792 391.826 174.206 391.826 177.187Z" fill="#434244"/>
<path d="M371.647 178.003C371.647 180.949 372.31 183.339 373.138 183.339C373.966 183.339 374.628 180.973 374.628 178.003C374.628 175.034 373.953 172.656 373.138 172.656C372.323 172.656 371.647 175.046 371.647 178.003Z" fill="#434244"/>
<path d="M381.291 188.651H381.126C380.425 188.592 378.769 188.036 378.578 184.108C378.318 180.71 378.619 177.295 379.47 173.981C379.479 173.918 379.502 173.858 379.539 173.805C379.575 173.751 379.624 173.706 379.681 173.671C379.738 173.637 379.803 173.615 379.871 173.606C379.938 173.597 380.007 173.602 380.072 173.62C380.137 173.638 380.198 173.669 380.249 173.711C380.3 173.753 380.341 173.805 380.368 173.863C380.396 173.921 380.409 173.983 380.408 174.047C380.407 174.11 380.391 174.172 380.361 174.229C379.556 177.453 379.273 180.771 379.52 184.072C379.635 186.711 380.463 187.716 381.189 187.775C382.272 187.882 383.903 186.166 384.578 183.268C384.608 183.157 384.683 183.06 384.787 182.999C384.892 182.937 385.017 182.915 385.139 182.937C385.2 182.948 385.257 182.97 385.309 183.003C385.36 183.035 385.404 183.077 385.437 183.126C385.47 183.175 385.493 183.229 385.503 183.286C385.513 183.343 385.51 183.401 385.495 183.457C384.782 186.51 383.037 188.651 381.291 188.651Z" fill="#CA7E86"/>
<path d="M365.443 172.265C365.966 172.265 367.52 169.178 369.686 168.219C370.451 167.916 371.274 167.76 372.106 167.76C372.938 167.76 373.761 167.916 374.527 168.219C374.688 168.313 374.87 168.371 375.059 168.391C375.248 168.411 375.439 168.391 375.619 168.333C375.798 168.275 375.962 168.18 376.097 168.056C376.232 167.932 376.335 167.781 376.4 167.615C376.464 167.449 376.487 167.271 376.468 167.095C376.449 166.92 376.387 166.75 376.288 166.6C376.189 166.449 376.055 166.32 375.896 166.224C375.737 166.128 375.556 166.066 375.367 166.043C374.289 165.624 373.13 165.416 371.962 165.433C370.793 165.449 369.641 165.689 368.577 166.137C365.456 167.557 365.316 172.265 365.443 172.265Z" fill="#564B44"/>
<path d="M402.591 172.656C403.317 172.431 402.133 167.427 398.629 165.841C397.43 165.343 396.133 165.076 394.819 165.058C393.505 165.039 392.201 165.27 390.986 165.735C390.812 165.792 390.652 165.881 390.515 165.996C390.377 166.111 390.266 166.25 390.187 166.405C390.108 166.56 390.062 166.727 390.053 166.899C390.043 167.07 390.07 167.241 390.132 167.403C390.194 167.564 390.29 167.713 390.413 167.84C390.537 167.968 390.687 168.071 390.853 168.145C391.02 168.218 391.201 168.261 391.385 168.269C391.57 168.278 391.754 168.253 391.928 168.196C392.794 167.851 393.726 167.674 394.667 167.674C395.609 167.674 396.541 167.851 397.406 168.196C399.827 169.296 402.438 172.703 402.591 172.656Z" fill="#564B44"/>
<path d="M389.087 166.232L384.361 158.944C384.361 158.944 399.457 166.599 414.706 162.943C414.706 162.943 410.566 179.033 415.687 187.953C415.687 187.953 417.611 176.122 420.783 173.33C422.302 171.828 424.223 170.726 426.35 170.136C426.35 170.136 437.166 152.39 423.573 135.827C409.98 119.264 381.418 123.192 368.895 132.881C349.977 134.821 369.481 161.677 389.087 166.232Z" fill="#564B44"/>
<path d="M392.006 190.769C392.006 190.769 382.82 198.127 375.444 192.058" stroke="#CA7E86" stroke-width="0.636971" stroke-linecap="round" stroke-linejoin="round"/>
<path d="M399.114 361.083C399.573 359.521 396.566 349.655 394.885 349.134C393.203 348.613 386.592 345.727 383.419 345.1C379.952 344.368 376.43 343.882 372.884 343.645C371.495 342.39 366.884 339.243 364.106 336.629C360.705 340.415 359.011 343.834 355.635 347.679C358.476 349.418 365.011 353.594 365.189 353.914C370.005 361.556 379.381 360.74 379.852 361.26C380.324 361.781 380.591 369.104 383.139 369.625C384.413 369.731 385.394 367.779 385.394 367.779C386.12 371.222 387.216 371.79 388.197 371.328C389.178 370.867 389.305 368.3 389.305 368.3C389.483 370.926 392.617 372.488 393.675 371.269C394.732 370.051 393.522 358.93 392.554 357.546C391.585 356.161 385.878 351.63 385.878 351.63L391.776 353.535C391.776 353.535 393.687 358.989 395.84 363.627C397.853 366.182 399.063 364.076 399.114 361.083Z" fill="#E5B7AC"/>
<path opacity="0.6" d="M389.559 367.897C389.576 366.566 389.517 365.236 389.381 363.911C389.268 362.58 389.072 361.257 388.795 359.947C388.656 359.278 388.469 358.618 388.234 357.972L387.992 357.475C387.887 357.299 387.759 357.136 387.61 356.99C387.335 356.759 387.041 356.55 386.731 356.363C385.524 355.615 384.245 354.973 382.909 354.446C384.056 355.239 385.241 355.996 386.336 356.812C386.591 357.025 386.858 357.238 387.1 357.463C387.282 357.686 387.416 357.939 387.495 358.208C387.695 358.827 387.861 359.455 387.992 360.089C388.578 362.668 388.96 365.295 389.559 367.897Z" fill="#CA7E86"/>
<path opacity="0.6" d="M385.215 367.471C385.311 366.013 385.234 364.549 384.985 363.106C384.864 362.388 384.698 361.677 384.489 360.976C384.332 360.248 384.011 359.558 383.546 358.953C383.718 359.654 383.833 360.366 383.89 361.083C383.966 361.793 384.081 362.514 384.196 363.224C384.411 364.663 384.752 366.084 385.215 367.471Z" fill="#CA7E86"/>
<path d="M404.872 201.239C399.242 201.239 395.815 199.724 394.681 196.719C393.139 192.543 396.936 186.971 398.413 185.977C400.783 184.38 419.777 173.957 420.529 173.531L419.255 175.389C419.077 175.495 401.356 185.173 399.025 186.746C397.84 187.551 394.273 192.661 395.662 196.412C396.643 199.109 399.662 200.754 405.216 200.635L417.191 188.047L418.695 188.331L405.955 201.274H404.783L404.872 201.239Z" fill="white"/>
<path d="M400.222 185.717C400.222 185.717 383.075 180.985 379.393 181.316C375.712 181.647 365.087 187.042 365.087 187.042C365.087 187.042 369.138 204.256 378.489 210.147C388.489 215.992 406.273 201.109 406.273 201.109C406.273 201.109 401.585 198.187 400.337 195.004C399.088 191.822 400.222 185.717 400.222 185.717Z" fill="white"/>
<path d="M270.981 241.534C270.981 241.534 281.275 241.782 282.574 240.895C283.874 240.008 290.562 234.057 292.396 233.797C294.231 233.536 303.314 231.844 304.18 231.844C305.047 231.844 306.117 234.625 303.658 236.222C301.866 237.268 299.871 237.979 297.785 238.316C297.301 238.47 295.734 239.724 295.938 240.114C296.142 240.505 302.779 240.564 304.614 240.268C306.448 239.972 315.684 237.168 317.276 237.902C318.869 238.635 317.62 241.747 313.773 242.859C309.926 243.971 307.505 244.716 307.505 244.716C307.505 244.716 306.461 251.342 305.493 252.702C304.524 254.063 299.352 255.66 294.893 256.346C291.032 256.949 287.064 256.337 283.619 254.607L272.357 255.79L270.981 241.534Z" fill="#97B6F7"/>
<path d="M298.613 251.022C297.819 250.614 296.993 250.262 296.141 249.969C295.284 249.683 294.408 249.45 293.517 249.271C292.626 249.081 291.717 248.966 290.804 248.928C289.881 248.879 288.956 248.907 288.039 249.011L288.268 249.543C289.02 249.039 289.743 248.498 290.434 247.923C291.118 247.339 291.764 246.719 292.371 246.065C292.972 245.409 293.521 244.713 294.014 243.983C294.49 243.252 294.887 242.479 295.199 241.676C294.778 242.429 294.293 243.149 293.746 243.829C293.214 244.509 292.631 245.153 292.001 245.757C291.364 246.361 290.727 246.941 290.026 247.497C289.354 248.054 288.648 248.575 287.912 249.058L286.88 249.721L288.154 249.591C289.033 249.49 289.919 249.454 290.804 249.484C291.691 249.506 292.576 249.581 293.453 249.709C294.313 249.841 295.164 250.019 296.001 250.241C296.888 250.452 297.76 250.713 298.613 251.022V251.022Z" fill="#678ED8"/>
<path d="M306.854 241.901L309.848 239.215L321.619 250.774C321.267 251.328 320.839 251.837 320.346 252.288C319.898 252.702 319.365 253.028 318.779 253.246L306.854 241.901Z" fill="#DBD4F5"/>
<path d="M314.091 245.994L315.671 244.728L321.951 250.644C321.765 251.358 321.366 252.009 320.801 252.524C320.236 253.038 319.526 253.395 318.754 253.554L312.384 247.485L314.091 245.994Z" fill="#DF922F"/>
<path d="M309.874 238.316L305.887 241.865L318.626 253.945C319.466 253.733 320.233 253.326 320.856 252.762C321.506 252.163 322.036 251.462 322.422 250.691L309.874 238.316ZM320.371 252.288C319.924 252.702 319.391 253.028 318.804 253.247L306.829 241.901L309.823 239.215L321.594 250.774C321.258 251.325 320.847 251.834 320.371 252.288V252.288Z" fill="white"/>
<path d="M308.052 239.298C307.971 239.542 307.833 239.765 307.648 239.954C307.463 240.142 307.236 240.29 306.982 240.386L302.269 235.926L303.542 234.838L308.052 239.298Z" fill="white"/>
<path d="M321.429 251.614L323.021 253.199C322.851 253.55 322.607 253.867 322.303 254.129C321.999 254.391 321.641 254.594 321.251 254.725L319.684 253.294C320.282 252.714 320.856 252.17 321.429 251.614Z" fill="white"/>
<path d="M304.952 242.869L311.001 237.429L309.805 236.281L303.755 241.721L304.952 242.869Z" fill="white"/>
<path d="M301.356 237.315L304.807 234.213L304.124 233.558L300.674 236.661L301.356 237.315Z" fill="white"/>
<path d="M306.205 239.665C306.665 239.367 307.172 239.14 307.708 238.99L314.562 245.474L313.352 246.562L306.205 239.665Z" fill="white"/>
<path d="M315.483 244.086L312.033 247.189L312.716 247.843L316.166 244.74L315.483 244.086Z" fill="white"/>
<path d="M322.27 253.708L326.831 258.476L321.913 254.062L322.27 253.708Z" fill="white"/>
<path d="M307.81 249.354C308.596 248.646 309.284 247.852 309.861 246.988C310.138 246.048 310.208 245.066 310.065 244.101C310.065 243.462 307.517 239.428 306.447 239.369C305.377 239.31 304.256 241.191 305.415 243.936C306.575 246.68 307.81 249.354 307.81 249.354Z" fill="#7EA4EB"/>
<path d="M305.084 251.827C306.37 251.749 307.593 251.279 308.561 250.49C309.632 249.307 308.217 244.16 307.453 243.084C306.689 242.007 304.587 241.901 304.026 244.752C303.466 247.603 305.084 251.827 305.084 251.827Z" fill="#8AAEEE"/>
<path d="M300.905 253.175C301.236 253.885 302.179 254.595 303.746 253.85C305.313 253.104 305.848 252.868 306.052 252.371C306.385 251.003 306.415 249.586 306.141 248.207C305.759 247.402 304.294 243.853 303.122 243.758C301.95 243.664 300.689 245.639 301.695 247.804C302.126 248.663 302.505 249.544 302.829 250.443C302.829 250.443 299.746 250.691 300.905 253.175Z" fill="#97B6F7"/>
<path d="M304.104 244.468C304.023 244.279 303.896 244.111 303.732 243.978C303.568 243.844 303.372 243.748 303.161 243.699C302.933 243.668 302.702 243.684 302.482 243.746C302.262 243.807 302.059 243.912 301.887 244.054C301.515 244.297 301.221 244.628 301.033 245.012C300.859 245.385 300.772 245.789 300.779 246.195C300.813 246.996 301.026 247.781 301.403 248.502C301.759 249.212 302.185 249.889 302.677 250.525L302.97 250.218C302.746 250.13 302.51 250.07 302.269 250.04C302.028 250.011 301.784 250.011 301.543 250.04C301.307 250.076 301.081 250.157 300.88 250.277C300.688 250.404 300.535 250.575 300.435 250.774C300.571 250.618 300.744 250.493 300.941 250.409C301.137 250.325 301.352 250.284 301.568 250.289C301.988 250.31 302.398 250.419 302.766 250.608L303.428 250.916L303.072 250.301C302.674 249.645 302.317 248.97 302.002 248.277C301.684 247.614 301.491 246.906 301.428 246.183C301.396 245.84 301.448 245.495 301.58 245.173C301.712 244.851 301.922 244.561 302.193 244.326C302.316 244.199 302.464 244.096 302.631 244.023C302.797 243.95 302.977 243.908 303.161 243.9C303.353 243.926 303.536 243.991 303.699 244.089C303.861 244.187 304 244.316 304.104 244.468V244.468Z" fill="#678ED8"/>
<path d="M272.713 236.316L274.293 261.741L235.438 265.018L236.291 234.4L272.713 236.316Z" fill="#F0F1F1"/>
<path d="M238.762 526.05C238.622 525.943 238.52 525.837 238.367 525.73C234.469 523.045 204.71 513.746 204.2 512.326C204.2 512.255 203.754 509.002 203.754 509.002L181.065 506.884C181.065 506.884 180.441 514.68 180.288 517.662L178.543 535.585L189.117 536.295L194.977 531.729L210.442 535.467L243.106 534.556C243.147 532.922 242.775 531.301 242.02 529.825C241.266 528.348 240.15 527.055 238.762 526.05V526.05Z" fill="#302E2F"/>
<path d="M167.079 526.05C166.951 525.943 166.849 525.837 166.696 525.73C162.785 523.033 133.026 513.746 132.517 512.385C132.517 512.314 132.083 509.061 132.083 509.061L109.395 506.943C109.395 506.943 108.77 514.739 108.617 517.721L106.859 535.644L117.433 536.354L123.293 531.788L138.759 535.526L171.435 534.615C171.482 532.97 171.112 531.338 170.356 529.85C169.599 528.363 168.476 527.061 167.079 526.05V526.05Z" fill="#302E2F"/>
<path d="M105.151 508.836L138.58 512.255C138.58 512.255 160.657 418.947 161.612 413.729C162.886 406.631 172.148 343.077 171.613 341.184L172.084 402.23L175.422 512.255H209.818C209.818 512.255 216.188 402.999 215.386 396.918C214.417 388.944 211.666 317.238 204.901 305.088C204.239 303.905 203.869 303.231 203.869 303.231L134.376 300.829C134.376 300.829 123.598 323.97 123.598 339.326C125.19 343.408 105.151 508.836 105.151 508.836Z" fill="#434244"/>
<path d="M222.074 166.504C222.074 166.504 192.977 156.897 182.059 160.044C171.141 163.191 143.191 176.761 139.662 200.6C136.133 224.439 136.847 260.049 137.204 267.135C137.56 274.222 125.05 317.333 125.407 321.651C125.764 325.969 198.913 339.894 229.144 327.294C229.144 327.294 235.08 204.007 231.513 189.68C229.608 181.567 226.427 173.758 222.074 166.504V166.504Z" fill="#678AC2"/>
<path d="M206.659 430.375L241.744 424.389C241.744 424.389 239.132 273.169 241.986 261.043C247.005 230.224 242.992 189.325 240.189 186.013C237.387 182.7 220.392 162.907 220.392 162.907L223.654 164.398C223.947 165.676 220.545 203.025 220.405 223.126C220.405 228.142 206.697 330.051 206.697 330.051L206.659 430.375Z" fill="white"/>
<path d="M217.182 248.774L221.844 249.958L236.393 202.28L226.418 186.533L235.463 178.725L223.437 163.783C223.704 165.096 219.296 238.221 217.182 248.774Z" fill="#E5E5E6"/>
<path d="M223.463 167.604C221.723 175.035 217.643 181.817 211.742 187.089C201.517 178.351 192.761 168.238 185.767 157.087L198.417 124.34L208.494 145.244L226.01 146.818L223.463 167.604Z" fill="#E5B7AC"/>
<path opacity="0.5" d="M224.38 163.83C221.972 163.014 209.093 165.392 193.028 138.193L199.092 122.399L210.265 145.635L227.234 149.988L226.342 154.271L224.38 163.83Z" fill="#CA7E86"/>
<path d="M239.794 85.0024C239.794 85.0024 219.246 75.0647 201.423 96.9396C201.423 96.9396 190.493 111.207 193.639 128.102C193.639 128.102 203.729 151.763 220.175 161.488C231.819 167.865 250.126 149.977 255.553 128.811C260.7 108.782 253.667 89.8885 239.794 85.0024Z" fill="#E5B7AC"/>
<path d="M219.603 124.269C220.346 123.495 221.252 122.871 222.265 122.435C223.208 122.081 224.246 122.01 225.233 122.234C226.24 122.397 227.147 122.898 227.781 123.641C228.395 124.497 228.787 125.473 228.928 126.493C229.123 125.947 229.198 125.371 229.15 124.798C229.102 124.225 228.931 123.667 228.648 123.156C228.335 122.602 227.893 122.121 227.352 121.748C226.812 121.375 226.188 121.121 225.526 121.003C224.264 120.726 222.934 120.919 221.823 121.54C220.711 122.161 219.905 123.162 219.577 124.328L219.603 124.269Z" fill="#564B44"/>
<path d="M250.203 129.994C250.315 129.492 250.319 128.974 250.215 128.47C250.111 127.966 249.901 127.486 249.597 127.057C249.292 126.628 248.9 126.26 248.443 125.972C247.985 125.684 247.471 125.483 246.929 125.38C246.362 125.247 245.77 125.237 245.198 125.349C244.626 125.462 244.09 125.695 243.63 126.031C243.214 126.353 242.874 126.751 242.633 127.201C242.391 127.651 242.254 128.143 242.229 128.646C242.757 127.931 243.449 127.333 244.254 126.895C244.992 126.567 245.83 126.488 246.624 126.67C247.446 126.825 248.2 127.204 248.789 127.758C249.412 128.412 249.893 129.171 250.203 129.994V129.994Z" fill="#564B44"/>
<path d="M197.283 120.246L194.862 129.711C185.499 130.681 180.454 121.228 180.849 114.485C181.027 111.089 182.594 108.392 185.677 108.025C192.161 107.28 195.27 113.668 196.544 117.49C196.851 118.393 197.097 119.314 197.283 120.246V120.246Z" fill="#E5B7AC"/>
<path d="M186.862 114.142C192.914 115.407 195.079 121.24 195.168 121.453C195.19 121.512 195.199 121.576 195.194 121.639C195.189 121.701 195.171 121.763 195.14 121.819C195.109 121.875 195.066 121.925 195.014 121.966C194.962 122.007 194.902 122.037 194.837 122.056C194.746 122.086 194.648 122.086 194.557 122.056C194.472 122.038 194.394 122.001 194.329 121.947C194.264 121.893 194.216 121.825 194.187 121.748C193.558 120.232 192.619 118.842 191.423 117.655C189.015 118.46 189.245 121.961 189.257 121.997C189.264 122.124 189.218 122.248 189.127 122.343C189.037 122.438 188.91 122.496 188.773 122.506C188.723 122.517 188.671 122.517 188.62 122.506C188.513 122.485 188.416 122.432 188.345 122.355C188.274 122.278 188.232 122.181 188.225 122.08C188.225 121.902 187.958 118.223 190.608 116.957C189.511 116.069 188.2 115.44 186.786 115.123H186.633C186.565 115.111 186.501 115.086 186.444 115.05C186.387 115.013 186.339 114.967 186.302 114.912C186.265 114.858 186.24 114.797 186.229 114.734C186.218 114.671 186.221 114.606 186.238 114.544C186.25 114.479 186.276 114.418 186.314 114.362C186.352 114.307 186.402 114.259 186.46 114.222C186.518 114.185 186.583 114.158 186.652 114.144C186.722 114.131 186.793 114.13 186.862 114.142V114.142Z" fill="#CA7E86"/>
<path d="M214.29 128.326C214.112 128.764 212.812 128.693 211.398 128.173C209.984 127.652 208.991 126.883 209.182 126.457C209.373 126.031 210.66 126.09 212.074 126.611C213.488 127.131 214.481 127.889 214.29 128.326Z" fill="#CA7E86"/>
<path d="M213.857 131.071C213.857 130.61 212.711 130.125 211.208 129.994C209.704 129.864 208.43 130.136 208.379 130.598C208.329 131.059 209.526 131.545 211.042 131.675C212.558 131.805 213.819 131.533 213.857 131.071Z" fill="#CA7E86"/>
<path d="M249.234 138.891C249.425 138.465 250.712 138.524 252.126 139.045C253.54 139.565 254.534 140.334 254.355 140.76C254.177 141.186 252.877 141.127 251.463 140.618C250.049 140.11 249.03 139.329 249.234 138.891Z" fill="#CA7E86"/>
<path d="M249.681 136.17C249.681 136.632 250.814 137.105 252.33 137.235C253.846 137.365 255.108 137.105 255.146 136.632C255.184 136.158 254.012 135.697 252.496 135.567C250.98 135.437 249.719 135.697 249.681 136.17Z" fill="#CA7E86"/>
<path d="M232.903 139.057H233.081C233.858 139.163 235.795 138.95 237.068 134.762C238.279 131.166 238.902 127.421 238.916 123.653C238.903 123.528 238.839 123.412 238.737 123.328C238.636 123.245 238.504 123.2 238.368 123.204C238.299 123.207 238.232 123.222 238.17 123.25C238.108 123.277 238.052 123.315 238.006 123.362C237.96 123.41 237.924 123.465 237.901 123.525C237.878 123.585 237.868 123.649 237.871 123.713C237.859 127.373 237.249 131.011 236.062 134.502C235.209 137.329 234.049 138.205 233.234 138.051C232.049 137.909 230.775 135.685 230.839 132.384C230.839 132.258 230.786 132.136 230.69 132.045C230.595 131.955 230.466 131.902 230.329 131.899C230.261 131.898 230.192 131.909 230.128 131.932C230.064 131.955 230.006 131.989 229.956 132.033C229.906 132.077 229.867 132.129 229.839 132.188C229.811 132.246 229.796 132.309 229.794 132.372C229.731 135.91 231.03 138.643 232.903 139.057Z" fill="#CA7E86"/>
<path d="M250.789 119.607C250.125 119.124 249.364 118.77 248.549 118.567C247.735 118.364 246.885 118.315 246.05 118.424C245.712 118.444 245.379 118.339 245.125 118.132C244.87 117.924 244.715 117.632 244.693 117.318C244.671 117.004 244.784 116.695 245.008 116.459C245.231 116.222 245.546 116.078 245.884 116.058C247.062 115.93 248.255 116.027 249.39 116.345C250.525 116.662 251.578 117.193 252.483 117.903C255.12 120.08 254.815 124.682 254.114 124.718C253.974 124.73 252.598 121.133 250.789 119.607Z" fill="#564B44"/>
<path d="M217.322 117.241C216.609 116.792 219.501 111.799 223.692 111.089C225.133 110.896 226.602 110.977 228.008 111.329C229.415 111.681 230.729 112.296 231.87 113.136C232.208 113.359 232.437 113.697 232.506 114.076C232.576 114.456 232.48 114.845 232.24 115.159C232 115.473 231.636 115.685 231.227 115.749C230.819 115.814 230.399 115.725 230.061 115.502C229.253 114.894 228.32 114.444 227.32 114.178C226.32 113.912 225.272 113.835 224.24 113.952C221.36 114.414 217.462 117.336 217.322 117.241Z" fill="#564B44"/>
<path d="M192.557 90.6575C196.939 86.5404 202.927 88.6463 202.927 88.6463C208.265 78.886 215.908 72.8523 230.393 74.9227C244.878 76.9931 258.777 91.6513 260.968 97.7086C263.159 103.766 262.242 107.552 259.21 106.688C260.407 113.325 257.12 120.069 257.12 120.069C257.391 115.132 256.962 110.184 255.846 105.351C251.795 103.375 247.196 100.087 239.285 96.9041C234.882 95.1492 230.126 94.29 225.336 94.3842C237.489 96.5492 243.171 103.174 243.171 103.174C228.024 92.7752 207.857 98.4421 207.857 98.4421C207.934 106.451 200.213 109.693 200.213 109.693C201.908 117.797 197.971 130.468 197.971 130.468C195.564 125.179 196.494 117.454 196.494 117.454C194.634 111.468 187.933 107.989 187.933 107.989C187.933 107.989 188.175 94.7627 192.557 90.6575Z" fill="#564B44"/>
<path d="M197.386 115.549C197.386 115.549 213.947 130.148 215.871 132.467C217.795 134.786 221.272 151.207 203.246 145.93L193.934 130.065" stroke="white" stroke-width="0.955456" stroke-miterlimit="10"/>
<path d="M214.558 131.331C214.558 131.331 233.973 131.13 237.718 132.443C241.464 133.757 250.865 142.334 250.865 142.334C250.865 142.334 241.158 159.204 229.514 162.801C217.208 166.172 202.608 146.238 202.608 146.238C202.608 146.238 209.182 143.872 211.526 140.938C213.87 138.004 214.558 131.331 214.558 131.331Z" fill="white"/>
<path d="M86.7812 419.112L178.964 430.375L206.685 329.554C206.685 329.554 206.927 285.864 206.876 253.093C206.876 239.535 206.799 227.846 206.646 221.895C206.137 201.511 186.569 154.981 186.569 154.981C186.569 154.981 148.899 169.178 141.854 183.552C129.815 197.074 112.999 248.621 113.254 261.066C113.509 273.512 86.7812 419.112 86.7812 419.112Z" fill="white"/>
<path d="M191.614 181.635L178.046 191.183L206.888 253.069C206.888 239.511 206.812 227.822 206.659 221.872C206.149 201.487 186.582 154.957 186.582 154.957L175.142 169.296L191.614 181.635Z" fill="#E5E5E6"/>
<path d="M217.921 265.586C222.1 262.226 222.953 255.695 221.259 250.052C221.093 249.638 220.851 249.153 220.558 248.549C218.265 244.219 203.054 226.592 203.054 226.592L169.575 185.93C169.575 185.93 157.116 174.986 145.37 182.38C136.644 186.344 139.676 200.552 139.676 200.552C139.676 200.552 183.206 257.612 201.156 265.503L201.424 265.609C209.258 268.934 214.634 268.247 217.921 265.586Z" fill="#E5B7AC"/>
<path d="M198.073 263.48C200.621 268.508 242.661 284.065 288.841 292.181L295.58 278.446C295.58 278.446 221.807 249.188 219.144 248.975C209.22 248.242 208.952 256.074 202.494 259.623C200.941 260.451 199.485 261.426 198.149 262.533C198.02 262.658 197.942 262.821 197.928 262.994C197.914 263.167 197.965 263.338 198.073 263.48V263.48Z" fill="#E5B7AC"/>
<path d="M193.525 131.698C196.595 125.156 203.716 114.958 205.895 113.869C208.073 112.781 214.354 106.57 232.647 106.12C237.716 105.873 242.755 106.965 247.183 109.268C251.611 111.571 255.246 114.992 257.668 119.134C259.063 118.153 260.262 116.952 261.209 115.585C268.993 104.641 263.935 82.7546 255.222 79.6195C245.387 76.0703 225.743 63.2577 204.264 71.8822C198.075 74.3723 192.522 78.0492 187.97 82.6718V82.6718C179.053 91.6512 175.664 102.074 175.103 105.694C172.594 120.79 193.525 131.698 193.525 131.698Z" fill="#72C7B5"/>
<path d="M168.275 178.607L224.329 248.408L290.153 270.507L279.694 296.535C279.694 296.535 205.793 275.867 199.347 272.223C192.9 268.579 136.49 206.172 135.407 200.801C134.325 195.43 139.369 182.712 147.523 176.477C155.676 170.242 168.275 178.607 168.275 178.607Z" fill="white"/>
<path d="M285.555 289.815C286.154 288.49 286.727 287.165 287.287 285.828C288.625 283.072 290.549 279.676 291.772 276.86C296.205 278.292 299.848 279.286 302.715 280.185C305.803 279.216 308.986 278.53 312.218 278.138C315.645 277.712 322.525 276.21 324.244 276.021C325.964 275.831 334.359 283.521 334.652 285.095C334.945 286.668 337.047 290.383 332.461 287.863C328.448 284.574 325.085 281.569 325.085 281.569L317.365 282.965C317.365 282.965 324.525 284.775 326.015 285.627C327.506 286.479 333.659 295.896 333.238 297.398C332.818 298.901 329.353 298.747 328.015 296.476C328.015 296.476 329.06 298.842 328.397 299.611C327.735 300.38 326.499 300.332 324.295 297.552C324.295 297.552 324.295 299.682 323.123 300.084C320.575 300.616 317.059 294.169 316.397 293.92C315.734 293.672 308.295 299.019 300.536 294.098C300.267 293.925 300.008 293.739 299.759 293.542C294.791 293.009 289.733 292.359 284.688 291.767L285.555 289.815Z" fill="#97B6F7"/>
<path d="M328.014 296.476C327.52 295.376 326.963 294.302 326.345 293.258C325.74 292.203 325.072 291.18 324.345 290.193C323.958 289.692 323.533 289.218 323.071 288.774L322.689 288.443C322.534 288.336 322.368 288.245 322.192 288.17C321.876 288.075 321.552 288 321.224 287.946C319.963 287.732 318.684 287.629 317.402 287.638C318.676 287.898 319.95 288.135 321.109 288.443L321.989 288.715C322.222 288.841 322.43 289.005 322.6 289.2C323.001 289.642 323.375 290.104 323.721 290.584C325.199 292.5 326.537 294.524 328.014 296.476Z" fill="#678ED8"/>
<path d="M324.295 297.552C323.818 296.309 323.194 295.119 322.435 294.003C322.041 293.454 321.616 292.925 321.161 292.418C320.746 291.875 320.218 291.416 319.606 291.069C320.019 291.585 320.386 292.131 320.702 292.702C321.046 293.27 321.415 293.814 321.772 294.358C322.519 295.484 323.363 296.552 324.295 297.552Z" fill="#678ED8"/>
<g style="mix-blend-mode:multiply">
<path d="M193.525 131.698C196.595 125.156 203.717 114.958 205.895 113.869C208.073 112.781 214.354 106.57 232.648 106.12C237.716 105.873 242.756 106.965 247.184 109.268C251.612 111.571 255.247 114.992 257.668 119.134C259.064 118.153 260.263 116.952 261.21 115.585C261.21 115.585 250.139 100.938 234.457 100.347C218.775 99.7553 203.882 106.38 199.105 109.811C194.328 113.242 186.366 104.961 183.932 100.252C181.499 95.5436 187.754 83.2989 188.047 82.6482C179.13 91.6276 175.741 102.05 175.18 105.671C172.594 120.79 193.525 131.698 193.525 131.698Z" fill="#E5E5E6"/>
</g>
<path d="M240.814 285.461C235.183 283.663 229.514 281.971 223.909 280.126C218.303 278.28 212.66 276.517 207.169 274.506C205.793 273.998 204.43 273.465 203.118 272.897C202.468 272.613 201.844 272.318 201.22 272.01C200.945 271.865 200.681 271.703 200.43 271.525C200.181 271.344 199.951 271.142 199.742 270.922C197.78 268.993 195.806 266.864 193.856 264.793L182.136 252.288C174.301 244.007 166.479 235.643 158.53 227.444L152.568 221.268C151.553 220.304 150.62 219.267 149.778 218.169C148.963 217.043 148.251 215.856 147.651 214.619C146.423 212.166 145.826 209.48 145.905 206.776C146.057 204.034 146.866 201.358 148.275 198.944C146.579 201.267 145.521 203.939 145.192 206.728C144.912 209.571 145.348 212.434 146.466 215.093C147.003 216.428 147.686 217.708 148.504 218.914C149.322 220.113 150.238 221.252 151.243 222.321L156.912 228.722C164.505 237.248 172.212 245.679 180.034 254.016C183.958 258.18 187.882 262.297 191.869 266.461C193.895 268.508 195.844 270.531 198.035 272.578C198.321 272.866 198.636 273.128 198.978 273.359C199.324 273.595 199.69 273.804 200.073 273.986C200.756 274.331 201.458 274.643 202.175 274.92C203.589 275.476 204.991 275.961 206.405 276.435C217.701 279.988 229.185 283.001 240.814 285.461V285.461Z" fill="#E5E5E6"/>
<path d="M132.912 325.721L129.701 366.773L168.875 371.671L177.206 330.619L132.912 325.721Z" fill="#E5E5E6"/>
<path opacity="0.5" d="M342.243 77.5576C341.829 77.2845 341.33 77.1425 340.822 77.1526C340.314 77.1627 339.822 77.3243 339.421 77.6136L336.209 75.4993C337.781 73.1834 338.446 70.4349 338.09 67.7172L339.735 67.4656C339.935 67.8321 340.257 68.1295 340.652 68.3142C341.048 68.499 341.497 68.5615 341.933 68.4926C342.309 68.4328 342.66 68.2773 342.947 68.0433C343.234 67.8094 343.445 67.5062 343.558 67.1674C343.67 66.8286 343.679 66.4675 343.583 66.1243C343.488 65.7811 343.292 65.4692 343.017 65.2232C342.742 64.9773 342.399 64.807 342.026 64.7312C341.653 64.6555 341.265 64.6772 340.905 64.7941C340.544 64.9109 340.226 65.1183 339.985 65.3931C339.744 65.668 339.59 65.9995 339.539 66.3509L337.891 66.6286C337.257 63.9548 335.651 61.5655 333.342 59.8633L335.611 56.8907C336.153 57.058 336.742 57.039 337.27 56.8372C337.798 56.6354 338.23 56.2641 338.488 55.791C338.746 55.318 338.813 54.7746 338.675 54.2599C338.538 53.7452 338.207 53.2933 337.741 52.9866C337.275 52.6799 336.706 52.5388 336.138 52.589C335.569 52.6392 335.039 52.8772 334.644 53.2599C334.248 53.6426 334.014 54.1444 333.984 54.6739C333.954 55.2035 334.129 55.7255 334.479 56.1449L332.224 59.0982C329.73 57.6383 326.771 57.0214 323.844 57.3516L323.57 55.8081C323.966 55.6298 324.287 55.3363 324.486 54.9723C324.685 54.6084 324.75 54.194 324.672 53.7924C324.609 53.4418 324.443 53.1143 324.192 52.8463C323.941 52.5784 323.614 52.3805 323.249 52.2749C322.884 52.1694 322.494 52.1601 322.123 52.2483C321.753 52.3365 321.416 52.5187 321.15 52.7744C320.884 53.0302 320.701 53.3494 320.619 53.6966C320.538 54.0437 320.562 54.4051 320.689 54.7403C320.815 55.0755 321.04 55.3714 321.337 55.5949C321.635 55.8184 321.993 55.9607 322.373 56.0059L322.672 57.537C319.793 58.125 317.22 59.6169 315.387 61.7611L312.176 59.6468C312.358 59.1409 312.338 58.5911 312.12 58.0976C311.902 57.604 311.5 57.1997 310.988 56.9583C310.476 56.7169 309.887 56.6545 309.33 56.7824C308.772 56.9104 308.283 57.2201 307.95 57.6553C307.618 58.0905 307.465 58.622 307.52 59.153C307.575 59.684 307.833 60.1791 308.248 60.548C308.663 60.917 309.206 61.1352 309.78 61.1628C310.354 61.1905 310.919 61.0258 311.373 60.6988L314.584 62.8131C313.012 65.129 312.348 67.8775 312.703 70.5952L311.041 70.8496C310.846 70.4819 310.529 70.1827 310.135 69.997C309.742 69.8113 309.295 69.7491 308.86 69.8198C308.321 69.9053 307.84 70.1861 307.524 70.6005C307.207 71.0149 307.081 71.5291 307.173 72.0299C307.263 72.476 307.52 72.878 307.899 73.1644C308.278 73.4508 308.754 73.603 309.243 73.594C309.731 73.585 310.2 73.4153 310.567 73.1151C310.933 72.8149 311.173 72.4037 311.244 71.9546L312.895 71.6934C313.533 74.3654 315.139 76.7533 317.444 78.4587L315.175 81.4313C314.633 81.264 314.044 81.283 313.516 81.4848C312.988 81.6867 312.556 82.0579 312.298 82.531C312.04 83.004 311.973 83.5474 312.11 84.0621C312.248 84.5769 312.579 85.0288 313.045 85.3354C313.511 85.6421 314.08 85.7832 314.648 85.7331C315.217 85.6829 315.747 85.4448 316.142 85.0621C316.537 84.6794 316.772 84.1776 316.802 83.6481C316.832 83.1186 316.657 82.5965 316.307 82.1771L318.577 79.2045C321.073 80.6599 324.03 81.2764 326.957 80.9511L327.227 82.4782C326.782 82.6849 326.432 83.0334 326.24 83.46C326.048 83.8867 326.028 84.3632 326.182 84.8026C326.337 85.242 326.657 85.6152 327.083 85.8541C327.509 86.093 328.014 86.1817 328.505 86.1041C328.995 86.0265 329.44 85.7877 329.757 85.4312C330.074 85.0747 330.243 84.6244 330.232 84.1621C330.222 83.6999 330.032 83.2565 329.699 82.9129C329.366 82.5693 328.911 82.3482 328.417 82.29L328.136 80.7561C331.015 80.1681 333.588 78.6762 335.421 76.532L338.632 78.6463C338.492 79.0355 338.47 79.4533 338.571 79.8531C338.672 80.2529 338.89 80.6188 339.201 80.9099C339.513 81.201 339.906 81.4059 340.336 81.5015C340.766 81.5972 341.216 81.5799 341.636 81.4516C342.055 81.3232 342.429 81.089 342.713 80.7749C342.998 80.4609 343.183 80.0794 343.248 79.6733C343.312 79.2672 343.254 78.8524 343.079 78.4754C342.904 78.0983 342.62 77.7738 342.258 77.5383L342.243 77.5576ZM328.94 67.4502C328.435 64.6958 329.455 62.2347 331.22 61.947C332.986 61.6593 334.829 63.6845 335.334 66.439C335.839 69.1934 334.819 71.6544 333.061 71.9325C331.302 72.2106 329.404 70.1773 328.94 67.4502ZM329.539 77.2417C329.296 77.082 329.11 76.8591 329.004 76.6012C328.898 76.3433 328.876 76.062 328.942 75.7928C329.008 75.5235 329.159 75.2786 329.375 75.0888C329.591 74.899 329.862 74.773 330.156 74.7267C330.449 74.6803 330.75 74.7157 331.021 74.8284C331.293 74.9411 331.522 75.1259 331.68 75.3597C331.839 75.5934 331.919 75.8655 331.911 76.1415C331.902 76.4175 331.806 76.685 331.634 76.9103C331.517 77.0641 331.368 77.1943 331.195 77.293C331.022 77.3917 330.829 77.4569 330.629 77.4847C330.428 77.5124 330.223 77.5022 330.027 77.4546C329.831 77.4069 329.647 77.3229 329.487 77.2075L329.539 77.2417Z" fill="#A4BAE2"/>
<path opacity="0.5" d="M123.324 100.327C123.029 99.8717 122.585 99.517 122.057 99.3147C121.528 99.1124 120.944 99.0733 120.39 99.2031L118.109 95.6818C120.851 93.9545 122.869 91.402 123.822 88.4543L125.637 88.8834C125.666 89.3448 125.853 89.7856 126.171 90.1414C126.489 90.4972 126.92 90.7494 127.403 90.8611C127.82 90.957 128.257 90.9437 128.666 90.8228C129.074 90.7018 129.439 90.478 129.719 90.1761C129.999 89.8742 130.184 89.506 130.252 89.1126C130.32 88.7192 130.27 88.316 130.106 87.9476C129.942 87.5793 129.671 87.2604 129.324 87.0264C128.977 86.7923 128.567 86.6522 128.139 86.6218C127.711 86.5913 127.282 86.6716 126.901 86.8538C126.519 87.0359 126.199 87.3128 125.977 87.6537L124.144 87.2497C124.79 84.2311 124.295 81.0982 122.743 78.3789L126.522 76.2673C126.999 76.6663 127.615 76.893 128.256 76.9061C128.898 76.9192 129.523 76.7178 130.019 76.3386C130.514 75.9594 130.846 75.4276 130.955 74.8401C131.063 74.2526 130.941 73.6484 130.61 73.1377C130.279 72.6269 129.761 72.2435 129.152 72.0573C128.542 71.871 127.88 71.8944 127.288 72.1231C126.695 72.3518 126.21 72.7706 125.922 73.3033C125.634 73.8359 125.561 74.4469 125.718 75.0251L121.963 77.1231C120.103 74.576 117.354 72.7022 114.18 71.8175L114.647 70.1132C115.141 70.0952 115.614 69.9275 115.996 69.6359C116.377 69.3443 116.646 68.9448 116.76 68.4983C116.865 68.1112 116.853 67.7044 116.725 67.3233C116.596 66.9422 116.355 66.6018 116.031 66.3402C115.706 66.0786 115.309 65.906 114.884 65.8417C114.46 65.7775 114.024 65.824 113.627 65.9763C113.229 66.1285 112.885 66.3804 112.632 66.7038C112.38 67.0272 112.229 67.4094 112.197 67.8077C112.165 68.206 112.253 68.6047 112.451 68.9593C112.649 69.314 112.949 69.6106 113.318 69.816L112.883 71.5179C109.632 70.9186 106.259 71.3783 103.331 72.8195L101.05 69.2982C101.483 68.8534 101.729 68.2789 101.744 67.6794C101.759 67.08 101.541 66.4955 101.131 66.0325C100.721 65.5695 100.145 65.2589 99.5085 65.1574C98.8722 65.0558 98.2177 65.1699 97.6644 65.4791C97.1111 65.7882 96.6959 66.2717 96.4944 66.8414C96.293 67.4111 96.3187 68.029 96.5669 68.5826C96.8151 69.1361 97.2693 69.5884 97.8466 69.857C98.4239 70.1255 99.0859 70.1925 99.712 70.0456L101.993 73.5669C99.2504 75.2941 97.2327 77.8466 96.2801 80.7943L94.4449 80.3607C94.423 79.9006 94.2409 79.4595 93.926 79.1037C93.6111 78.7479 93.1804 78.4965 92.6986 78.3874C92.1018 78.2499 91.4706 78.3379 90.9436 78.6323C90.4167 78.9267 90.0372 79.4034 89.8885 79.9575C89.7645 80.4544 89.8344 80.9761 90.0858 81.4297C90.3371 81.8833 90.7536 82.2393 91.2611 82.4345C91.7686 82.6296 92.3342 82.6512 92.8573 82.4954C93.3803 82.3396 93.8268 82.0164 94.1174 81.5836L95.9452 82.0057C95.3058 85.0245 95.8005 88.1556 97.3468 90.8765L93.5673 92.9882C93.0905 92.5892 92.4752 92.3625 91.8334 92.3494C91.1917 92.3363 90.5662 92.5376 90.071 92.9168C89.5757 93.296 89.2436 93.8278 89.1351 94.4154C89.0266 95.0029 89.149 95.607 89.4799 96.1178C89.8108 96.6286 90.3283 97.012 90.938 97.1982C91.5478 97.3844 92.2093 97.361 92.802 97.1323C93.3948 96.9037 93.8794 96.4849 94.1675 95.9522C94.4557 95.4196 94.5283 94.8085 94.372 94.2303L98.1515 92.1186C100.016 94.662 102.763 96.5347 105.934 97.4242L105.472 99.1103C104.913 99.1368 104.383 99.349 103.979 99.7081C103.574 100.067 103.322 100.549 103.268 101.067C103.214 101.584 103.362 102.102 103.685 102.527C104.008 102.951 104.485 103.253 105.028 103.379C105.571 103.504 106.145 103.444 106.644 103.21C107.144 102.976 107.536 102.582 107.749 102.102C107.963 101.621 107.983 101.086 107.807 100.592C107.631 100.099 107.269 99.6811 106.789 99.4144L107.244 97.717C110.494 98.3163 113.868 97.8566 116.796 96.4154L119.077 99.9367C118.743 100.279 118.519 100.7 118.428 101.154C118.338 101.608 118.385 102.076 118.565 102.506C118.744 102.936 119.049 103.312 119.446 103.59C119.842 103.868 120.314 104.039 120.809 104.082C121.303 104.126 121.801 104.041 122.247 103.837C122.692 103.632 123.068 103.317 123.332 102.926C123.595 102.535 123.736 102.083 123.739 101.621C123.742 101.16 123.607 100.707 123.348 100.313L123.324 100.327ZM114.528 84.3502C115.344 81.3021 117.589 79.1944 119.547 79.637C121.505 80.0795 122.42 82.9364 121.603 85.9844C120.787 89.0325 118.542 91.1402 116.597 90.6908C114.651 90.2413 113.682 87.3527 114.528 84.3502ZM110.393 94.6846C110.221 94.4186 110.137 94.1112 110.153 93.8012C110.169 93.4911 110.283 93.1924 110.482 92.9428C110.681 92.6932 110.955 92.5039 111.269 92.3988C111.584 92.2938 111.925 92.2777 112.249 92.3526C112.573 92.4275 112.866 92.5901 113.091 92.8197C113.316 93.0493 113.463 93.3357 113.512 93.6427C113.562 93.9496 113.512 94.2633 113.37 94.5441C113.228 94.8249 112.999 95.0602 112.712 95.2203C112.517 95.3296 112.3 95.4011 112.074 95.4304C111.848 95.4598 111.618 95.4464 111.398 95.391C111.178 95.3356 110.972 95.2394 110.793 95.1082C110.614 94.977 110.465 94.8135 110.356 94.6276L110.393 94.6846Z" fill="#A4BAE2"/>
<path opacity="0.5" d="M230.311 13.7045C230.021 13.916 229.811 14.2086 229.713 14.5391C229.616 14.8697 229.635 15.2206 229.769 15.5401L227.52 17.1777C226.11 15.6824 224.188 14.6843 222.078 14.3515L222.23 13.2367C222.546 13.1829 222.835 13.0366 223.056 12.8192C223.276 12.6019 223.416 12.3248 223.454 12.0285C223.487 11.773 223.444 11.5139 223.328 11.2802C223.212 11.0465 223.028 10.8472 222.797 10.7045C222.567 10.5618 222.298 10.4813 222.021 10.4719C221.744 10.4626 221.47 10.5247 221.229 10.6514C220.988 10.7782 220.789 10.9646 220.655 11.1898C220.521 11.4151 220.457 11.6705 220.47 11.9276C220.483 12.1846 220.572 12.4333 220.729 12.646C220.885 12.8587 221.101 13.027 221.354 13.1322L221.221 14.2551C219.086 14.1109 216.963 14.6544 215.21 15.7942L213.452 13.7124C213.69 13.3969 213.797 13.0126 213.755 12.6296C213.713 12.2466 213.525 11.8903 213.224 11.6257C212.923 11.361 212.529 11.2056 212.115 11.1877C211.701 11.1698 211.294 11.2906 210.968 11.5282C210.641 11.7657 210.418 12.1042 210.338 12.4819C210.258 12.8596 210.326 13.2515 210.531 13.5862C210.736 13.9208 211.064 14.176 211.454 14.3052C211.845 14.4344 212.272 14.429 212.659 14.2901L214.405 16.3584C212.795 17.6678 211.72 19.4527 211.362 21.4122L210.149 21.2697C210.097 20.9773 209.943 20.7086 209.712 20.5047C209.48 20.3009 209.183 20.173 208.866 20.1406C208.591 20.1084 208.311 20.1479 208.058 20.2548C207.805 20.3617 207.589 20.5318 207.435 20.746C207.28 20.9602 207.192 21.2101 207.182 21.4679C207.171 21.7257 207.238 21.9811 207.374 22.2057C207.511 22.4303 207.712 22.6151 207.956 22.7397C208.199 22.8642 208.475 22.9235 208.752 22.9109C209.029 22.8983 209.298 22.8144 209.527 22.6684C209.756 22.5225 209.936 22.3203 210.049 22.0844L211.258 22.208C211.103 24.1904 211.688 26.1619 212.915 27.7902L210.666 29.4278C210.325 29.2054 209.909 29.1043 209.494 29.1431C209.079 29.1818 208.693 29.3577 208.406 29.6387C208.119 29.9198 207.951 30.2872 207.931 30.674C207.911 31.0609 208.042 31.4413 208.3 31.7461C208.557 32.0508 208.924 32.2596 209.333 32.3342C209.742 32.4089 210.166 32.3444 210.529 32.1527C210.891 31.961 211.167 31.6547 211.307 31.2898C211.446 30.9248 211.44 30.5255 211.288 30.1645L213.537 28.5269C214.947 30.0222 216.869 31.0204 218.979 31.3532L218.826 32.4799C218.51 32.5295 218.22 32.673 218 32.8887C217.779 33.1044 217.64 33.3807 217.603 33.6762C217.555 34.0423 217.666 34.411 217.911 34.7013C218.156 34.9915 218.516 35.1795 218.91 35.224C219.263 35.2583 219.617 35.1753 219.91 34.9896C220.203 34.804 220.416 34.5278 220.51 34.2102C220.605 33.8926 220.575 33.5543 220.425 33.2553C220.276 32.9564 220.018 32.7163 219.696 32.5777L219.842 31.4562C221.976 31.597 224.098 31.0537 225.853 29.9172L227.611 31.999C227.373 32.3145 227.266 32.6988 227.308 33.0818C227.35 33.4648 227.538 33.8211 227.839 34.0857C228.14 34.3504 228.534 34.5058 228.948 34.5237C229.362 34.5416 229.769 34.4207 230.095 34.1832C230.422 33.9457 230.645 33.6072 230.725 33.2295C230.805 32.8517 230.737 32.4599 230.532 32.1252C230.327 31.7906 229.999 31.5354 229.609 31.4062C229.218 31.277 228.791 31.2824 228.404 31.4213L226.646 29.3395C228.254 28.0279 229.328 26.244 229.69 24.2857L230.89 24.4267C230.953 24.7573 231.141 25.0559 231.421 25.2682C231.701 25.4805 232.054 25.5923 232.415 25.5832C232.777 25.5741 233.123 25.4448 233.39 25.2188C233.657 24.9928 233.828 24.6851 233.871 24.3519C233.915 24.0187 233.828 23.682 233.626 23.4033C233.425 23.1247 233.122 22.9224 232.774 22.8336C232.425 22.7447 232.054 22.7752 231.727 22.9193C231.401 23.0634 231.141 23.3116 230.995 23.6188L229.788 23.4831C229.943 21.5007 229.358 19.5292 228.13 17.9009L230.379 16.2633C230.642 16.4348 230.951 16.535 231.271 16.5528C231.591 16.5706 231.911 16.5053 232.193 16.3641C232.476 16.223 232.711 16.0116 232.872 15.7536C233.032 15.4956 233.112 15.2011 233.103 14.9032C233.094 14.6053 232.996 14.3157 232.819 14.0667C232.643 13.8177 232.395 13.6192 232.104 13.4934C231.813 13.3676 231.49 13.3195 231.172 13.3544C230.853 13.3893 230.551 13.5058 230.3 13.691L230.311 13.7045ZM219.984 20.2094C217.815 19.9657 216.182 18.7972 216.332 17.5966C216.482 16.396 218.381 15.6245 220.549 15.8682C222.718 16.1119 224.351 17.2804 224.195 18.4742C224.04 19.6681 222.123 20.4743 219.984 20.2094ZM227.445 21.8493C227.275 21.973 227.069 22.0471 226.854 22.0624C226.639 22.0776 226.424 22.0331 226.235 21.9347C226.047 21.8363 225.895 21.6884 225.797 21.5095C225.7 21.3307 225.662 21.129 225.688 20.93C225.714 20.731 225.803 20.5436 225.943 20.3915C226.084 20.2394 226.27 20.1295 226.478 20.0756C226.686 20.0217 226.906 20.0262 227.111 20.0887C227.316 20.1511 227.497 20.2686 227.63 20.4264C227.721 20.534 227.788 20.6575 227.826 20.7896C227.864 20.9217 227.873 21.0597 227.852 21.1951C227.832 21.3305 227.782 21.4606 227.705 21.5776C227.629 21.6946 227.528 21.7961 227.408 21.8758L227.445 21.8493Z" fill="#A4BAE2"/>
<path opacity="0.5" d="M491.799 68.1668C490.907 68.1667 490.04 68.4329 489.323 68.9261C488.607 69.4193 488.081 70.1132 487.822 70.9055H480.919C480.638 66.1114 478.587 61.5536 475.11 58.0003L477.188 56.0915C477.875 56.4268 478.66 56.5492 479.428 56.441C480.195 56.3328 480.906 55.9995 481.455 55.4898C481.928 55.0499 482.26 54.4968 482.415 53.8919C482.57 53.2871 482.541 52.6543 482.331 52.0638C482.122 51.4734 481.74 50.9484 481.229 50.5473C480.717 50.1462 480.096 49.8846 479.434 49.7917C478.773 49.6988 478.096 49.7781 477.48 50.021C476.863 50.2638 476.332 50.6606 475.944 51.1672C475.556 51.6738 475.327 52.2704 475.282 52.8907C475.237 53.5109 475.379 54.1306 475.691 54.6807L473.635 56.631C469.809 53.4021 464.901 51.4969 459.739 51.2365V44.8462C460.697 44.5751 461.518 43.9936 462.053 43.2075C462.588 42.4213 462.801 41.4829 462.653 40.5631C462.506 39.6433 462.008 38.8033 461.249 38.1961C460.491 37.5889 459.523 37.2549 458.521 37.2549C457.52 37.2549 456.552 37.5889 455.793 38.1961C455.035 38.8033 454.536 39.6433 454.389 40.5631C454.241 41.4829 454.454 42.4213 454.989 43.2075C455.524 43.9936 456.346 44.5751 457.304 44.8462V51.195C452.141 51.4554 447.233 53.3606 443.407 56.5895L441.329 54.6392C441.7 54.0117 441.84 53.2888 441.727 52.5807C441.614 51.8727 441.255 51.2184 440.704 50.7178C440.232 50.275 439.636 49.9629 438.984 49.8162C438.332 49.6695 437.649 49.694 437.011 49.8871C436.373 50.0801 435.805 50.434 435.371 50.9093C434.937 51.3846 434.654 51.9625 434.554 52.5786C434.453 53.1947 434.539 53.8246 434.801 54.398C435.064 54.9715 435.493 55.4658 436.04 55.8259C436.588 56.186 437.233 56.3977 437.902 56.4373C438.572 56.4768 439.24 56.3427 439.832 56.05L441.933 57.9588C438.456 61.5121 436.404 66.0699 436.124 70.864H429.22C428.928 69.9687 428.299 69.2007 427.448 68.7C426.598 68.1992 425.581 67.9992 424.585 68.1363C423.588 68.2733 422.678 68.7384 422.02 69.4467C421.362 70.155 421 71.0593 421 71.9948C421 72.9302 421.362 73.8345 422.02 74.5428C422.678 75.2511 423.588 75.7162 424.585 75.8532C425.581 75.9903 426.598 75.7903 427.448 75.2895C428.299 74.7888 428.928 74.0208 429.22 73.1255H436.124C436.404 77.9196 438.456 82.4774 441.933 86.0307L439.832 87.9602C439.152 87.6174 438.371 87.4887 437.606 87.5935C436.84 87.6982 436.132 88.0308 435.587 88.5412C434.909 89.1714 434.529 90.0259 434.529 90.9168C434.529 91.8077 434.909 92.6622 435.587 93.2925C436.203 93.8461 437.01 94.1789 437.865 94.2316C438.72 94.2844 439.568 94.0537 440.257 93.5806C440.946 93.1075 441.432 92.4227 441.628 91.6481C441.825 90.8734 441.719 90.0592 441.329 89.3504L443.407 87.4208C447.238 90.6425 452.143 92.5465 457.304 92.8152V99.2056C456.346 99.4766 455.524 100.058 454.989 100.844C454.454 101.63 454.241 102.569 454.389 103.489C454.536 104.408 455.035 105.248 455.793 105.856C456.552 106.463 457.52 106.797 458.521 106.797C459.523 106.797 460.491 106.463 461.249 105.856C462.008 105.248 462.506 104.408 462.653 103.489C462.801 102.569 462.588 101.63 462.053 100.844C461.518 100.058 460.697 99.4766 459.739 99.2056V92.8152C464.899 92.5465 469.804 90.6425 473.635 87.4208L475.691 89.3504C475.279 90.0656 475.159 90.8943 475.35 91.6854C475.542 92.4764 476.033 93.1773 476.734 93.6602C477.436 94.1431 478.301 94.3759 479.171 94.3162C480.042 94.2564 480.861 93.9081 481.478 93.3348C482.096 92.7614 482.47 92.0012 482.535 91.1925C482.599 90.3839 482.349 89.5807 481.829 88.9294C481.309 88.278 480.554 87.8218 479.702 87.6439C478.85 87.466 477.958 87.5783 477.188 87.9602L475.11 86.0307C478.587 82.4774 480.638 77.9196 480.919 73.1255H487.822C488.046 73.8148 488.472 74.4326 489.052 74.9099C489.633 75.3871 490.345 75.705 491.109 75.8279C491.873 75.9509 492.658 75.874 493.378 75.606C494.097 75.3379 494.722 74.8892 495.183 74.3101C495.643 73.731 495.921 73.0443 495.986 72.3269C496.05 71.6094 495.898 70.8895 495.547 70.2477C495.196 69.6058 494.659 69.0674 493.997 68.6925C493.335 68.3177 492.574 68.1213 491.799 68.1253V68.1668ZM461.727 66.2372C457.996 62.7723 456.767 58.2908 458.979 56.216C461.191 54.1412 466.039 55.3031 469.77 58.768C473.501 62.2329 474.73 66.7144 472.518 68.7685C470.306 70.8225 465.369 69.7021 461.727 66.2372ZM473.278 79.6819C472.756 79.6819 472.247 79.5383 471.813 79.2692C471.38 79.0002 471.042 78.6179 470.842 78.1705C470.643 77.7231 470.59 77.2309 470.692 76.756C470.794 76.2811 471.045 75.8448 471.414 75.5024C471.782 75.16 472.252 74.9268 472.763 74.8324C473.275 74.7379 473.805 74.7864 474.287 74.9717C474.768 75.157 475.18 75.4708 475.47 75.8734C475.759 76.276 475.914 76.7494 475.914 77.2336C475.914 77.564 475.843 77.8911 475.703 78.1951C475.564 78.4991 475.36 78.7738 475.103 79.0025C474.846 79.2313 474.542 79.4094 474.209 79.5261C473.876 79.6429 473.522 79.6959 473.166 79.6819H473.278Z" fill="#A4BAE2"/>
</svg>
