<svg width="645" height="456" viewBox="0 0 645 456" fill="none" xmlns="http://www.w3.org/2000/svg">
<path d="M475.071 269.152C474.861 269.44 474.65 269.739 474.43 270.028C472.705 272.393 470.896 274.759 469.002 277.134C465.867 281.071 462.512 285.018 458.978 288.954C456.033 292.265 452.95 295.565 449.762 298.836C449.173 299.462 448.563 300.089 447.954 300.704C419.709 329.493 384.744 356.265 361.737 371.614L361.717 371.624C349.115 380.035 340.11 385.014 337.754 385.014C336.471 385.014 330.548 381.763 321.701 376.067C300.464 362.398 262.385 334.684 231.352 304.244C227.913 300.884 224.567 297.484 221.349 294.074C219.634 292.265 217.951 290.446 216.32 288.626C215.269 287.463 214.238 286.301 213.228 285.138C211.693 283.388 210.209 281.638 208.768 279.898C205.791 276.31 203.003 272.721 200.426 269.152C157.034 209.078 158.844 100.684 158.844 100.684C216.457 79.7581 338.585 0.547738 338.585 0.547738C338.585 0.547738 459.05 79.7581 516.655 100.684C516.655 100.684 518.474 209.078 475.071 269.152Z" fill="#E39411"/>
<path d="M466.059 278.99C465.863 279.276 465.665 279.572 465.458 279.858C463.842 282.203 462.147 284.549 460.373 286.903C457.437 290.806 454.293 294.719 450.982 298.621C448.222 301.902 445.336 305.173 442.349 308.416C441.797 309.037 441.225 309.658 440.655 310.268C414.195 338.808 381.439 365.344 359.888 380.56L359.868 380.57C348.062 388.906 339.627 393.843 337.42 393.843C336.218 393.843 330.669 390.621 322.382 384.975C302.485 371.425 266.813 343.951 237.743 313.777C234.52 310.446 231.386 307.076 228.37 303.695C226.765 301.902 225.188 300.099 223.661 298.296C222.675 297.142 221.709 295.99 220.763 294.837C219.325 293.102 217.935 291.368 216.585 289.642C213.796 286.086 211.185 282.527 208.771 278.99C168.121 219.44 169.816 112.084 169.816 112.084C223.789 91.3407 338.198 12.8199 338.198 12.8199C338.198 12.8199 451.05 91.3407 505.013 112.084C505.013 112.084 506.718 219.44 466.059 278.99" fill="#EDB14D"/>
<path d="M447.025 265.991C446.856 266.233 446.689 266.485 446.513 266.729C445.136 268.728 443.692 270.725 442.18 272.733C439.678 276.057 437 279.391 434.178 282.715C431.827 285.511 429.367 288.299 426.823 291.061C426.352 291.591 425.866 292.119 425.379 292.64C402.834 316.956 374.926 339.566 356.563 352.53L356.546 352.539C346.487 359.642 339.3 363.849 337.419 363.849C336.395 363.849 331.667 361.103 324.606 356.293C307.654 344.747 277.259 321.338 252.49 295.629C249.745 292.791 247.075 289.919 244.505 287.039C243.137 285.511 241.794 283.975 240.492 282.439C239.652 281.455 238.829 280.474 238.023 279.491C236.797 278.014 235.613 276.535 234.463 275.067C232.087 272.035 229.862 269.004 227.805 265.991C193.17 215.25 194.614 125.381 194.614 125.381C240.601 107.707 338.083 40.8044 338.083 40.8044C338.083 40.8044 434.238 107.707 480.216 125.381C480.216 125.381 481.668 215.25 447.025 265.991" fill="#F9D093"/>
<path d="M539.579 158.553L528.549 153.654C528.256 153.026 528.064 152.666 528.064 152.666C508.954 135.47 491.414 134.544 477.704 138.973C460.427 144.557 449.438 160.811 449.709 177.77C426.442 183.349 410.833 205.84 414.311 229.992L420.595 273.638C437.419 271.217 449.092 255.614 446.671 238.79L443.987 220.15C443.189 214.605 444.85 209.285 448.121 205.252C448.007 207.721 448.229 210.245 448.853 212.766L450.999 221.44C451.858 224.912 453.388 228.031 455.395 230.731L456.131 240.266C457.141 253.325 468.543 263.093 481.602 262.085L525.511 258.694C538.57 257.685 548.338 246.282 547.331 233.224L544.991 202.94C545.445 202.872 545.996 202.789 545.996 202.79L549.956 177.604C551.204 169.637 546.95 161.825 539.579 158.553" fill="#390028"/>
<path d="M533.629 176.98C533.554 176.857 533.471 176.708 533.397 176.589C533.223 177.72 532.969 178.864 532.626 180.006C529.557 187.518 522.094 194.663 505.733 197.698C504.958 197.841 506.356 193.335 507.969 188.732C509.385 184.818 510.73 181.375 510.73 181.375L510.601 181.554C511.146 180.122 511.516 179.17 511.516 179.17L498.482 198.356C495.198 202.908 490.485 206.255 485.083 207.784L484.992 207.81C482.476 208.519 480.53 207.259 478.759 206C477.168 204.867 475.718 203.736 474.124 204.032C473.55 204.137 477.994 216.765 477.457 216.678C473.55 216.044 470.31 214.806 467.569 213.17L464.773 213.951C458.958 215.576 455.529 221.665 457.154 227.48L457.946 230.315C458.604 232.669 460 234.621 461.806 236.016C463.986 237.488 466.691 238.201 469.484 237.8L473.801 237.18L473.815 237.281L474.118 237.196L474.335 278.379C474.391 288.967 483.1 297.584 493.688 297.529L498.848 297.501C509.437 297.446 518.054 288.736 517.998 278.149L517.936 266.463L525.571 264.33C534.974 261.702 542.128 254.983 545.662 246.64C549.523 239.819 550.775 231.522 548.498 223.378L535.86 178.148C535.709 177.611 535.543 177.083 535.367 176.561C535.005 175.806 534.617 175.078 534.183 174.384C534.05 175.243 533.856 176.112 533.629 176.98Z" fill="#FDBEA6"/>
<path d="M502.902 278.001C494.758 278.001 488.155 273.064 488.155 266.973C488.155 264.969 488.882 263.098 490.132 261.478C494.557 264.712 500.255 266.823 505.26 267.338C506.272 267.443 507.287 267.491 508.301 267.491C514.831 267.491 521.372 265.495 527.661 263.616C527.937 263.534 528.211 263.449 528.483 263.36C527.539 263.727 526.567 264.052 525.571 264.33L517.62 266.551C517.628 266.692 517.649 266.831 517.649 266.973C517.649 273.064 511.046 278.001 502.902 278.001ZM481.634 250.44C480.82 248.775 480.145 247.013 479.629 245.163L477.165 236.344L479.986 235.556L480.288 236.639C478.945 238.112 478.251 239.644 478.624 241.152C479.401 244.29 480.332 247.456 481.634 250.44Z" fill="#FEAF97"/>
<path d="M466.269 229.902C466.117 229.902 465.965 229.841 465.853 229.721C465.642 229.492 465.657 229.135 465.885 228.923L469.486 225.586L464.151 221.368C463.907 221.175 463.865 220.819 464.059 220.575C464.252 220.328 464.609 220.29 464.852 220.483L470.703 225.108C470.833 225.211 470.911 225.365 470.918 225.529C470.923 225.694 470.858 225.854 470.737 225.965L466.651 229.752C466.544 229.852 466.406 229.902 466.269 229.902" fill="#FF8E77"/>
<path d="M529.077 252.173C528.947 252.173 528.817 252.129 528.711 252.039C528.474 251.838 528.445 251.481 528.646 251.243C531.497 247.878 535.737 249.499 535.778 249.517C536.069 249.632 536.21 249.959 536.097 250.249C535.983 250.537 535.655 250.676 535.365 250.569C535.224 250.513 531.828 249.234 529.509 251.973C529.396 252.104 529.236 252.173 529.077 252.173" fill="#FF8E77"/>
<path d="M529.433 196.405C530.167 195.712 531.333 195.41 532.442 195.053C533.568 194.716 534.69 194.35 535.654 193.998C536.62 193.647 537.715 193.204 538.792 192.737C539.873 192.295 540.966 191.775 541.961 191.837C542.917 191.885 543.621 192.766 543.09 194.358C542.606 195.896 540.673 198.081 537.479 199.255C534.284 200.411 531.437 199.97 530.114 199.09C528.722 198.199 528.721 197.062 529.433 196.405Z" fill="#390028"/>
<path d="M517.389 198.851C516.291 198.497 514.941 198.76 513.622 198.939C512.296 199.146 510.961 199.323 509.795 199.434C508.625 199.547 507.28 199.631 505.938 199.681C504.609 199.757 503.226 199.758 502.232 200.314C501.271 200.835 500.98 202.089 502.311 203.467C503.566 204.814 506.635 206.113 510.502 205.749C514.364 205.366 517.08 203.509 518.011 201.951C519.006 200.348 518.445 199.176 517.389 198.851Z" fill="#390028"/>
<path d="M536.888 206.702C537.273 207.806 538.477 208.387 539.579 208.003C540.68 207.619 541.263 206.414 540.879 205.312C540.495 204.21 539.29 203.628 538.188 204.012C537.086 204.396 536.504 205.601 536.888 206.702Z" fill="#390028"/>
<path d="M515.097 211.044C515.481 212.145 516.685 212.728 517.788 212.344C518.889 211.96 519.472 210.755 519.087 209.653C518.703 208.551 517.499 207.969 516.396 208.353C515.295 208.737 514.712 209.942 515.097 211.044Z" fill="#390028"/>
<path d="M536.772 209.855C536.622 209.855 536.474 209.795 536.362 209.678C536.147 209.452 536.158 209.094 536.383 208.881C536.475 208.795 538.634 206.802 542.148 207.818C542.448 207.904 542.62 208.218 542.535 208.517C542.446 208.816 542.13 208.987 541.834 208.903C538.934 208.066 537.177 209.686 537.16 209.7C537.051 209.804 536.911 209.855 536.772 209.855Z" fill="#FF8E77"/>
<path d="M515.527 214.286C515.396 214.286 515.266 214.242 515.16 214.152C514.924 213.95 514.895 213.593 515.098 213.356C515.184 213.254 517.26 210.883 520.829 212.288C521.119 212.403 521.261 212.73 521.146 213.021C521.032 213.312 520.704 213.452 520.415 213.339C517.59 212.226 515.973 214.071 515.956 214.089C515.844 214.22 515.685 214.286 515.527 214.286" fill="#FF8E77"/>
<path d="M547.175 218.641L547.148 218.543C547.147 218.543 547.147 218.543 547.147 218.543L545.833 213.841L544.991 202.94C545.442 202.873 545.991 202.79 545.996 202.79L546.934 196.823L550.274 196.298C550.409 196.277 550.542 196.267 550.674 196.267C551.917 196.267 553.007 197.171 553.203 198.437L555.1 210.726C555.627 214.148 553.374 217.382 549.981 218.071L547.175 218.641" fill="#D4E8F2"/>
<path d="M545.833 213.842L541.324 197.705L546.934 196.823L545.996 202.791C545.991 202.791 545.443 202.873 544.991 202.94L545.833 213.842" fill="#9596AB"/>
<path d="M498.22 227.464C496.93 226.688 495.967 225.386 495.671 223.789L492.316 205.702C492.288 205.548 492.391 205.4 492.547 205.375L502.645 203.788C503.882 204.856 506.24 205.811 509.191 205.811C509.617 205.811 510.054 205.791 510.502 205.749C514.364 205.366 517.08 203.509 518.012 201.951C518.147 201.733 518.254 201.522 518.335 201.32L530.649 199.383C531.405 199.727 532.444 199.953 533.658 199.953C534.806 199.953 536.11 199.75 537.479 199.255C538.486 198.884 539.368 198.415 540.119 197.895L541.324 197.705L545.833 213.841L547.147 218.543C544.572 218.451 540.918 217.769 536.337 215.463C535.119 214.85 533.899 214.431 532.689 214.192C531.912 212.794 530.439 211.941 528.863 211.941C528.645 211.941 528.424 211.957 528.203 211.991C526.325 212.276 524.83 213.624 524.307 215.377C522.915 216.056 521.572 216.966 520.294 218.083C515.135 222.589 507.136 225.427 498.571 227.38C498.457 227.406 498.341 227.434 498.22 227.464V227.464ZM516.441 212.359C515.602 212.778 515.138 213.308 515.098 213.356C514.895 213.593 514.924 213.95 515.16 214.152C515.266 214.242 515.396 214.286 515.527 214.286C515.685 214.286 515.844 214.22 515.956 214.089C515.969 214.075 516.927 212.982 518.652 212.982C519.171 212.982 519.761 213.081 520.415 213.339C520.482 213.365 520.551 213.378 520.62 213.378C520.846 213.378 521.058 213.243 521.146 213.021C521.262 212.73 521.119 212.403 520.829 212.288C520.017 211.968 519.283 211.844 518.631 211.844C518.616 211.844 518.601 211.844 518.585 211.844C519.141 211.289 519.363 210.445 519.087 209.653C518.783 208.781 517.966 208.235 517.092 208.235C516.861 208.235 516.626 208.273 516.396 208.353C515.295 208.737 514.712 209.942 515.097 211.044C515.323 211.692 515.833 212.161 516.441 212.359V212.359ZM538.003 207.929C537 208.31 536.43 208.838 536.384 208.881C536.158 209.094 536.148 209.452 536.362 209.678C536.474 209.795 536.622 209.855 536.772 209.855C536.911 209.855 537.051 209.804 537.161 209.7C537.174 209.688 538.287 208.663 540.199 208.663C540.693 208.663 541.24 208.732 541.834 208.903C541.886 208.918 541.937 208.925 541.988 208.925C542.233 208.925 542.462 208.764 542.535 208.517C542.62 208.218 542.448 207.904 542.148 207.818C541.5 207.631 540.898 207.546 540.347 207.532C540.924 206.977 541.159 206.117 540.879 205.312C540.575 204.44 539.757 203.894 538.883 203.894C538.652 203.894 538.419 203.932 538.188 204.012C537.086 204.396 536.504 205.601 536.888 206.702C537.086 207.268 537.499 207.697 538.003 207.929" fill="#D8D7D6"/>
<path d="M533.657 199.953C532.444 199.953 531.405 199.727 530.649 199.384L540.119 197.895C539.368 198.415 538.486 198.884 537.479 199.255C536.11 199.751 534.806 199.953 533.657 199.953" fill="#9596AB"/>
<path d="M509.191 205.811C506.24 205.811 503.882 204.856 502.644 203.788L518.334 201.32C518.254 201.522 518.147 201.734 518.011 201.951C517.08 203.509 514.364 205.366 510.502 205.749C510.053 205.791 509.616 205.811 509.191 205.811" fill="#9596AB"/>
<path d="M538.003 207.929C537.499 207.697 537.086 207.268 536.888 206.702C536.504 205.601 537.086 204.396 538.188 204.012C538.419 203.932 538.652 203.894 538.883 203.894C539.757 203.894 540.575 204.44 540.879 205.312C541.159 206.117 540.924 206.977 540.347 207.532C540.294 207.531 540.241 207.53 540.188 207.53C539.324 207.53 538.589 207.705 538.003 207.929" fill="#9596AB"/>
<path d="M516.441 212.359C515.833 212.161 515.323 211.692 515.097 211.044C514.712 209.942 515.295 208.737 516.396 208.353C516.626 208.273 516.861 208.235 517.092 208.235C517.966 208.235 518.783 208.781 519.087 209.653C519.363 210.445 519.141 211.289 518.585 211.844C517.716 211.852 516.995 212.081 516.441 212.359" fill="#9596AB"/>
<path d="M536.772 209.855C536.622 209.855 536.474 209.795 536.362 209.678C536.147 209.452 536.158 209.094 536.383 208.881C536.43 208.838 537 208.31 538.003 207.929C538.589 207.705 539.324 207.53 540.188 207.53C540.241 207.53 540.294 207.531 540.347 207.532C540.898 207.546 541.5 207.631 542.148 207.818C542.448 207.904 542.62 208.218 542.535 208.517C542.462 208.764 542.233 208.925 541.988 208.925C541.937 208.925 541.886 208.918 541.834 208.903C541.24 208.732 540.693 208.663 540.199 208.663C538.287 208.663 537.174 209.688 537.16 209.7C537.051 209.804 536.911 209.855 536.772 209.855" fill="#D9C7C6"/>
<path d="M515.527 214.286C515.396 214.286 515.266 214.242 515.16 214.152C514.924 213.95 514.895 213.593 515.098 213.356C515.137 213.308 515.602 212.778 516.441 212.359C516.995 212.081 517.716 211.852 518.585 211.844C518.601 211.844 518.616 211.844 518.631 211.844C519.283 211.844 520.017 211.968 520.829 212.288C521.119 212.403 521.261 212.73 521.146 213.021C521.058 213.243 520.846 213.378 520.62 213.378C520.551 213.378 520.482 213.365 520.415 213.339C519.761 213.082 519.171 212.982 518.652 212.982C516.927 212.982 515.969 214.075 515.956 214.089C515.844 214.22 515.685 214.286 515.527 214.286" fill="#D9C7C6"/>
<path d="M550.976 196.779L550.72 196.8L494.055 205.711C493.755 205.757 493.494 205.92 493.319 206.167C493.143 206.414 493.077 206.716 493.133 207.014L496.277 223.961C496.501 225.169 497.183 226.218 498.196 226.914C499.209 227.611 500.431 227.87 501.643 227.646L519.8 224.273C521.856 223.892 523.343 222.166 523.417 220.077L523.552 216.334C523.64 213.882 525.464 211.835 527.89 211.467L528.321 211.402C530.34 211.093 532.306 212.121 533.208 213.957L534.773 217.141C535.677 218.983 537.713 219.982 539.73 219.577L550.129 217.464C553.085 216.865 555.042 214.057 554.583 211.075L552.59 198.165C552.522 197.734 552.29 197.352 551.937 197.095C551.655 196.888 551.32 196.779 550.976 196.779ZM500.79 228.854C499.642 228.854 498.523 228.508 497.557 227.846C496.295 226.978 495.445 225.672 495.166 224.166L492.023 207.22C491.912 206.619 492.044 206.013 492.396 205.514C492.75 205.016 493.277 204.689 493.879 204.594L550.543 195.684C551.274 195.572 552.005 195.746 552.603 196.182C553.201 196.618 553.592 197.262 553.705 197.993L555.698 210.902C556.251 214.482 553.903 217.85 550.355 218.571L539.955 220.684C537.433 221.195 534.891 219.942 533.759 217.639L532.194 214.455C531.51 213.063 530.009 212.287 528.49 212.518L528.06 212.584C526.169 212.87 524.75 214.465 524.681 216.374L524.547 220.118C524.452 222.739 522.586 224.905 520.006 225.383L501.848 228.756C501.495 228.821 501.14 228.854 500.79 228.854" fill="#C5E4EF"/>
<path d="M492.516 205.884L475.409 208.858L477.208 215.864L494.042 215.515L492.516 205.884Z" fill="#C5E4EF"/>
<path d="M529.557 262.989C539.921 259.218 547.266 250.759 549.402 239.739C550.368 234.745 550.195 229.595 548.863 224.686L547.148 218.543C544.572 218.451 540.917 217.769 536.337 215.463C530.704 212.628 525.043 213.934 520.294 218.083C515.135 222.589 507.135 225.427 498.571 227.38C492.548 228.755 477.139 235.154 478.624 241.152C480.135 247.258 482.234 253.473 486.508 258.239C491.033 263.283 498.735 266.666 505.26 267.338C512.793 268.114 520.395 265.787 527.661 263.616C528.304 263.425 528.936 263.215 529.557 262.989" fill="#FCFCFC"/>
<path d="M495.594 230.926C495.454 230.926 495.314 230.874 495.206 230.769L476.605 213.042C476.379 212.827 476.37 212.469 476.584 212.245C476.801 212.018 477.158 212.01 477.383 212.226L495.984 229.953C496.21 230.167 496.219 230.525 496.004 230.75C495.892 230.867 495.743 230.926 495.594 230.926Z" fill="#FCFCFC"/>
<path d="M520.142 224.955C520.023 224.955 519.903 224.917 519.801 224.841C519.553 224.652 519.503 224.299 519.692 224.049C519.878 223.804 524.314 218.014 529.459 217.262C534.639 216.502 538.572 219.973 538.737 220.121C538.968 220.329 538.989 220.685 538.78 220.918C538.572 221.151 538.215 221.169 537.984 220.962C537.946 220.93 534.263 217.698 529.621 218.379C524.938 219.064 520.635 224.675 520.592 224.731C520.48 224.878 520.312 224.955 520.142 224.955" fill="#B3CBDC"/>
<path d="M532.978 229.642C532.734 229.642 532.509 229.484 532.436 229.238L529.173 218.19C529.085 217.891 529.256 217.577 529.555 217.489C529.851 217.399 530.168 217.571 530.256 217.871L533.519 228.918C533.607 229.216 533.436 229.532 533.137 229.62L532.978 229.642Z" fill="#B3CBDC"/>
<path d="M483.684 239.346L483.594 239.339L474.594 237.897C474.285 237.849 474.076 237.56 474.125 237.251C474.176 236.943 474.468 236.729 474.772 236.783L483.773 238.225C484.08 238.273 484.29 238.562 484.242 238.871C484.197 239.148 483.957 239.346 483.684 239.346Z" fill="#FCFCFC"/>
<path d="M524.998 238.589C524.749 238.589 524.519 238.422 524.453 238.17C524.374 237.869 524.552 237.559 524.854 237.479L542.937 232.675C542.985 232.663 543.035 232.656 543.083 232.656C543.334 232.656 543.56 232.826 543.627 233.076C543.707 233.379 543.527 233.687 543.226 233.767L525.143 238.571L524.998 238.589" fill="#F5F8FA"/>
<path d="M526.01 244.298C525.759 244.298 525.531 244.132 525.465 243.878C525.384 243.576 525.563 243.267 525.866 243.188L543.949 238.385C543.997 238.371 544.047 238.366 544.094 238.366C544.346 238.366 544.572 238.533 544.638 238.786C544.718 239.087 544.539 239.397 544.238 239.476L526.155 244.279L526.01 244.298Z" fill="#F5F8FA"/>
<path d="M573.244 366.635L563.75 344.561L606.277 324.68C619.133 316.901 625.81 301.958 623.029 287.192L612.773 224.061L577.866 220.415L580.912 280.334L540.508 285.243C536.02 283.971 533.182 283.995 533.182 283.995L533.184 284.004C527.689 282.519 521.273 281.901 513.938 281.961L452.967 282.452C435.274 282.596 421.058 298.51 421.217 318L422.716 455.354L559.651 454.173L561.858 420.197L570.42 411.872C573.583 408.796 574.052 403.88 571.526 400.261L570.64 398.989L569.652 397.573L570.16 396.77C575.735 387.948 576.895 376.618 573.244 366.635" fill="#D0DCFF"/>
<path d="M565.543 352.133L553.387 333.4L595.991 329.534L565.144 343.364L565.543 352.133Z" fill="#B6C6EF"/>
<path d="M580.921 280.259L596.598 279.163L580.655 275.443L580.921 280.259Z" fill="#B6C6EF"/>
<path d="M527.074 333.977C526.639 333.977 526.284 334.332 526.284 334.766V336.619C526.284 337.055 526.639 337.408 527.074 337.408H532.474V342.808C532.474 343.243 532.827 343.598 533.263 343.598H535.115C535.551 343.598 535.906 343.243 535.906 342.808V337.408H541.305C541.741 337.408 542.094 337.055 542.094 336.619V334.766C542.094 334.332 541.741 333.977 541.305 333.977H535.906V328.577C535.906 328.141 535.551 327.788 535.115 327.788H533.263C532.827 327.788 532.474 328.141 532.474 328.577V333.977H527.074ZM535.115 344.727H533.263C532.205 344.727 531.345 343.866 531.345 342.808V338.537H527.074C526.017 338.537 525.155 337.676 525.155 336.619V334.766C525.155 333.709 526.017 332.848 527.074 332.848H531.345V328.577C531.345 327.519 532.205 326.659 533.263 326.659H535.115C536.173 326.659 537.035 327.519 537.035 328.577V332.848H541.305C542.362 332.848 543.223 333.709 543.223 334.766V336.619C543.223 337.676 542.362 338.537 541.305 338.537H537.035V342.808C537.035 343.866 536.173 344.727 535.115 344.727Z" fill="#FCFCFC"/>
<path d="M522.713 282.219C523.05 275.594 521.339 270.018 521.339 270.018H521.338C508.386 270.018 497.79 280.079 496.918 292.81C496.046 280.079 485.449 270.018 472.495 270.018C472.495 270.018 470.978 274.965 471.084 281.075L471.013 281.042L471.266 287.125L503.001 367.025C503.698 368.789 506.266 368.555 506.633 366.696L523.351 281.957L522.713 282.219" fill="#FCFCFC"/>
<path d="M491.543 416.103L473.435 386.216L471.83 380.933L491.543 409.461L536.351 362.603C537.276 361.735 538.461 361.298 539.649 361.298C540.732 361.298 541.817 361.66 542.708 362.392L550.597 368.873L544.221 366.157C543.344 365.784 542.422 365.602 541.507 365.602C539.665 365.602 537.856 366.336 536.524 367.716L491.543 416.103Z" fill="#B6C6EF"/>
<path d="M522.099 453.369L561.856 419.789L561.656 423.177L527.679 453.102L522.099 453.369Z" fill="#B6C6EF"/>
<path d="M574.605 329.732L599.316 327.748L605.086 399.609C605.369 403.146 602.732 406.244 599.194 406.528L587.292 407.485C583.756 407.769 580.658 405.132 580.374 401.595L574.605 329.732Z" fill="#DFF5FF"/>
<path d="M592.768 406.733C588.266 406.733 584.438 403.164 584.061 398.466L578.638 330.927L595.991 329.534L601.412 397.072C601.809 402.007 598.246 406.32 593.453 406.704C593.224 406.723 592.995 406.733 592.768 406.733" fill="#FCFCFC"/>
<path d="M580.773 360.768L598.056 359.38L601.061 396.805C601.45 401.644 597.896 405.877 593.124 406.26C588.35 406.643 584.166 403.031 583.778 398.193L580.773 360.768Z" fill="#8CB2FF"/>
<path d="M575.717 327.72L599.18 325.836C599.905 325.779 600.54 326.32 600.599 327.045L601.344 336.343C601.403 337.068 600.862 337.704 600.136 337.763L576.674 339.646C575.949 339.704 575.314 339.163 575.255 338.437L574.509 329.14C574.45 328.413 574.992 327.779 575.717 327.72" fill="#3B3047"/>
<path d="M601.929 368.515L591.107 373.63C591.12 373.446 591.133 373.264 591.146 373.071L605.878 366.751C608.134 365.783 609.131 363.189 608.097 360.987L607.854 360.466C606.819 358.264 604.13 357.254 601.876 358.221L591.492 362.678C591.489 362.474 591.487 362.273 591.485 362.07L604.572 356.851C606.852 355.94 607.92 353.376 606.947 351.148L606.716 350.622C605.741 348.396 603.078 347.318 600.798 348.227L591.803 351.815L600.778 347.631C602.72 346.724 603.568 344.395 602.662 342.451L602.22 341.504C601.314 339.56 598.984 338.712 597.041 339.619C597.041 339.619 582.714 345.83 577.151 348.459C576.357 348.834 575.485 348.103 575.719 347.257C576.776 343.454 578.338 339.223 579.142 336.087C580.604 330.382 575.033 331.228 575.033 331.228C558.5 346.417 557.681 362.042 557.681 362.042L557.785 362.009C556.417 363.18 552.87 366.348 549.79 369.108L570.64 398.989L573.911 396.941C581.559 395.781 589.26 388.494 594.454 382.419L606.248 375.698C607.957 374.723 608.835 372.661 608.174 370.807C607.256 368.236 604.197 367.223 601.929 368.515" fill="#B6C6EF"/>
<path d="M612.057 225.602L613.874 220.842C616.371 218.186 618.237 213.416 619.53 209.005C621.282 203.032 620.719 196.62 618.087 190.981L613.038 192.839C613.038 192.839 584.252 169.739 581.485 174.141C574.527 185.212 575.557 210.681 579.009 220.886L612.057 225.602Z" fill="#B6C6EF"/>
<path d="M613.038 192.839C613.038 192.839 609.998 190.4 605.799 187.257L606.945 185.076L611.577 185.533C611.577 185.533 613.243 188.864 613.364 192.72L613.038 192.839Z" fill="#A7A7D7"/>
<path d="M598.818 204.217C598.151 204.217 597.531 204.177 596.957 204.102L605.799 187.257C609.998 190.4 613.038 192.839 613.038 192.839L613.364 192.72C613.511 197.405 611.38 202.864 601.215 204.067C600.353 204.168 599.557 204.217 598.818 204.217" fill="#9797D3"/>
<path d="M619.299 158.273L620.248 158.817C622.199 159.933 622.879 162.441 621.764 164.39L613.42 178.965C612.304 180.914 609.796 181.596 607.847 180.481L606.897 179.936C604.947 178.821 604.266 176.313 605.382 174.363L613.726 159.788C614.841 157.839 617.349 157.157 619.299 158.273Z" fill="#B6C6EF"/>
<path d="M595.097 207.645L583.02 201.307L607.439 154.787C609.089 151.645 612.973 150.434 616.114 152.084L616.814 152.451C619.955 154.1 621.167 157.984 619.517 161.126L595.097 207.645" fill="#DFF5FF"/>
<path d="M593.713 205.635L585.233 201.184L608.882 156.132C610.225 153.574 612.517 151.993 614.572 151.993C615.16 151.993 615.729 152.123 616.251 152.397C618.593 153.626 619.091 157.291 617.362 160.583L593.713 205.635" fill="#EDF9FF"/>
<path d="M604.281 185.81L595.836 181.376L608.94 156.412C610.634 153.184 613.899 151.56 616.231 152.784C618.564 154.008 619.081 157.618 617.387 160.845L604.281 185.81" fill="#8CB2FF"/>
<path d="M617.818 153.379L615.213 152.013C614.923 151.861 614.812 151.503 614.963 151.212L616.253 148.757C616.406 148.468 616.762 148.356 617.053 148.508L619.658 149.875C619.947 150.027 620.059 150.386 619.906 150.676L618.619 153.131C618.466 153.42 618.109 153.532 617.818 153.379Z" fill="#C5E4EF"/>
<path d="M618.794 149.343L617.794 148.818L629.255 126.987L630.254 127.513L618.794 149.343Z" fill="#3B3047"/>
<path d="M603.42 191.19L591.528 184.948L593.914 180.404L605.804 186.645L603.42 191.19Z" fill="#3B3047"/>
<path d="M579.42 229.988L573.599 226.932L594.728 186.676L600.551 189.732L579.42 229.988Z" fill="#C5E4EF"/>
<path d="M611.887 156.915L607.854 154.798C607.671 154.703 607.602 154.478 607.697 154.298L607.717 154.257C607.813 154.075 608.038 154.005 608.218 154.101L612.253 156.219C612.434 156.313 612.505 156.538 612.409 156.719L612.388 156.759C612.293 156.941 612.069 157.011 611.887 156.915" fill="#3B3047"/>
<path d="M609.62 161.236L605.585 159.117C605.404 159.022 605.334 158.798 605.429 158.617L605.451 158.576C605.547 158.396 605.77 158.326 605.951 158.42L609.986 160.539C610.166 160.634 610.238 160.857 610.142 161.039L610.12 161.08C610.025 161.261 609.802 161.331 609.62 161.236Z" fill="#3B3047"/>
<path d="M606.792 166.624L602.757 164.505C602.576 164.41 602.505 164.187 602.6 164.005L602.623 163.964C602.718 163.783 602.941 163.713 603.122 163.808L607.157 165.927C607.339 166.022 607.409 166.245 607.314 166.427L607.291 166.468C607.196 166.648 606.973 166.718 606.792 166.624Z" fill="#3B3047"/>
<path d="M604.523 170.943L600.49 168.824C600.308 168.73 600.238 168.506 600.333 168.325L600.354 168.284C600.45 168.103 600.674 168.033 600.854 168.129L604.889 170.246C605.071 170.341 605.141 170.566 605.046 170.746L605.025 170.787C604.93 170.968 604.705 171.038 604.523 170.943Z" fill="#3B3047"/>
<path d="M597.164 211.258L578.502 201.462C577.858 201.125 577.61 200.328 577.948 199.683L578.023 199.539C578.362 198.895 579.158 198.647 579.803 198.985L598.464 208.78C599.107 209.119 599.356 209.916 599.018 210.56L598.943 210.703C598.605 211.348 597.808 211.595 597.164 211.258Z" fill="#B3CBDC"/>
<path d="M579.413 233.223L569.624 228.085C568.98 227.746 568.731 226.949 569.069 226.304L569.145 226.161C569.482 225.517 570.28 225.269 570.923 225.607L580.713 230.745C581.358 231.084 581.605 231.88 581.269 232.525L581.192 232.669C580.854 233.312 580.057 233.561 579.413 233.223Z" fill="#B3CBDC"/>
<path d="M642.759 117.182C642.604 117.182 642.451 117.119 642.34 116.996C642.13 116.763 642.149 116.407 642.381 116.197L644.057 114.685C644.288 114.475 644.645 114.494 644.854 114.726C645.064 114.957 645.045 115.314 644.813 115.523L643.137 117.036C643.029 117.133 642.894 117.182 642.759 117.182Z" fill="#74CAF3"/>
<path d="M636.645 122.701C636.491 122.701 636.337 122.639 636.226 122.514C636.016 122.283 636.036 121.926 636.267 121.717L639.324 118.957C639.555 118.747 639.911 118.766 640.121 118.998C640.33 119.23 640.312 119.586 640.081 119.795L637.024 122.555C636.915 122.653 636.78 122.701 636.645 122.701Z" fill="#74CAF3"/>
<path d="M631.91 126.974C631.756 126.974 631.603 126.912 631.491 126.788C631.283 126.556 631.301 126.199 631.532 125.99L633.209 124.477C633.441 124.268 633.796 124.287 634.006 124.519C634.215 124.75 634.197 125.107 633.966 125.316L632.289 126.829C632.18 126.926 632.045 126.974 631.91 126.974Z" fill="#74CAF3"/>
<path d="M636.502 112.987L636.26 112.933C635.978 112.799 635.857 112.462 635.99 112.18L637.926 108.099C638.061 107.817 638.401 107.698 638.678 107.831C638.96 107.964 639.081 108.301 638.948 108.583L637.012 112.665C636.915 112.868 636.712 112.987 636.502 112.987V112.987ZM632.632 121.15L632.39 121.096C632.108 120.963 631.988 120.625 632.122 120.344L634.057 116.263C634.191 115.98 634.533 115.862 634.809 115.994C635.092 116.127 635.211 116.465 635.078 116.746L633.142 120.828C633.045 121.032 632.842 121.15 632.632 121.15V121.15ZM630.047 126.605L629.805 126.549C629.523 126.416 629.403 126.079 629.537 125.797L630.187 124.426C630.321 124.144 630.664 124.024 630.939 124.157C631.222 124.291 631.341 124.628 631.208 124.91L630.558 126.282C630.46 126.485 630.257 126.605 630.047 126.605" fill="#74CAF3"/>
<path d="M630.655 109.94L630.578 109.936C630.268 109.894 630.053 109.609 630.095 109.301L630.699 104.824C630.739 104.515 631.023 104.297 631.333 104.34C631.643 104.382 631.858 104.666 631.817 104.975L631.212 109.451C631.175 109.735 630.932 109.94 630.655 109.94ZM629.446 118.894L629.37 118.888C629.06 118.847 628.843 118.562 628.886 118.254L629.49 113.777C629.531 113.468 629.81 113.25 630.125 113.293C630.434 113.335 630.65 113.619 630.608 113.929L630.004 118.405C629.967 118.688 629.724 118.894 629.446 118.894ZM628.552 125.524L628.474 125.519C628.166 125.478 627.949 125.193 627.992 124.884L628.282 122.73C628.323 122.421 628.597 122.203 628.918 122.246C629.226 122.289 629.443 122.572 629.401 122.881L629.11 125.035C629.073 125.318 628.83 125.524 628.552 125.524Z" fill="#74CAF3"/>
<path d="M581.079 174.807C581.079 174.807 590.088 162.336 601.465 164.775C601.465 164.775 606.759 166.593 602.848 170.942C598.935 175.292 591.113 181.689 590.407 185.532C589.7 189.376 589.666 187.021 589.666 187.021L581.079 174.807" fill="#B6C6EF"/>
<path d="M615.222 175.414L616.049 176.131C617.746 177.602 617.93 180.195 616.46 181.892L605.456 194.581C603.986 196.278 601.393 196.462 599.696 194.991L598.868 194.274C597.172 192.802 596.987 190.209 598.458 188.513L609.461 175.824C610.933 174.127 613.525 173.942 615.222 175.414Z" fill="#B6C6EF"/>
<path d="M619.314 184.642L620.14 185.36C621.836 186.831 622.022 189.423 620.551 191.121L613.645 199.083C612.174 200.78 609.582 200.964 607.885 199.493L607.058 198.776C605.36 197.305 605.176 194.713 606.648 193.016L613.552 185.053C615.023 183.356 617.616 183.172 619.314 184.642" fill="#B6C6EF"/>
<path d="M265.679 273.646C263.922 270.679 261.771 267.947 260.871 264.4C259.267 258.078 262.077 251.577 263.394 245.202C265.223 236.347 263.84 226.547 260.096 218.731C255.93 210.031 244.79 207.381 238.711 201.304C232.917 195.512 236.027 173.919 223.318 161.927C213.395 152.563 205.48 151.497 199.33 152.77C193.514 141.269 180.466 133.79 165.591 134.897C156.211 135.596 145.922 139.025 136.775 148.095C131.093 153.726 128.822 161.497 130.049 168.743C123.927 173.216 121.02 181.009 122.916 188.505L125.85 200.106C122.018 206.006 119.41 212.831 118.487 220.284L117.062 231.788C116.787 234.018 116.799 236.213 117.022 238.358L106.478 255.28C98.1223 272.126 109.878 286.033 118.316 288.855C130.134 292.805 131.342 302.35 132.682 309.101C133.701 309.132 134.721 309.181 135.746 309.26C135.746 309.26 225.348 327.265 225.564 292.912C230.985 292.73 236.407 292.537 241.828 292.328C247.518 292.111 253.218 291.891 258.856 290.944C262.6 290.315 266.958 288.653 268.06 283.958C268.891 280.416 267.434 276.613 265.679 273.646" fill="#390028"/>
<path d="M209.851 212.705L204.208 210.826L204.904 208.735C198.978 206.88 194.406 201.778 193.481 195.328L191.814 183.701C188.073 186.771 182.839 189.191 175.634 190.553C173.73 190.913 171.89 191.179 170.114 191.362C165.425 191.846 161.176 191.738 157.326 191.183C152.622 190.503 148.519 189.154 144.948 187.39C141.974 185.92 139.377 184.161 137.107 182.266L125.185 218.046C122.807 225.182 123.195 232.569 125.76 239.056C128.274 248.967 135.617 257.433 146.037 260.905L153.931 263.535C154.992 263.889 156.06 264.179 157.131 264.413L157.061 277.575C157.004 288.236 165.682 297.005 176.342 297.062L181.538 297.089C192.199 297.145 200.968 288.468 201.024 277.808L201.243 236.266L201.924 236.493C207.693 238.415 213.985 235.268 215.907 229.5L216.843 226.688C218.766 220.92 215.619 214.629 209.851 212.705" fill="#FEAF97"/>
<path d="M170.366 274.613C164.133 274.613 158.897 270.306 157.316 264.451C156.185 264.209 155.054 263.909 153.931 263.535L150.485 262.386C155.094 263.413 159.964 263.964 164.6 263.964C165.792 263.964 166.97 263.927 168.123 263.852C173.653 263.496 179.302 262.288 183.815 259.066C183.882 259.622 183.917 260.188 183.917 260.762C183.917 268.412 177.851 274.613 170.366 274.613V274.613ZM195.229 237.775C194.968 236.672 194.25 235.556 193.222 234.464L193.483 233.68L196.283 234.613L195.229 237.775Z" fill="#974A4F"/>
<path d="M142.36 259.94C131.93 255.685 124.764 246.765 123.017 235.434C122.223 230.299 122.601 225.048 124.154 220.091L126.145 213.889C128.777 213.896 132.533 213.342 137.299 211.169C143.159 208.494 148.885 210.048 153.57 214.468C158.66 219.27 166.714 222.479 175.379 224.808C181.472 226.445 196.949 233.58 195.2 239.642C193.418 245.817 191.033 252.077 186.484 256.774C181.668 261.745 174.808 263.422 168.123 263.852C160.405 264.35 151.602 263.153 144.272 260.654C143.624 260.433 142.986 260.194 142.36 259.94" fill="#FCFCFC"/>
<path d="M178.3 228.531C178.132 228.531 177.966 228.457 177.854 228.313C177.662 228.067 177.706 227.712 177.953 227.521L200.576 209.932C200.82 209.739 201.176 209.784 201.368 210.03C201.56 210.278 201.516 210.631 201.269 210.823L178.646 228.412C178.544 228.493 178.421 228.531 178.3 228.531" fill="#FCFCFC"/>
<path d="M153.479 221.476C153.302 221.476 153.127 221.392 153.016 221.236C152.975 221.176 148.8 215.278 144.042 214.395C139.3 213.511 135.435 216.674 135.396 216.705C135.155 216.905 134.8 216.87 134.601 216.632C134.402 216.391 134.435 216.036 134.675 215.837C134.849 215.692 139.006 212.309 144.246 213.285C149.463 214.253 153.761 220.33 153.942 220.589C154.121 220.844 154.058 221.195 153.802 221.375C153.704 221.444 153.592 221.476 153.479 221.476" fill="#B3CBDC"/>
<path d="M140.195 225.759L140.014 225.729C139.719 225.63 139.56 225.309 139.66 225.013L143.424 213.866C143.523 213.572 143.841 213.414 144.14 213.512C144.435 213.612 144.594 213.932 144.493 214.228L140.729 225.376C140.65 225.611 140.431 225.759 140.195 225.759" fill="#B3CBDC"/>
<path d="M201.188 237.645H201.185L190.125 237.591C189.814 237.589 189.562 237.335 189.563 237.023C189.565 236.713 189.818 236.462 190.128 236.462H190.132L201.192 236.516C201.503 236.518 201.754 236.772 201.753 237.084C201.752 237.395 201.5 237.645 201.188 237.645Z" fill="white"/>
<path d="M147.99 235.203L147.824 235.178L129.557 229.569C129.257 229.478 129.091 229.162 129.183 228.864C129.256 228.621 129.478 228.463 129.718 228.463C129.775 228.463 129.831 228.472 129.887 228.489L148.154 234.098C148.454 234.19 148.62 234.506 148.528 234.804C148.455 235.047 148.231 235.203 147.99 235.203" fill="#F5F8FA"/>
<path d="M146.735 240.99L146.569 240.965L128.301 235.355C128.003 235.265 127.835 234.949 127.927 234.651C128 234.408 128.223 234.251 128.464 234.251C128.52 234.251 128.576 234.259 128.632 234.276L146.9 239.886C147.199 239.977 147.365 240.292 147.274 240.592C147.2 240.834 146.975 240.99 146.735 240.99" fill="#F5F8FA"/>
<path d="M207.587 228.67C207.44 228.67 207.293 228.613 207.183 228.501L202.802 224.02L209.452 219.273C209.704 219.091 210.057 219.149 210.239 219.404C210.42 219.658 210.361 220.011 210.107 220.191L204.531 224.173L207.991 227.711C208.209 227.934 208.204 228.292 207.982 228.51C207.871 228.617 207.729 228.67 207.587 228.67" fill="#7F373E"/>
<path d="M145.319 195.101C144.615 194.367 143.457 194.005 142.359 193.592C141.242 193.197 140.132 192.774 139.181 192.373C138.226 191.971 137.146 191.472 136.087 190.949C135.021 190.451 133.948 189.874 132.945 189.888C131.981 189.889 131.23 190.74 131.685 192.367C132.095 193.938 133.932 196.231 137.085 197.569C140.242 198.89 143.126 198.585 144.501 197.768C145.944 196.94 146.001 195.796 145.319 195.101" fill="#390028"/>
<path d="M154.783 199.051C155.955 198.497 157.501 198.594 159.001 198.601C160.511 198.639 162.029 198.642 163.345 198.596C164.667 198.551 166.182 198.448 167.685 198.307C169.182 198.2 170.726 198 171.916 198.473C173.066 198.915 173.574 200.272 172.288 202.006C171.084 203.693 167.848 205.591 163.476 205.748C159.109 205.886 155.807 204.208 154.541 202.605C153.195 200.96 153.652 199.57 154.783 199.051" fill="#390028"/>
<path d="M137.311 203.929C136.87 205.017 135.631 205.544 134.541 205.102C133.452 204.662 132.926 203.422 133.367 202.332C133.807 201.243 135.048 200.718 136.138 201.159C137.226 201.599 137.752 202.839 137.311 203.929Z" fill="#390028"/>
<path d="M159.012 209.372C158.571 210.462 157.331 210.987 156.241 210.546C155.152 210.105 154.627 208.865 155.067 207.776C155.508 206.686 156.749 206.161 157.838 206.602C158.926 207.042 159.453 208.282 159.012 209.372Z" fill="#390028"/>
<path d="M137.3 208.261C137.152 208.261 137.004 208.203 136.894 208.089C136.819 208.012 135.15 206.359 132.227 207.052C131.92 207.121 131.619 206.936 131.547 206.632C131.476 206.329 131.664 206.025 131.966 205.952C135.55 205.11 137.621 207.216 137.706 207.305C137.923 207.53 137.915 207.888 137.691 208.104C137.581 208.209 137.441 208.261 137.3 208.261" fill="#7F373E"/>
<path d="M158.448 213.768C158.279 213.768 158.113 213.694 158.003 213.55C157.938 213.471 156.419 211.603 153.549 212.573C153.253 212.674 152.933 212.514 152.833 212.22C152.732 211.924 152.892 211.603 153.186 211.503C156.836 210.267 158.811 212.752 158.894 212.858C159.085 213.105 159.039 213.46 158.792 213.65C158.69 213.73 158.568 213.768 158.448 213.768" fill="#7F373E"/>
<path d="M122.638 205.885C122.452 205.031 122.447 204.125 122.653 203.217L124.109 196.844C124.196 196.461 124.479 196.175 124.828 196.066L125.85 200.106C124.656 201.946 123.581 203.875 122.638 205.885" fill="#F4F4F9"/>
<path d="M127.646 210.659L127.276 210.576C124.876 210.027 123.126 208.142 122.637 205.885C123.58 203.875 124.655 201.946 125.85 200.106L124.828 196.066C124.93 196.034 125.036 196.017 125.144 196.017C125.222 196.017 125.303 196.026 125.382 196.044L132.011 197.558L127.646 210.659Z" fill="#704764"/>
<path d="M134.643 212.257L127.646 210.659L132.011 197.557L143.061 200.08C143.597 200.203 143.933 200.737 143.811 201.274L141.837 209.915C140.344 210.062 138.825 210.472 137.299 211.168C136.375 211.59 135.49 211.95 134.643 212.257V212.257ZM133.627 206.883C135.678 206.883 136.832 208.025 136.894 208.089C137.004 208.203 137.152 208.261 137.3 208.261C137.441 208.261 137.581 208.209 137.691 208.104C137.915 207.888 137.923 207.53 137.706 207.305C137.635 207.231 136.183 205.754 133.625 205.754C133.116 205.754 132.563 205.812 131.966 205.952C131.664 206.025 131.476 206.328 131.547 206.632C131.608 206.893 131.84 207.067 132.098 207.067C132.14 207.067 132.184 207.062 132.227 207.052C132.732 206.933 133.198 206.883 133.627 206.883V206.883ZM135.339 201.003C134.498 201.003 133.701 201.505 133.367 202.332C132.926 203.422 133.452 204.662 134.541 205.102C134.802 205.208 135.073 205.259 135.338 205.259C136.18 205.259 136.976 204.757 137.311 203.929C137.752 202.839 137.226 201.599 136.138 201.159C135.876 201.053 135.606 201.003 135.339 201.003" fill="#FDBEA6"/>
<path d="M138.201 212.975C137.93 212.975 137.654 212.945 137.378 212.882L134.643 212.257C135.49 211.95 136.375 211.59 137.299 211.169C138.826 210.472 140.344 210.062 141.837 209.915L141.794 210.108C141.404 211.817 139.884 212.975 138.201 212.975Z" fill="white"/>
<path d="M135.338 205.259C135.073 205.259 134.802 205.208 134.541 205.102C133.452 204.662 132.926 203.422 133.367 202.332C133.701 201.505 134.498 201.003 135.339 201.003C135.606 201.003 135.876 201.053 136.138 201.159C137.226 201.599 137.752 202.839 137.311 203.929C136.976 204.757 136.18 205.259 135.338 205.259" fill="#704764"/>
<path d="M137.3 208.261C137.152 208.261 137.004 208.203 136.894 208.089C136.832 208.025 135.678 206.883 133.627 206.883C133.198 206.883 132.732 206.933 132.227 207.052C132.184 207.063 132.14 207.067 132.098 207.067C131.84 207.067 131.608 206.893 131.547 206.632C131.476 206.329 131.664 206.025 131.966 205.952C132.563 205.812 133.116 205.754 133.625 205.754C136.183 205.754 137.635 207.231 137.706 207.305C137.923 207.53 137.915 207.888 137.691 208.104C137.581 208.209 137.441 208.261 137.3 208.261" fill="#A36F74"/>
<path d="M165.701 219.19C165.248 219.19 164.787 219.139 164.328 219.034L157.391 217.451C155.987 216.53 154.705 215.539 153.57 214.468C152.866 213.803 152.137 213.203 151.389 212.673C151.403 212.553 151.425 212.433 151.452 212.312L153.469 203.478C153.575 203.016 153.985 202.704 154.44 202.704C154.505 202.704 154.572 202.71 154.639 202.724C155.918 204.228 158.964 205.756 162.975 205.756C163.14 205.756 163.308 205.754 163.476 205.748C164.482 205.712 165.429 205.583 166.303 205.387L172.341 206.766C172.914 206.895 173.272 207.466 173.141 208.038L171.685 214.412C171.036 217.26 168.504 219.19 165.701 219.19V219.19ZM155.143 212.294C156.982 212.294 157.952 213.488 158.003 213.55C158.113 213.694 158.279 213.768 158.448 213.768C158.568 213.768 158.69 213.73 158.792 213.65C159.039 213.46 159.085 213.105 158.894 212.858C158.827 212.773 157.545 211.16 155.159 211.16C154.569 211.16 153.91 211.258 153.186 211.503C152.892 211.603 152.732 211.924 152.833 212.22C152.913 212.454 153.132 212.603 153.367 212.603C153.427 212.603 153.488 212.594 153.549 212.573C154.137 212.373 154.669 212.294 155.143 212.294V212.294ZM157.041 206.446C156.199 206.446 155.402 206.947 155.067 207.776C154.627 208.865 155.152 210.105 156.241 210.546C156.503 210.651 156.773 210.702 157.039 210.702C157.881 210.702 158.677 210.2 159.012 209.372C159.453 208.282 158.926 207.042 157.838 206.602C157.576 206.496 157.306 206.446 157.041 206.446Z" fill="#FDBEA6"/>
<path d="M157.391 217.451L154.225 216.728C152.361 216.302 151.151 214.531 151.389 212.673C152.137 213.203 152.866 213.803 153.57 214.468C154.705 215.539 155.987 216.53 157.391 217.451Z" fill="white"/>
<path d="M162.975 205.756C158.964 205.756 155.918 204.228 154.639 202.724C154.647 202.725 154.654 202.727 154.662 202.728L166.303 205.387C165.429 205.583 164.482 205.712 163.476 205.748C163.308 205.754 163.14 205.756 162.975 205.756" fill="#704764"/>
<path d="M157.039 210.702C156.773 210.702 156.503 210.651 156.241 210.546C155.152 210.105 154.627 208.865 155.067 207.776C155.402 206.947 156.199 206.446 157.041 206.446C157.306 206.446 157.576 206.496 157.838 206.602C158.926 207.042 159.453 208.282 159.012 209.372C158.677 210.2 157.881 210.702 157.039 210.702Z" fill="#704764"/>
<path d="M158.448 213.768C158.279 213.768 158.113 213.694 158.003 213.55C157.952 213.488 156.982 212.294 155.143 212.294C154.669 212.294 154.137 212.373 153.549 212.573C153.488 212.594 153.427 212.603 153.367 212.603C153.132 212.603 152.913 212.454 152.833 212.22C152.732 211.924 152.892 211.603 153.186 211.503C153.91 211.258 154.569 211.16 155.159 211.16C157.545 211.16 158.827 212.773 158.894 212.858C159.085 213.105 159.039 213.46 158.792 213.65C158.69 213.73 158.568 213.768 158.448 213.768" fill="#A36F74"/>
<path d="M137.504 212.332C139.182 212.715 140.86 211.661 141.243 209.982L143.26 201.149C143.313 200.916 143.168 200.683 142.935 200.631L125.256 196.594C125.125 196.566 124.993 196.586 124.88 196.659C124.767 196.729 124.689 196.839 124.66 196.969L123.204 203.343C122.872 204.796 123.126 206.291 123.919 207.553C124.713 208.815 125.949 209.693 127.402 210.025L137.504 212.332ZM138.199 213.539C137.887 213.539 137.57 213.504 137.252 213.432L127.151 211.126C125.404 210.727 123.916 209.671 122.964 208.155C122.01 206.637 121.705 204.839 122.103 203.092L123.559 196.718C123.655 196.295 123.911 195.934 124.279 195.702C124.649 195.471 125.089 195.396 125.508 195.494L143.187 199.53C144.026 199.721 144.553 200.56 144.361 201.399L142.344 210.234C141.895 212.202 140.139 213.539 138.199 213.539" fill="#FCFCFC"/>
<path d="M154.352 216.178L164.453 218.484C165.903 218.815 167.403 218.561 168.663 217.768C169.927 216.975 170.803 215.739 171.135 214.285L172.591 207.912C172.652 207.644 172.483 207.376 172.216 207.316L154.537 203.28C154.309 203.228 154.074 203.372 154.02 203.605L152.003 212.439C151.818 213.251 151.959 214.089 152.403 214.795C152.846 215.5 153.539 215.992 154.352 216.178V216.178ZM165.708 219.755C165.207 219.755 164.703 219.699 164.201 219.584L154.1 217.278C151.815 216.756 150.38 214.473 150.902 212.187L152.919 203.353C153.11 202.514 153.944 201.989 154.788 202.178L172.467 206.214C173.342 206.414 173.89 207.288 173.692 208.162L172.236 214.537C171.837 216.284 170.782 217.771 169.265 218.724C168.182 219.405 166.957 219.755 165.708 219.755" fill="white"/>
<path d="M152.538 205.996C152.431 205.996 152.324 205.967 152.229 205.904L151.742 205.584C149.417 204.055 146.634 203.491 143.899 203.992C143.599 204.049 143.3 203.846 143.242 203.539C143.186 203.232 143.389 202.937 143.696 202.882C146.718 202.329 149.795 202.952 152.362 204.64L152.849 204.961C153.11 205.131 153.182 205.482 153.01 205.742C152.901 205.907 152.721 205.996 152.538 205.996" fill="#FCFCFC"/>
<path d="M172.765 210.942L172.752 209.812L205.833 209.414L205.845 210.543L172.765 210.942Z" fill="#FCFCFC"/>
<path d="M222.539 281.909L185.714 281.611L178.537 289.957L169.37 281.48L161.148 281.412C157.313 281.382 78.1512 279.631 78.1512 277.469C78.1512 275.304 80.6966 223.509 81.2996 211.277C81.3719 209.809 80.3284 208.528 78.8773 208.296L38.5648 201.817C36.9409 201.555 35.4277 202.704 35.2425 204.338L23.972 303.632C21.0354 329.494 41.8126 351.904 67.8241 350.929L107.738 349.432L101.434 366.67C97.7586 376.722 98.9274 388.13 104.54 397.013L112.15 409.052L115.121 454.81L252.998 456L254.509 317.701C254.667 298.078 240.354 282.053 222.539 281.909" fill="#FCFCFC"/>
<path d="M78.5013 277.72C78.2721 277.637 78.1512 277.552 78.1512 277.469C78.1512 276.903 78.3251 272.946 78.5928 267.191L78.5013 277.72" fill="#E6E5F1"/>
<path d="M64.0828 278.398L78.6955 255.282L78.5927 267.191C78.3251 272.946 78.1512 276.903 78.1512 277.469C78.1512 277.552 78.272 277.637 78.5013 277.72L78.4979 278.199L64.0828 278.398" fill="#EDECF5"/>
<path d="M162.512 367.341C162.319 367.341 162.13 367.242 162.025 367.063L134.098 319.514C133.768 318.951 133.679 318.294 133.85 317.664C134.022 317.033 134.429 316.51 135 316.19L142.851 309.593C143.128 309.36 143.26 309.022 143.215 308.664C143.17 308.306 142.959 308.01 142.632 307.853L130.234 301.896C129.625 301.529 129.274 300.959 129.223 300.305C129.171 299.651 129.429 299.032 129.93 298.608L144.191 286.529C144.297 286.441 144.426 286.397 144.554 286.397C144.715 286.397 144.874 286.465 144.987 286.596C145.187 286.834 145.158 287.19 144.92 287.392L130.66 299.469C130.44 299.656 130.326 299.929 130.349 300.216C130.371 300.504 130.525 300.754 130.773 300.906L143.121 306.837C143.79 307.157 144.243 307.787 144.336 308.523C144.429 309.258 144.146 309.982 143.578 310.458L135.638 317.115C135.248 317.347 135.031 317.624 134.94 317.96C134.849 318.294 134.896 318.643 135.072 318.943L162.999 366.491C163.158 366.76 163.066 367.105 162.798 367.264L162.512 367.341" fill="#B4E2F9"/>
<path d="M181.447 370.236C181.33 370.236 181.214 370.201 181.113 370.127C180.861 369.942 180.807 369.589 180.991 369.338L208.778 331.518C208.817 332.087 208.866 332.657 208.921 333.229L181.902 370.005C181.792 370.157 181.62 370.236 181.447 370.236V370.236ZM210.254 313.289L206.562 309.855L211.953 307.399C211.787 307.882 211.626 308.371 211.472 308.858L208.569 310.181L210.562 312.038C210.455 312.453 210.352 312.871 210.254 313.289V313.289ZM216.824 296.642L208.328 288.746C208.1 288.535 208.088 288.177 208.3 287.947C208.412 287.829 208.563 287.768 208.715 287.768C208.852 287.768 208.99 287.819 209.099 287.919L217.408 295.641C217.21 295.974 217.016 296.305 216.824 296.642Z" fill="#B4E2F9"/>
<path d="M204.298 280.512C204.403 274.366 202.875 269.39 202.875 269.39C190.906 269.39 180.932 277.921 178.693 289.234L177.926 289.494C175.791 278.054 165.759 269.39 153.697 269.39C153.697 269.39 151.984 274.966 152.309 281.609L151.672 281.409L168.505 366.731C168.874 368.604 171.459 368.839 172.16 367.063L204.115 286.614L204.37 280.489L204.298 280.512" fill="#D0DCFF"/>
<path d="M176.891 313.723L154.988 287.575C154.787 287.335 154.818 286.98 155.058 286.78C155.296 286.578 155.652 286.609 155.853 286.85L176.882 311.953L198.03 286.253C198.228 286.012 198.586 285.979 198.823 286.177C199.065 286.374 199.1 286.73 198.901 286.97L176.891 313.723Z" fill="#FCFCFC"/>
<path d="M197.063 359.883C196.627 359.883 196.273 360.237 196.273 360.673V362.525C196.273 362.961 196.627 363.314 197.063 363.314H202.462V368.715C202.462 369.149 202.816 369.504 203.251 369.504H205.104C205.54 369.504 205.894 369.149 205.894 368.715V363.314H211.293C211.729 363.314 212.083 362.961 212.083 362.525V360.673C212.083 360.237 211.729 359.883 211.293 359.883H205.894V354.484C205.894 354.048 205.54 353.694 205.104 353.694H203.251C202.816 353.694 202.462 354.048 202.462 354.484V359.883H197.063ZM205.104 370.633H203.251C202.194 370.633 201.333 369.772 201.333 368.715V364.445H197.063C196.005 364.445 195.144 363.583 195.144 362.525V360.673C195.144 359.615 196.005 358.753 197.063 358.753H201.333V354.484C201.333 353.427 202.194 352.565 203.251 352.565H205.104C206.162 352.565 207.023 353.427 207.023 354.484V358.753H211.293C212.351 358.753 213.212 359.615 213.212 360.673V362.525C213.212 363.583 212.351 364.445 211.293 364.445H207.023V368.715C207.023 369.772 206.162 370.633 205.104 370.633Z" fill="#D0DCFF"/>
<path d="M106.71 301.261L102.958 308.925C102.665 309.521 102.848 310.241 103.389 310.625L113.585 317.874C114.106 318.243 114.297 318.928 114.044 319.514L111.791 324.742C111.478 325.471 111.853 326.311 112.604 326.564L122.152 329.772C122.731 329.967 123.369 329.749 123.709 329.241L127.979 322.851C128.282 322.398 128.825 322.171 129.36 322.272L137.693 323.86C138.387 323.992 139.067 323.569 139.254 322.888L140.021 320.082C140.119 319.729 140.069 319.354 139.884 319.039C138.813 317.218 135.114 310.949 134.739 310.657C134.356 310.354 113.566 302.531 108.403 300.591C107.749 300.344 107.017 300.636 106.71 301.261" fill="#DFF5FF"/>
<path d="M106.621 301.233L103.056 300.857C102.339 300.781 101.643 301.129 101.274 301.749L100.243 303.478C99.6874 304.407 99.7902 305.586 100.496 306.407L102.891 309.188L106.621 301.233Z" fill="#3B3047"/>
<path d="M105.268 312.106L103.665 317.916L96.058 323.221L97.2313 324.621L107.024 320.37C107.785 320.039 108.339 319.358 108.506 318.544L109.24 314.957L105.268 312.106Z" fill="#3B3047"/>
<path d="M93.9135 410.667L66.7738 397.206C64.3165 395.986 63.3126 393.005 64.5311 390.549L95.0619 328.994C96.2804 326.535 99.2605 325.533 101.719 326.751L128.859 340.212C131.316 341.432 132.321 344.411 131.101 346.869L100.572 408.424C99.352 410.883 96.3719 411.885 93.9135 410.667" fill="#C5E4EF"/>
<path d="M90.9898 408.642C90.2479 408.642 89.4958 408.476 88.7866 408.124L71.9019 399.749C69.4434 398.53 68.4384 395.549 69.6591 393.092L100.19 331.537C101.056 329.788 102.814 328.776 104.643 328.776C105.385 328.776 106.137 328.942 106.846 329.294L123.731 337.669C126.189 338.888 127.193 341.867 125.974 344.326L95.4437 405.881C94.5764 407.629 92.817 408.642 90.9898 408.642" fill="#D5ECF3"/>
<path d="M126.868 332.069L109.407 323.409C107.95 322.686 106.183 323.281 105.46 324.738L103.92 327.842L126.657 339.12L128.198 336.016C128.92 334.559 128.324 332.79 126.868 332.069Z" fill="#3B3047"/>
<path d="M108.803 330.264L108.128 329.929L110.935 324.268L111.61 324.602L108.803 330.264Z" fill="#365060"/>
<path d="M112.942 332.317L112.267 331.982L115.075 326.322L115.75 326.656L112.942 332.317" fill="#365060"/>
<path d="M117.477 334.567L116.803 334.233L119.611 328.572L120.285 328.906L117.477 334.567Z" fill="#365060"/>
<path d="M121.617 336.62L120.942 336.286L123.75 330.623L124.425 330.959L121.617 336.62Z" fill="#365060"/>
<path d="M49.8145 238.463C49.6576 238.463 49.5006 238.397 49.3888 238.269L47.9072 236.565C47.7017 236.329 47.7276 235.972 47.9625 235.767C48.1974 235.564 48.5543 235.588 48.7587 235.824L50.2403 237.528C50.4458 237.763 50.4198 238.12 50.1849 238.324C50.0788 238.417 49.9467 238.463 49.8145 238.463" fill="#74CAF3"/>
<path d="M56.0571 245.639C55.899 245.639 55.7421 245.574 55.6314 245.446L52.5101 241.857C52.3046 241.621 52.3305 241.265 52.5654 241.06C52.8014 240.857 53.1572 240.882 53.3616 241.117L56.4828 244.704C56.6872 244.939 56.6624 245.297 56.4275 245.5C56.3202 245.594 56.1881 245.639 56.0571 245.639ZM62.2974 252.817C62.1393 252.817 61.9835 252.75 61.8717 252.623L58.7504 249.034C58.546 248.799 58.5709 248.442 58.8058 248.238C59.0418 248.032 59.3975 248.058 59.6019 248.293L62.7232 251.882C62.9287 252.117 62.9027 252.474 62.6678 252.678C62.5606 252.772 62.4284 252.817 62.2974 252.817ZM68.5378 259.993C68.3808 259.993 68.2238 259.928 68.112 259.8L64.9919 256.212C64.7863 255.977 64.8123 255.619 65.0472 255.415C65.2821 255.209 65.6389 255.236 65.8433 255.471L68.9635 259.058C69.169 259.293 69.1442 259.651 68.9093 259.855C68.802 259.948 68.6699 259.993 68.5378 259.993V259.993ZM74.7792 267.171C74.6211 267.171 74.4641 267.104 74.3535 266.977L71.2333 263.388C71.0289 263.153 71.0538 262.796 71.2887 262.592C71.5247 262.386 71.8804 262.413 72.0848 262.647L75.2049 266.236C75.4093 266.471 75.3845 266.828 75.1496 267.032C75.0423 267.126 74.9102 267.171 74.7792 267.171ZM81.0195 274.348C80.8626 274.348 80.7056 274.282 80.5938 274.153L77.4748 270.566C77.2692 270.331 77.2941 269.973 77.529 269.77C77.7639 269.563 78.1218 269.589 78.3251 269.824L81.4453 273.413C81.6508 273.647 81.6248 274.005 81.3899 274.209C81.2838 274.302 81.1505 274.348 81.0195 274.348V274.348ZM87.2621 281.525C87.104 281.525 86.947 281.459 86.8364 281.331L83.7151 277.742C83.5096 277.507 83.5355 277.15 83.7704 276.946C84.0064 276.739 84.3622 276.766 84.5666 277.001L87.6867 280.59C87.8922 280.825 87.8674 281.182 87.6325 281.386C87.5252 281.48 87.3931 281.525 87.2621 281.525ZM93.5024 288.702C93.3443 288.702 93.1885 288.636 93.0767 288.507L89.9554 284.92C89.751 284.685 89.7759 284.327 90.0107 284.124C90.2468 283.917 90.6025 283.944 90.8069 284.178L93.9282 287.767C94.1326 288.001 94.1077 288.359 93.8728 288.563C93.7656 288.656 93.6334 288.702 93.5024 288.702" fill="#74CAF3"/>
<path d="M98.1042 293.995C97.9461 293.995 97.7903 293.928 97.6785 293.8L96.1969 292.096C95.9914 291.861 96.0162 291.504 96.2511 291.3C96.486 291.093 96.844 291.122 97.0483 291.355L98.5299 293.059C98.7355 293.294 98.7095 293.651 98.4746 293.856C98.3673 293.949 98.2352 293.995 98.1042 293.995" fill="#74CAF3"/>
<path d="M21.4818 265.162L21.2303 265.102L17.1853 263.092C16.906 262.953 16.7928 262.614 16.9317 262.336C17.0698 262.057 17.4125 261.941 17.6882 262.081L21.7333 264.09C22.012 264.229 22.1258 264.569 21.9869 264.848C21.8889 265.047 21.6892 265.162 21.4818 265.162ZM29.5724 269.182L29.3206 269.122L25.2756 267.112C24.9962 266.975 24.8828 266.635 25.0218 266.356C25.1594 266.076 25.5014 265.963 25.7781 266.103L29.8231 268.113C30.1021 268.251 30.2161 268.591 30.0772 268.869C29.979 269.068 29.7791 269.182 29.5724 269.182ZM37.6625 273.204L37.4107 273.144L33.3656 271.134C33.0867 270.996 32.9727 270.656 33.1116 270.377C33.2505 270.097 33.5915 269.985 33.8682 270.122L37.9132 272.133C38.1921 272.271 38.3062 272.611 38.1673 272.89C38.069 273.088 37.8692 273.204 37.6625 273.204V273.204ZM45.7526 277.224L45.5007 277.164L41.4557 275.154C41.1768 275.016 41.0627 274.676 41.2016 274.397C41.3394 274.117 41.6816 274.003 41.9582 274.144L46.0033 276.154C46.2822 276.292 46.3963 276.632 46.2574 276.911C46.1591 277.11 45.9592 277.224 45.7526 277.224ZM53.8426 281.245L53.5908 281.185L49.5458 279.175C49.2668 279.037 49.1528 278.697 49.2917 278.419C49.4317 278.138 49.7705 278.024 50.0483 278.164L54.0933 280.175C54.3723 280.313 54.4863 280.652 54.3474 280.931C54.2492 281.13 54.0493 281.245 53.8426 281.245ZM61.9327 285.265L61.6809 285.207L57.6358 283.195C57.3569 283.058 57.2429 282.718 57.3829 282.439C57.5207 282.16 57.8606 282.046 58.1384 282.186L62.1834 284.196C62.4634 284.334 62.5764 284.674 62.4375 284.952C62.3392 285.151 62.1393 285.265 61.9327 285.265V285.265ZM70.0227 289.285L69.7709 289.226L65.7259 287.216C65.447 287.078 65.334 286.738 65.4729 286.459C65.6107 286.179 65.9517 286.064 66.2295 286.205L70.2746 288.216C70.5535 288.354 70.6664 288.693 70.5275 288.973C70.4293 289.17 70.2294 289.285 70.0227 289.285V289.285ZM78.1128 293.306L77.861 293.248L73.816 291.236C73.537 291.098 73.4241 290.759 73.563 290.479C73.7019 290.199 74.0418 290.086 74.3196 290.226L78.3646 292.236C78.6436 292.374 78.7565 292.714 78.6176 292.993C78.5193 293.192 78.3206 293.306 78.1128 293.306ZM86.2029 297.327L85.951 297.267L81.906 295.257C81.6271 295.119 81.5142 294.779 81.6531 294.5C81.7908 294.221 82.133 294.106 82.4097 294.246L86.4547 296.258C86.7336 296.395 86.8465 296.735 86.7076 297.014C86.6094 297.212 86.4107 297.327 86.2029 297.327ZM94.2929 301.348L94.0411 301.288L89.9961 299.278C89.7171 299.139 89.6042 298.801 89.7431 298.522C89.882 298.242 90.2219 298.128 90.4997 298.268L94.5448 300.278C94.8237 300.416 94.9366 300.755 94.7977 301.034C94.6995 301.233 94.5007 301.348 94.2929 301.348Z" fill="#74CAF3"/>
<path d="M5.83753 295.819L5.75012 295.813L1.28602 295.126C0.978634 295.079 0.766898 294.791 0.813988 294.481C0.861643 294.173 1.14396 293.966 1.45857 294.009L5.92268 294.697C6.23006 294.744 6.4418 295.032 6.39426 295.341C6.35146 295.62 6.11104 295.819 5.83753 295.819V295.819ZM14.7666 297.194L14.6798 297.187L10.2156 296.5C9.90819 296.453 9.69646 296.165 9.74366 295.856C9.79131 295.548 10.0753 295.338 10.3877 295.384L14.8518 296.071C15.1597 296.119 15.3715 296.407 15.3238 296.715C15.281 296.994 15.0406 297.194 14.7666 297.194V297.194ZM23.6962 298.568L23.6094 298.561L19.1439 297.874C18.8359 297.826 18.6242 297.538 18.6719 297.23C18.7191 296.922 19.0005 296.716 19.3159 296.758L23.7809 297.444C24.0888 297.492 24.3006 297.78 24.2534 298.089C24.2101 298.368 23.9697 298.568 23.6962 298.568ZM32.6248 299.942L32.5379 299.937L28.0728 299.248C27.7656 299.2 27.5533 298.911 27.6007 298.604C27.6482 298.296 27.944 298.087 28.2456 298.132L32.7095 298.82C33.0167 298.867 33.229 299.156 33.1816 299.465C33.1387 299.744 32.8981 299.942 32.6248 299.942ZM41.5539 301.317L41.467 301.31L37.003 300.623C36.6947 300.576 36.4835 300.288 36.531 299.98C36.5784 299.67 36.8641 299.465 37.1747 299.508L41.6386 300.194C41.9469 300.242 42.1581 300.53 42.1107 300.838C42.0678 301.117 41.8272 301.317 41.5539 301.317ZM50.483 302.691L50.3961 302.684L45.931 301.998C45.6227 301.95 45.4115 301.662 45.4589 301.353C45.5064 301.046 45.7887 300.836 46.1026 300.881L50.5677 301.569C50.876 301.616 51.0872 301.904 51.0398 302.212C50.9969 302.491 50.7563 302.691 50.483 302.691ZM59.411 304.065L59.3241 304.059L54.8601 303.372C54.5529 303.325 54.3406 303.037 54.3881 302.727C54.4355 302.419 54.7201 302.212 55.0317 302.255L59.4969 302.943C59.804 302.99 60.0163 303.277 59.9689 303.587C59.9248 303.865 59.6854 304.065 59.411 304.065ZM68.3413 305.44L68.2532 305.433L63.7892 304.745C63.482 304.698 63.2697 304.41 63.3172 304.101C63.3646 303.794 63.6514 303.584 63.962 303.629L68.426 304.316C68.7331 304.363 68.9454 304.651 68.898 304.961C68.8551 305.24 68.6145 305.44 68.3413 305.44ZM77.2704 306.813L77.1834 306.806L72.7183 306.119C72.41 306.072 72.1988 305.784 72.2463 305.476C72.2937 305.167 72.5783 304.962 72.8899 305.004L77.3551 305.69C77.6634 305.738 77.8745 306.026 77.8271 306.335C77.7842 306.614 77.5437 306.813 77.2704 306.813ZM86.1983 308.187L86.1114 308.18L81.6474 307.494C81.3391 307.446 81.1279 307.158 81.1754 306.85C81.2228 306.542 81.5085 306.333 81.8191 306.378L86.283 307.065C86.5913 307.112 86.8025 307.4 86.7551 307.708C86.7122 307.987 86.4716 308.187 86.1983 308.187ZM91.3049 308.973L91.2168 308.967L90.5765 308.869C90.2693 308.822 90.057 308.534 90.1045 308.224C90.1519 307.916 90.4342 307.709 90.7482 307.752L91.3896 307.851C91.6967 307.898 91.909 308.186 91.8616 308.495C91.8187 308.774 91.5782 308.973 91.3049 308.973Z" fill="#74CAF3"/>
<path d="M138.588 366.424C138.746 365.246 143.235 331.024 130.208 326.18C130.208 326.18 125.12 323.757 124.868 329.642C124.684 333.936 125.225 340.472 124.676 344.964C121.06 340.387 117.584 336.324 115.25 333.64C115.193 333.519 115.149 333.393 115.078 333.276L104 314.71C102.901 312.869 100.496 312.262 98.6553 313.36L97.7575 313.896C95.9179 314.993 95.3092 317.399 96.408 319.239L105.794 334.968C105.205 335.612 104.604 336.302 103.998 337.023L93.0518 328.296C91.1321 326.765 88.2717 327.027 86.6952 328.875L86.3214 329.312C84.745 331.162 85.025 333.926 86.9437 335.458L98.2465 344.47C98.1674 344.581 98.085 344.691 98.0071 344.8L89.3038 337.485C87.427 335.907 84.5598 336.097 82.9325 337.906L82.5485 338.332C80.9213 340.142 81.1268 342.912 83.0048 344.491L86.1328 347.121C84.4762 346.196 82.3193 346.42 80.9348 347.798C79.3019 349.426 79.3482 352.053 81.0376 353.636L91.271 363.228L91.2631 363.289C94.4307 370.737 99.8478 380.604 107.133 384.068L110.581 387.867L139.846 371.332C139.781 369.923 139.327 368.257 138.588 366.424Z" fill="#8CB2FF"/>
<path d="M140.276 370.666L146.651 367.95C149.292 366.825 152.353 367.446 154.348 369.51L199.329 417.897L232.01 363.957L199.329 411.254L154.52 364.396C152.756 362.74 150.035 362.649 148.165 364.186L140.276 370.666" fill="#DDDCEC"/>
<path d="M111.777 408.729L157.612 453.369L152.032 453.102L112.441 412.715L111.777 408.729Z" fill="#DDDCEC"/>
<path d="M43.5098 204.72L43.2941 199.595C39.9199 192.268 42.079 181.222 44.4166 173.473L49.8597 175.139C49.8597 175.139 87.0803 159.043 88.2615 164.144C91.1852 176.765 83.1279 202.122 76.5759 210.767L43.5098 204.72" fill="#8CB2FF"/>
<path d="M67.8331 200.939L76.437 182.009C76.9892 188.12 76.3116 197.512 67.8331 200.939Z" fill="#64BBE2"/>
<path d="M56.0684 125.042L52.5767 132.827C52.3046 133.432 52.5123 134.146 53.0657 134.512L63.5001 141.412C64.0331 141.764 64.2488 142.44 64.0162 143.035L61.9406 148.336C61.6515 149.075 62.0546 149.901 62.8135 150.128L72.4642 153.014C73.0514 153.189 73.6816 152.949 74.0034 152.43L78.0552 145.898C78.342 145.436 78.8773 145.19 79.4148 145.274L87.7974 146.58C88.4953 146.689 89.1604 146.243 89.3242 145.555L89.9961 142.725C90.0819 142.369 90.0198 141.995 89.8233 141.687C88.6918 139.903 84.7822 133.764 84.3983 133.483C84.0053 133.194 62.9637 126.077 57.7375 124.312C57.0757 124.089 56.3541 124.405 56.0684 125.042" fill="#FCFCFC"/>
<path d="M55.978 125.016L52.4028 124.759C51.6834 124.709 50.9991 125.08 50.6513 125.711L49.679 127.474C49.1561 128.423 49.2984 129.598 50.0324 130.393L52.5191 133.091L55.978 125.016" fill="#3B3047"/>
<path d="M54.9934 135.927L53.5863 141.789L46.1648 147.347L47.3832 148.708L57.0272 144.127C57.7781 143.771 58.3078 143.072 58.4467 142.253L59.0599 138.644L54.9934 135.927Z" fill="#3B3047"/>
<path d="M46.9778 234.815L19.3975 222.279C16.9008 221.146 15.7957 218.2 16.9317 215.703L45.3641 153.15C46.499 150.653 49.4441 149.549 51.9409 150.684L79.521 163.22C82.0189 164.355 83.1222 167.3 81.9884 169.798L53.5558 232.349C52.4197 234.847 49.4757 235.951 46.9778 234.815Z" fill="#C5E4EF"/>
<path d="M25.8933 225.232L24.6085 224.649C24.5935 224.642 24.579 224.635 24.5644 224.628L25.8933 225.232" fill="#F9F9FC"/>
<path d="M32.5288 228.249L25.8933 225.232L32.5288 228.249Z" fill="#F4F4F9"/>
<path d="M41.8182 232.471C41.8001 232.463 41.7832 232.455 41.7663 232.447L32.5289 228.249L41.8182 232.471Z" fill="white"/>
<path d="M65.7315 156.952L57.1186 153.037C57.1299 153.042 57.1401 153.047 57.1514 153.052L65.7315 156.952Z" fill="#F4F4F9"/>
<path d="M43.8193 232.895C43.1497 232.895 42.4687 232.758 41.8182 232.471L32.5289 228.249L25.8933 225.232L24.5644 224.628C22.0986 223.479 21.013 220.554 22.1427 218.071L50.5746 155.518C51.4068 153.688 53.2114 152.606 55.0995 152.606C55.7748 152.606 56.4614 152.745 57.1187 153.037L65.7316 156.953L74.3106 160.852C76.8085 161.987 77.9118 164.932 76.7769 167.43L48.3454 229.981C47.512 231.812 45.7074 232.895 43.8193 232.895" fill="#D5ECF3"/>
<path d="M77.2557 155.149L59.5115 147.084C58.0322 146.411 56.2864 147.065 55.6122 148.545L54.1792 151.7L77.2839 162.204L78.7181 159.048C79.3911 157.568 78.7362 155.822 77.2557 155.149" fill="#3B3047"/>
<path d="M59.1389 153.955L58.4546 153.645L61.0688 147.891L61.7543 148.203L59.1389 153.955" fill="#365060"/>
<path d="M63.3465 155.867L62.66 155.556L65.2765 149.803L65.9608 150.115L63.3465 155.867Z" fill="#365060"/>
<path d="M67.955 157.963L67.2696 157.652L69.885 151.899L70.5693 152.211L67.955 157.963Z" fill="#365060"/>
<path d="M72.1616 159.875L71.4761 159.563L74.0903 153.811L74.7769 154.121L72.1616 159.875" fill="#365060"/>
<path d="M33.0574 167.504L32.4792 168.443C31.2946 170.369 31.8999 172.915 33.8264 174.099L41.8769 179.053C43.8023 180.238 46.3488 179.633 47.5334 177.706L48.1116 176.768C49.2962 174.841 48.6898 172.296 46.7644 171.11L38.7139 166.157C36.7873 164.971 34.242 165.578 33.0574 167.504Z" fill="#8CB2FF"/>
<path d="M37.9448 159.561L37.3666 160.5C36.1809 162.426 36.7873 164.971 38.7138 166.157L46.7644 171.11C48.6898 172.296 51.2363 171.689 52.4209 169.764L52.999 168.824C54.1836 166.899 53.5772 164.354 51.6518 163.168L43.6013 158.214C41.6748 157.029 39.1294 157.635 37.9448 159.561" fill="#8CB2FF"/>
<path d="M46.7881 142.723L46.0078 143.502C44.4088 145.101 44.4088 147.717 46.0078 149.316L52.6919 156.001C54.291 157.6 56.9086 157.6 58.5076 156.001L59.2868 155.221C60.8859 153.622 60.8859 151.005 59.2868 149.406L52.6027 142.723C51.0037 141.122 48.3872 141.122 46.7881 142.723Z" fill="#8CB2FF"/>
<path d="M30.8248 176.931L30.2466 177.871C29.0609 179.796 29.6684 182.342 31.5938 183.527L35.8726 186.16C37.798 187.344 40.3434 186.739 41.528 184.813L42.1062 183.874C43.2919 181.948 42.6855 179.402 40.7589 178.217L36.4813 175.584C34.5559 174.4 32.0094 175.006 30.8248 176.931" fill="#8CB2FF"/>
<path d="M88.7934 167.863C88.7934 167.863 88.1904 154.371 77.066 150.691C77.066 150.691 71.5439 149.574 72.7239 155.343C73.9052 161.114 77.8384 170.825 76.0937 174.353C73.9131 178.757 77.7661 188.19 77.7661 188.19L88.7934 167.863Z" fill="#8CB2FF"/>
<path d="M377.597 111.485C360.18 102.74 351.219 86.9708 328.313 93.9677C321.829 95.9473 316.133 100.301 312.643 106.39C301.759 109.117 294.514 115.356 289.761 123.211C279.361 129.449 274.569 143.716 280.166 156.281L281.419 159.544C281.378 174.609 284.189 186.907 284.189 186.907C287.013 186.665 289.447 186.258 291.536 185.892C291.536 185.892 300.317 185.176 300.937 187.683C301.286 189.09 334.465 215.332 335.791 215.413C349.676 216.266 386.306 175.816 386.306 175.816C389.056 185.479 389.911 167.849 390.116 155.082C395.849 143.859 399.251 122.357 377.597 111.485" fill="#390028"/>
<path d="M382.383 165.664L377.216 165.612L377.41 146.166C377.451 142.13 376.791 138.259 375.596 134.627C370.552 139.354 363.697 142.065 356.297 141.569C350.834 141.2 345.878 139.141 341.877 135.935C341.376 135.954 340.876 135.971 340.376 135.985C335.532 140.113 327.101 144.88 319.429 144.082C301.469 142.217 299.388 136.948 297.306 137.507L297.208 164.81L292.198 164.76C285.164 164.689 279.403 170.334 279.333 177.369L279.303 180.362C279.234 187.398 284.878 193.157 291.912 193.227L296.923 193.278L296.886 196.932C296.773 208.308 301.994 218.477 310.2 225.116V250.685C310.2 264.932 321.75 276.482 335.997 276.482H338.299C352.546 276.482 364.096 264.932 364.096 250.685V224.776C371.819 218.287 376.784 208.611 376.894 197.734L376.93 194.079L382.098 194.131C389.133 194.201 394.892 188.556 394.962 181.521L394.993 178.527C395.064 171.493 389.418 165.734 382.383 165.664" fill="#FDBEA6"/>
<path d="M338.605 247.906C338.536 247.906 338.466 247.906 338.397 247.905C329.615 247.817 322.21 242.144 319.491 234.296C324.396 236.125 330.253 237.225 337.251 237.296C337.479 237.299 337.708 237.3 337.933 237.3C346.08 237.3 352.677 235.8 358.014 233.322C355.564 241.758 347.798 247.906 338.605 247.906Z" fill="#FF907E"/>
<path d="M290.795 184.341C290.485 184.341 290.179 184.212 289.96 183.959C289.563 183.498 289.613 182.801 290.075 182.404L292.69 180.148L288.654 175.439C288.259 174.977 288.312 174.281 288.775 173.885C289.236 173.492 289.936 173.543 290.33 174.004L295.795 180.382L291.515 184.073C291.307 184.252 291.051 184.341 290.795 184.341" fill="#FF755F"/>
<path d="M384.712 184.792C384.449 184.792 384.187 184.7 383.977 184.51L379.769 180.734L385.36 174.466C385.763 174.011 386.459 173.971 386.916 174.377C387.37 174.782 387.411 175.48 387.004 175.934L382.878 180.561L385.448 182.869C385.901 183.276 385.939 183.974 385.532 184.425C385.315 184.668 385.013 184.792 384.712 184.792" fill="#FF755F"/>
<path d="M310.774 160.237C312.074 160.616 313.651 160.25 315.193 159.986C316.741 159.688 318.304 159.426 319.668 159.247C321.037 159.066 322.616 158.916 324.187 158.806C325.746 158.662 327.369 158.607 328.516 157.907C329.627 157.248 329.923 155.741 328.312 154.146C326.79 152.589 323.141 151.156 318.614 151.74C314.094 152.344 310.971 154.666 309.934 156.559C308.823 158.512 309.523 159.887 310.774 160.237" fill="#390028"/>
<path d="M365.424 165.834C364.09 166.433 362.356 166.279 360.672 166.227C358.976 166.139 357.271 166.094 355.789 166.107C354.302 166.12 352.597 166.194 350.904 166.312C349.219 166.392 347.479 166.575 346.154 165.999C344.875 165.463 344.339 163.897 345.829 161.954C347.228 160.062 350.915 157.988 355.832 157.934C360.741 157.903 364.408 159.915 365.789 161.782C367.257 163.701 366.709 165.275 365.424 165.834Z" fill="#390028"/>
<path d="M324.417 171.647C325.075 173.076 324.451 174.77 323.02 175.43C321.589 176.088 319.895 175.463 319.237 174.033C318.578 172.602 319.203 170.908 320.634 170.25C322.064 169.59 323.757 170.215 324.417 171.647Z" fill="#390028"/>
<path d="M324.861 177.451C324.689 177.451 324.514 177.411 324.35 177.326C321.481 175.832 319.353 177.191 319.331 177.205C318.828 177.538 318.144 177.403 317.803 176.895C317.467 176.387 317.605 175.704 318.112 175.367C318.243 175.28 321.349 173.275 325.371 175.371C325.909 175.652 326.12 176.318 325.838 176.858C325.642 177.235 325.256 177.451 324.861 177.451Z" fill="#FF755F"/>
<path d="M357.7 171.957C358.359 173.388 357.734 175.082 356.304 175.74C354.873 176.398 353.179 175.774 352.52 174.343C351.862 172.914 352.486 171.22 353.917 170.56C355.348 169.902 357.041 170.526 357.7 171.957" fill="#390028"/>
<path d="M358.143 177.763C357.971 177.763 357.797 177.722 357.632 177.637C354.755 176.14 352.638 177.504 352.616 177.515C352.112 177.85 351.426 177.716 351.088 177.207C350.751 176.7 350.889 176.015 351.397 175.679C351.526 175.593 354.629 173.583 358.654 175.682C359.192 175.964 359.403 176.63 359.12 177.169C358.925 177.547 358.539 177.763 358.143 177.763Z" fill="#FF755F"/>
<path d="M342.666 175.229H331.152C330.84 175.229 330.587 174.976 330.587 174.664C330.587 174.351 330.84 174.099 331.152 174.099H342.666C342.978 174.099 343.231 174.351 343.231 174.664C343.231 174.976 342.978 175.229 342.666 175.229Z" fill="#FCFCFC"/>
<path d="M320.896 182.158H308.538C306.652 182.158 305.117 180.623 305.117 178.736V167.228C305.117 165.341 306.652 163.807 308.538 163.807H326.795C328.681 163.807 330.216 165.341 330.216 167.228V178.524C327.263 179.165 324.508 180.139 322.19 181.438C321.76 181.68 321.328 181.919 320.896 182.158ZM321.642 176.625C322.411 176.625 323.334 176.797 324.35 177.326C324.514 177.411 324.689 177.451 324.861 177.451C325.256 177.451 325.642 177.235 325.838 176.858C326.12 176.318 325.909 175.652 325.371 175.371C324.874 175.112 324.391 174.916 323.926 174.771C324.681 173.949 324.913 172.723 324.417 171.646C323.936 170.602 322.904 169.986 321.825 169.986C321.426 169.986 321.02 170.071 320.634 170.25C319.203 170.908 318.578 172.602 319.237 174.033C319.351 174.279 319.496 174.502 319.664 174.699C318.733 174.965 318.166 175.331 318.112 175.367C317.605 175.704 317.467 176.387 317.803 176.895C318.017 177.216 318.369 177.388 318.724 177.388C318.934 177.388 319.146 177.328 319.331 177.205C319.345 177.196 320.238 176.625 321.642 176.625" fill="#FFBFB5"/>
<path d="M323.926 174.771C323.108 174.516 322.347 174.419 321.66 174.419C320.889 174.419 320.213 174.542 319.664 174.699C319.496 174.502 319.351 174.279 319.237 174.033C318.578 172.602 319.203 170.908 320.634 170.25C321.02 170.071 321.426 169.986 321.825 169.986C322.904 169.986 323.936 170.602 324.417 171.647C324.913 172.723 324.681 173.949 323.926 174.771Z" fill="#704764"/>
<path d="M324.861 177.451C324.689 177.451 324.514 177.411 324.35 177.326C323.334 176.797 322.411 176.625 321.642 176.625C320.238 176.625 319.345 177.196 319.331 177.205C319.146 177.328 318.934 177.388 318.724 177.388C318.369 177.388 318.017 177.216 317.803 176.895C317.467 176.387 317.605 175.704 318.112 175.367C318.166 175.331 318.733 174.965 319.664 174.699C320.213 174.542 320.889 174.419 321.66 174.419C322.347 174.419 323.108 174.516 323.926 174.771C324.391 174.916 324.874 175.112 325.371 175.371C325.909 175.652 326.12 176.318 325.838 176.858C325.642 177.235 325.256 177.451 324.861 177.451" fill="#FF9B8C"/>
<path d="M365.118 182.158H357.274C355.803 181.581 354.292 180.944 352.751 180.24C350.047 179.005 346.833 178.209 343.441 177.842V167.228C343.441 166.053 344.036 165.015 344.94 164.399C345.016 165.153 345.482 165.718 346.154 165.999C346.886 166.317 347.745 166.404 348.652 166.404C349.385 166.404 350.151 166.347 350.904 166.312C352.597 166.194 354.302 166.12 355.789 166.107C355.965 166.106 356.144 166.105 356.325 166.105C357.676 166.105 359.177 166.149 360.672 166.227C361.334 166.247 362.003 166.284 362.654 166.284C363.658 166.284 364.614 166.198 365.424 165.834C366.109 165.535 366.586 164.948 366.657 164.173C367.773 164.737 368.54 165.894 368.54 167.228V178.736C368.54 180.623 367.004 182.158 365.118 182.158V182.158ZM354.923 176.936C355.691 176.936 356.615 177.108 357.632 177.637C357.797 177.722 357.971 177.763 358.142 177.763C358.539 177.763 358.925 177.547 359.12 177.169C359.403 176.63 359.192 175.964 358.654 175.682C358.157 175.423 357.674 175.226 357.21 175.082C357.964 174.26 358.197 173.033 357.7 171.957C357.219 170.912 356.188 170.298 355.109 170.298C354.71 170.298 354.304 170.382 353.917 170.56C352.486 171.22 351.862 172.914 352.52 174.343C352.634 174.591 352.778 174.813 352.947 175.009C352.016 175.276 351.45 175.643 351.397 175.679C350.889 176.015 350.751 176.7 351.088 177.207C351.3 177.528 351.651 177.698 352.007 177.698C352.217 177.698 352.43 177.64 352.616 177.515C352.631 177.509 353.519 176.936 354.923 176.936Z" fill="#FFBFB5"/>
<path d="M348.652 166.404C347.745 166.404 346.886 166.317 346.154 165.999C345.482 165.718 345.016 165.153 344.94 164.399C345.488 164.025 346.15 163.807 346.861 163.807H365.118C365.671 163.807 366.194 163.939 366.657 164.173C366.586 164.948 366.109 165.535 365.424 165.834C364.614 166.198 363.658 166.284 362.654 166.284C362.003 166.284 361.334 166.247 360.672 166.227C359.177 166.149 357.676 166.105 356.325 166.105C356.144 166.105 355.965 166.106 355.789 166.107C354.302 166.12 352.597 166.194 350.904 166.312C350.151 166.347 349.385 166.404 348.652 166.404Z" fill="#704764"/>
<path d="M357.21 175.082C356.391 174.825 355.63 174.729 354.943 174.729C354.171 174.729 353.496 174.851 352.947 175.009C352.779 174.813 352.634 174.59 352.52 174.343C351.862 172.914 352.486 171.22 353.917 170.56C354.304 170.382 354.71 170.298 355.109 170.298C356.188 170.298 357.219 170.912 357.7 171.957C358.197 173.033 357.964 174.26 357.21 175.082" fill="#704764"/>
<path d="M358.143 177.763C357.971 177.763 357.797 177.722 357.632 177.637C356.615 177.108 355.691 176.936 354.923 176.936C353.519 176.936 352.631 177.508 352.616 177.515C352.43 177.639 352.217 177.698 352.007 177.698C351.652 177.698 351.3 177.528 351.088 177.207C350.751 176.7 350.889 176.015 351.397 175.679C351.45 175.643 352.016 175.276 352.947 175.009C353.496 174.851 354.171 174.729 354.943 174.729C355.63 174.729 356.391 174.825 357.21 175.082C357.674 175.226 358.157 175.423 358.654 175.682C359.192 175.964 359.403 176.63 359.12 177.169C358.925 177.547 358.539 177.763 358.143 177.763" fill="#FF9B8C"/>
<path d="M308.538 163.807C306.652 163.807 305.117 165.341 305.117 167.228V178.736C305.117 180.623 306.652 182.158 308.538 182.158H326.795C328.681 182.158 330.216 180.623 330.216 178.736V167.228C330.216 165.341 328.681 163.807 326.795 163.807H308.538ZM326.795 183.287H308.538C306.029 183.287 303.989 181.245 303.989 178.736V167.228C303.989 164.718 306.029 162.678 308.538 162.678H326.795C329.303 162.678 331.345 164.718 331.345 167.228V178.736C331.345 181.245 329.303 183.287 326.795 183.287Z" fill="#FCFCFC"/>
<path d="M346.861 163.807C344.975 163.807 343.441 165.341 343.441 167.228V178.736C343.441 180.623 344.975 182.158 346.861 182.158H365.118C367.004 182.158 368.54 180.623 368.54 178.736V167.228C368.54 165.341 367.004 163.807 365.118 163.807H346.861ZM365.118 183.287H346.861C344.353 183.287 342.311 181.245 342.311 178.736V167.228C342.311 164.718 344.353 162.678 346.861 162.678H365.118C367.627 162.678 369.669 164.718 369.669 167.228V178.736C369.669 181.245 367.627 183.287 365.118 183.287Z" fill="#FCFCFC"/>
<path d="M322.19 181.438C315.094 185.416 307.594 189.087 298.892 188.107C296.654 187.855 294.673 189.516 294.653 191.767C294.542 203.92 297.875 236.897 337.251 237.296C377.312 237.703 380.449 202.271 380.436 191.02C380.434 189.147 379.033 187.578 377.173 187.347C372.565 186.772 363.37 185.09 352.751 180.24C344.161 176.317 330.428 176.821 322.19 181.438Z" fill="#FCFCFC"/>
<path d="M302.092 190.349H302.076C301.764 190.34 301.519 190.079 301.528 189.768C301.916 176.558 293.862 164.045 293.78 163.92C293.611 163.659 293.683 163.309 293.945 163.139C294.207 162.969 294.557 163.041 294.726 163.303C294.81 163.431 303.055 176.23 302.657 189.802C302.648 190.108 302.396 190.349 302.092 190.349Z" fill="#FCFCFC"/>
<path d="M372.187 190.349C371.883 190.349 371.632 190.108 371.622 189.802C371.224 176.23 379.469 163.431 379.552 163.303C379.723 163.043 380.072 162.97 380.334 163.139C380.595 163.309 380.668 163.659 380.497 163.92C380.416 164.045 372.362 176.558 372.752 189.768C372.761 190.079 372.516 190.34 372.204 190.349H372.187" fill="#FCFCFC"/>
<path d="M353.92 188.72L353.633 188.641C353.547 188.59 345.132 183.649 338.174 183.062V183.014C338.174 182.702 337.921 182.449 337.609 182.449C337.297 182.449 337.046 182.701 337.044 183.011C330.104 183.013 320.793 188.58 320.697 188.637C320.606 188.693 320.505 188.72 320.406 188.72C320.214 188.72 320.029 188.622 319.922 188.447C319.761 188.18 319.846 187.833 320.113 187.672C320.515 187.428 329.753 181.88 336.997 181.88C337.26 181.88 337.52 181.888 337.777 181.902C345.096 182.317 353.841 187.451 354.209 187.67C354.477 187.828 354.567 188.174 354.408 188.442C354.302 188.62 354.113 188.72 353.92 188.72" fill="#E1EBF1"/>
<path d="M337.609 200.303C337.297 200.303 337.044 200.05 337.044 199.738V183.014C337.044 183.014 337.044 183.013 337.044 183.011C337.046 182.701 337.297 182.449 337.609 182.449C337.921 182.449 338.174 182.702 338.174 183.014V183.062V199.738C338.174 200.05 337.921 200.303 337.609 200.303Z" fill="#E1EBF1"/>
<path d="M352.827 207.818H352.803L326.401 206.741C326.091 206.728 325.848 206.465 325.86 206.153C325.873 205.854 326.11 205.611 326.413 205.611C326.425 205.611 326.436 205.613 326.447 205.613L352.85 206.69C353.16 206.702 353.403 206.965 353.391 207.277C353.378 207.581 353.129 207.818 352.827 207.818" fill="#F5F8FA"/>
<path d="M351.804 215.942H351.781L325.379 214.865C325.067 214.852 324.826 214.589 324.837 214.277C324.851 213.978 325.09 213.735 325.39 213.735C325.402 213.735 325.414 213.735 325.425 213.736L351.828 214.814C352.138 214.826 352.381 215.089 352.369 215.401C352.355 215.705 352.107 215.942 351.804 215.942Z" fill="#F5F8FA"/>
<path d="M372.84 256.095L371.669 244.238L368.574 243.368L369.834 256.095L364.792 264.311L367.79 264.352L372.84 256.095Z" fill="#DDDCEC"/>
<path d="M416.352 443.409L416.383 443.632L436.674 445.191C437.13 445.167 437.576 445.119 438.029 445.081L416.528 443.423L416.352 443.409Z" fill="#DDDCEC"/>
<path d="M413.488 443.409L415.127 455.06H417.988L416.383 443.632L413.664 443.423L413.488 443.409Z" fill="white"/>
<path d="M302.621 263.478L364.766 264.352L364.792 264.311L305.845 263.478L300.356 256.774L305.223 243.845L301.302 245.683L297.114 256.774L302.621 263.478" fill="white"/>
<path d="M477.697 391.478L445.76 285.946C441.435 271.654 430.062 260.339 415.366 255.708L371.583 243.368L371.669 244.238L412.499 255.708C427.242 260.339 438.652 271.654 442.992 285.946L475.032 391.478C483.568 416.706 465.331 442.819 438.029 445.081L439.462 445.191C467.425 443.703 486.345 417.124 477.697 391.478" fill="white"/>
<path d="M475.032 391.478L442.992 285.946C438.652 271.654 427.242 260.339 412.499 255.708L371.669 244.238L372.84 256.095L367.79 264.352L364.792 264.311L364.766 264.352L302.621 263.478L297.114 256.774L301.302 245.683L246.707 271.277C221.623 284.466 208.013 311.718 213.284 338.945L233.334 444.896C234.019 448.521 235.197 451.918 236.765 455.06H415.128L413.488 443.409L413.664 443.423L416.383 443.632L416.352 443.409L416.528 443.423L438.029 445.081C465.331 442.819 483.568 416.706 475.032 391.478" fill="#FCFCFC"/>
<path d="M309.95 379.53L309.862 375.907C309.81 373.777 311.794 372.178 313.864 372.681L378.246 388.339L383.176 385.807L314.008 369.461C310.797 368.701 307.742 371.208 307.86 374.508L308.026 379.145L309.95 379.53" fill="#DDDCEC"/>
<path d="M408.616 310.355L406.889 309.847L407.719 316.021L421.292 384.959L427.275 386.639L408.571 310.417L408.616 310.355" fill="#DDDCEC"/>
<path d="M410.69 384.057C410.69 384.057 399.532 387.36 399.878 388.395C400.221 389.431 407.928 419.944 409.308 418.908C410.69 417.874 427.254 383.711 443.125 391.648C458.999 399.584 422.421 369.099 410.69 384.057Z" fill="#DDDCEC"/>
<path d="M409.163 381.998C409.163 381.998 398.006 385.301 398.35 386.337C398.696 387.372 406.403 417.886 407.783 416.851C409.163 415.816 425.727 381.654 441.6 389.59C457.473 397.527 420.896 367.04 409.163 381.998Z" fill="#D0DCFF"/>
<path d="M261.521 322.102L274.398 377.806H281.142C281.142 377.806 263.045 322.516 261.536 317.299L261.475 319.644L261.521 322.102Z" fill="#DDDCEC"/>
<path d="M410.534 429.453C412.684 428.437 413.682 425.929 412.819 423.711L409.182 414.371L407.123 417.158L409.563 423.223C410.496 425.547 409.346 428.184 407.008 429.081L351.63 455.627L359.226 455.127L410.534 429.453" fill="#DDDCEC"/>
<path d="M300.165 428.178L397.249 384.075C395.837 382.03 393.152 381.309 390.907 382.375L297.766 426.579L300.165 428.178Z" fill="#DDDCEC"/>
<path d="M310.165 404.768C310.165 404.768 283.543 408.014 275.558 419.447C272.832 423.348 269.807 426.2 267.007 424.487C261.013 420.815 259.04 413.031 261.975 406.642C266.63 396.509 275.099 381.097 283.294 381.751C295.462 382.722 278.052 383.337 278.052 383.337L275.239 371.172L284.075 373.625C287.003 374.438 289.816 375.619 292.448 377.14L294.702 378.442L309.95 379.53L310.165 404.768" fill="#DDDCEC"/>
<path d="M310.165 404.768C310.165 404.768 277.126 407.201 272.986 418.589C271.358 423.063 267.236 425.343 264.436 423.63C258.441 419.957 256.468 412.174 259.403 405.785C264.059 395.652 272.526 380.24 280.722 380.894C292.889 381.865 275.478 382.48 275.478 382.48L272.666 370.315L281.503 372.769C284.431 373.581 287.244 374.762 289.875 376.282L292.128 377.585L309.95 379.53L310.165 404.768" fill="#D0DCFF"/>
<path d="M264.778 423.389H264.767C264.235 423.389 263.804 422.963 263.796 422.432C263.791 422.17 263.766 415.92 269.151 409.125C269.343 408.884 269.626 408.758 269.913 408.758C270.124 408.758 270.336 408.826 270.515 408.967C270.936 409.302 271.006 409.913 270.672 410.333C265.744 416.554 265.738 422.349 265.738 422.407C265.741 422.942 265.312 423.382 264.778 423.389Z" fill="#B6C6EF"/>
<path d="M259.317 417.799C258.935 417.673 258.658 417.317 258.652 416.893C258.651 416.842 258.65 416.573 258.686 416.122C258.86 416.695 259.071 417.255 259.317 417.799" fill="#D9EFF6"/>
<path d="M259.636 417.849H259.623C259.516 417.849 259.413 417.831 259.317 417.799C259.071 417.255 258.86 416.695 258.686 416.122C258.836 414.219 259.652 409.081 264.006 403.586C264.198 403.344 264.481 403.217 264.769 403.217C264.98 403.217 265.193 403.286 265.37 403.427C265.791 403.761 265.862 404.372 265.528 404.794C260.6 411.015 260.595 416.809 260.595 416.867C260.601 417.402 260.171 417.842 259.636 417.849" fill="#B6C6EF"/>
<path d="M304.541 335.546C304.325 335.546 304.12 335.421 304.026 335.212L278.726 278.756C278.492 278.335 278.463 277.816 278.661 277.334C278.901 276.754 279.445 276.302 280.155 276.095L290.646 273.024L277.306 264.795C276.764 264.461 276.458 263.927 276.49 263.364C276.52 262.782 276.902 262.262 277.51 261.973L293.861 254.2C293.939 254.163 294.022 254.145 294.103 254.145C294.314 254.145 294.517 254.265 294.613 254.468C294.748 254.75 294.627 255.087 294.346 255.22L277.995 262.993C277.767 263.101 277.626 263.263 277.617 263.425C277.609 263.57 277.712 263.719 277.899 263.834L293.398 273.394L280.473 277.177C280.099 277.288 279.811 277.507 279.705 277.766C279.637 277.928 279.648 278.093 279.736 278.254L305.056 334.751C305.183 335.035 305.056 335.369 304.771 335.496L304.541 335.546" fill="#B4E2F9"/>
<path d="M371.577 335.942L371.347 335.893C371.062 335.766 370.935 335.432 371.062 335.147L396.361 278.693C396.47 278.491 396.481 278.326 396.413 278.163C396.306 277.906 396.019 277.686 395.645 277.576L382.719 273.791L398.219 264.232C398.406 264.118 398.509 263.967 398.501 263.822C398.491 263.66 398.351 263.499 398.123 263.391L381.77 255.618C381.489 255.484 381.369 255.148 381.504 254.865C381.6 254.663 381.803 254.545 382.014 254.545C382.095 254.545 382.178 254.562 382.256 254.599L398.607 262.372C399.215 262.66 399.597 263.178 399.628 263.76C399.659 264.322 399.355 264.858 398.812 265.194L385.472 273.42L395.963 276.493C396.673 276.7 397.216 277.153 397.457 277.731C397.655 278.212 397.625 278.731 397.372 279.194L372.092 335.608C371.999 335.818 371.792 335.942 371.577 335.942" fill="#B4E2F9"/>
<path d="M404.943 352.14C404.803 352.14 404.672 352.134 404.546 352.121L404.863 348.749C405.373 348.79 405.898 348.379 406.254 348.021C408.132 346.132 409.78 341.21 409.288 336.244C408.238 325.632 406.258 314.278 403.86 305.091C401.065 294.386 396.622 286.956 392.804 286.6L393.114 283.227L393.344 283.252C401.101 284.233 405.568 298.221 407.137 304.235C409.578 313.585 411.593 325.131 412.66 335.911C413.206 341.428 411.523 347.526 408.657 350.409C407.275 351.798 405.93 352.14 404.943 352.14" fill="#959596"/>
<path d="M404.607 346.529L403.903 346.554C402.306 346.609 401.047 347.903 401.091 349.446L401.157 351.816C401.2 353.359 402.531 354.565 404.128 354.511L404.833 354.486C406.43 354.431 407.69 353.135 407.645 351.594L407.578 349.222C407.535 347.68 406.205 346.474 404.607 346.529Z" fill="#353535"/>
<path d="M404.317 348.747L404.418 352.292C404.444 353.169 403.799 353.945 402.851 354.332C401.886 354.009 401.198 353.281 401.174 352.402L401.074 348.86C401.049 347.98 401.693 347.207 402.64 346.818C403.606 347.14 404.293 347.87 404.317 348.747" fill="#3C3D3D"/>
<path d="M367.137 348.636C366.131 348.543 364.675 348.042 363.459 346.195C361.247 342.834 360.893 336.527 362.621 331.198C365.982 320.83 370.432 309.89 374.831 301.182C377.652 295.594 385.038 282.764 392.789 283.2V283.196L392.993 283.216L393.025 283.219L392.717 286.592L392.693 286.59C388.829 286.25 382.894 292.729 377.855 302.709C373.531 311.269 369.154 322.034 365.844 332.244C364.292 337.03 364.851 342.149 366.288 344.333C366.552 344.731 366.967 345.218 367.453 345.263L367.137 348.636" fill="#959596"/>
<path d="M403.86 305.091C401.065 294.386 396.622 286.956 392.804 286.6L393.114 283.227L393.344 283.252C401.101 284.233 405.568 298.221 407.137 304.235L403.86 305.091" fill="#353535"/>
<path d="M377.855 302.709L374.831 301.182C377.652 295.594 385.038 282.764 392.79 283.2V283.197L392.995 283.216L393.021 283.218L393.025 283.219L392.717 286.592L392.692 286.59C388.829 286.25 382.894 292.729 377.855 302.709" fill="#353535"/>
<path d="M366.823 351.601L368.002 351.927C369.533 352.352 371.143 351.491 371.595 350.006L372.476 347.108C372.928 345.625 372.052 344.076 370.519 343.653L369.341 343.326C367.808 342.903 366.199 343.762 365.748 345.247L364.866 348.146C364.414 349.63 365.291 351.177 366.823 351.601" fill="#353535"/>
<path d="M368.11 349.47L369.232 345.784C369.51 344.872 370.438 344.281 371.542 344.186C372.422 344.828 372.874 345.802 372.596 346.714L371.475 350.4C371.197 351.314 370.27 351.903 369.164 351.999C368.285 351.356 367.834 350.382 368.11 349.47Z" fill="#3C3D3D"/>
<path d="M296.307 343.496C295.68 343.496 295.078 343.146 294.784 342.545L265.976 283.504C263.395 278.213 263.144 272.298 265.271 266.849C267.583 260.921 272.574 256.087 278.961 253.589C279.829 253.254 280.814 253.679 281.156 254.55C281.496 255.422 281.066 256.405 280.194 256.743C274.685 258.899 270.396 263.03 268.426 268.08C266.648 272.638 266.859 277.587 269.021 282.016L297.827 341.059C298.238 341.9 297.889 342.913 297.049 343.323C296.81 343.441 296.556 343.496 296.307 343.496" fill="#959596"/>
<path d="M280.168 310.419C279.54 310.419 278.938 310.068 278.645 309.468L265.976 283.504C263.395 278.213 263.144 272.298 265.271 266.849C267.583 260.921 272.574 256.087 278.961 253.589C279.829 253.254 280.814 253.679 281.156 254.55C281.496 255.422 281.066 256.405 280.194 256.743C274.685 258.899 270.396 263.03 268.426 268.08C266.648 272.638 266.859 277.587 269.021 282.016L281.688 307.982C282.099 308.823 281.75 309.836 280.91 310.246C280.67 310.363 280.416 310.419 280.168 310.419" fill="#353535"/>
<path d="M286.423 344.16C284.241 339.69 286.521 334.482 291.515 332.53C296.507 330.576 302.324 332.617 304.505 337.087C306.686 341.558 304.408 346.765 299.414 348.719C294.42 350.671 288.603 348.631 286.423 344.16" fill="#353535"/>
<path d="M290.943 342.391C289.852 340.157 290.993 337.553 293.489 336.577C295.985 335.6 298.894 336.621 299.985 338.856C301.075 341.092 299.936 343.696 297.439 344.671C294.942 345.648 292.034 344.627 290.943 342.391Z" fill="#CFD0D1"/>
<path d="M393.923 286.742C393.025 286.742 392.277 286.038 392.233 285.131L391.946 279.241C390.782 255.295 386.117 249.218 383.439 247.727C382.622 247.272 382.328 246.241 382.783 245.424C383.237 244.605 384.27 244.311 385.087 244.768C390.935 248.024 394.381 259.567 395.329 279.076L395.616 284.966C395.661 285.901 394.941 286.695 394.007 286.74L393.923 286.742" fill="#353535"/>
<path d="M384.388 333.977C383.952 333.977 383.598 334.332 383.598 334.766V336.619C383.598 337.055 383.952 337.408 384.388 337.408H389.788V342.808C389.788 343.243 390.141 343.598 390.576 343.598H392.429C392.865 343.598 393.219 343.243 393.219 342.808V337.408H398.619C399.053 337.408 399.408 337.055 399.408 336.619V334.766C399.408 334.332 399.053 333.977 398.619 333.977H393.219V328.577C393.219 328.141 392.865 327.788 392.429 327.788H390.576C390.141 327.788 389.788 328.141 389.788 328.577V333.977H384.388ZM392.429 344.727H390.576C389.519 344.727 388.659 343.866 388.659 342.808V338.537H384.388C383.33 338.537 382.469 337.676 382.469 336.619V334.766C382.469 333.709 383.33 332.848 384.388 332.848H388.659V328.577C388.659 327.519 389.519 326.659 390.576 326.659H392.429C393.486 326.659 394.348 327.519 394.348 328.577V332.848H398.619C399.677 332.848 400.537 333.709 400.537 334.766V336.619C400.537 337.676 399.677 338.537 398.619 338.537H394.348V342.808C394.348 343.866 393.486 344.727 392.429 344.727Z" fill="#D0DCFF"/>
<path d="M365.188 240.505L377.819 244.97L336.874 348.231L295.168 248.632L311.29 240.904L338.562 262.051L365.188 240.505" fill="#D0DCFF"/>
<path d="M337.865 282.544L308.584 256.583C308.351 256.376 308.328 256.02 308.536 255.786C308.742 255.552 309.098 255.529 309.333 255.738L337.86 281.028L366.542 255.142C366.773 254.932 367.131 254.951 367.339 255.183C367.549 255.414 367.53 255.771 367.299 255.98L337.865 282.544" fill="#FCFCFC"/>
<path d="M497.504 320.099L484.074 288.97C483.967 288.723 483.957 288.295 484.052 288.014C484.146 287.734 484.31 287.707 484.418 287.958L497.501 318.281L510.656 287.243C510.763 286.991 510.927 287.014 511.022 287.291C511.118 287.569 511.11 287.997 511.003 288.247L497.504 320.099" fill="#D0DCFF"/>
<path d="M338.343 263.129L310.939 241.346C310.695 241.152 310.655 240.797 310.849 240.553C311.044 240.308 311.398 240.271 311.643 240.462L338.335 261.681L364.83 240.066C365.071 239.869 365.428 239.905 365.626 240.148C365.821 240.389 365.786 240.744 365.545 240.942L338.343 263.129Z" fill="#FCFCFC"/>
<path d="M236.765 455.06H233.313C231.74 451.918 230.56 448.521 229.871 444.896L218.682 385.956L221.348 381.556L233.334 444.896C234.019 448.521 235.197 451.918 236.765 455.06ZM218.277 383.831L209.756 338.945C209.385 337.039 209.109 335.13 208.921 333.229L212.179 328.795C212.256 331.858 212.564 334.944 213.114 338.031C213.114 338.035 213.115 338.038 213.115 338.042C213.119 338.058 213.122 338.078 213.126 338.093C213.126 338.099 213.127 338.104 213.128 338.108C213.137 338.16 213.147 338.213 213.156 338.265C213.157 338.272 213.158 338.28 213.161 338.288C213.163 338.301 213.165 338.316 213.167 338.329C213.17 338.34 213.171 338.349 213.173 338.359C213.175 338.372 213.178 338.385 213.181 338.398C213.182 338.41 213.184 338.422 213.187 338.433C213.191 338.455 213.194 338.474 213.198 338.495C213.201 338.508 213.202 338.519 213.205 338.532C213.207 338.544 213.209 338.553 213.211 338.564C213.214 338.58 213.217 338.593 213.219 338.608C213.222 338.619 213.223 338.625 213.225 338.634C213.228 338.654 213.232 338.675 213.235 338.693C213.237 338.706 213.24 338.715 213.242 338.726C213.245 338.743 213.248 338.759 213.251 338.774C213.252 338.783 213.254 338.794 213.257 338.802C213.259 338.818 213.262 338.834 213.266 338.851C213.267 338.859 213.268 338.865 213.27 338.874C213.275 338.898 213.279 338.921 213.284 338.945L221.026 379.855L218.277 383.831V383.831ZM208.778 331.518C208.344 325.319 208.866 319.187 210.254 313.289L213.199 316.029C212.534 319.595 212.18 323.236 212.16 326.914L208.778 331.518V331.518ZM213.455 314.733L210.562 312.038C210.838 310.969 211.14 309.91 211.472 308.858L215.615 306.971C214.728 309.506 214.006 312.097 213.455 314.733ZM211.953 307.399C213.231 303.675 214.862 300.073 216.824 296.642L219.145 298.797C218.018 300.97 217.02 303.2 216.155 305.485L211.953 307.399V307.399ZM219.693 297.765L217.408 295.641C220.264 290.853 223.769 286.408 227.856 282.441C228.795 282.621 229.724 282.838 230.634 283.106C226.263 287.49 222.587 292.434 219.693 297.765" fill="#E9E8F3"/>
<path d="M208.921 333.229C208.866 332.657 208.817 332.087 208.778 331.518L212.16 326.914C212.157 327.539 212.163 328.166 212.179 328.795L208.921 333.229ZM213.199 316.029L210.254 313.289C210.352 312.871 210.455 312.453 210.562 312.038L213.455 314.733C213.365 315.165 213.28 315.596 213.199 316.029ZM211.472 308.858C211.626 308.371 211.787 307.882 211.953 307.399L216.155 305.485C215.969 305.977 215.788 306.474 215.614 306.971L211.472 308.858V308.858ZM219.145 298.797L216.824 296.642C217.016 296.305 217.21 295.974 217.408 295.641L219.693 297.765C219.507 298.107 219.324 298.452 219.145 298.797" fill="#CFDEF1"/>
<path d="M218.682 385.956L218.277 383.831L221.026 379.855L221.348 381.556L218.682 385.956Z" fill="#DDDCEC"/>
<path d="M213.27 338.874C213.268 338.865 213.267 338.859 213.266 338.851C213.267 338.859 213.269 338.866 213.27 338.874ZM213.257 338.802C213.254 338.794 213.252 338.783 213.251 338.774C213.253 338.783 213.254 338.794 213.257 338.802ZM213.242 338.726C213.24 338.715 213.237 338.706 213.235 338.693C213.237 338.704 213.24 338.715 213.242 338.726ZM213.225 338.634C213.223 338.625 213.222 338.619 213.219 338.608C213.222 338.617 213.223 338.626 213.225 338.634ZM213.211 338.564C213.209 338.553 213.207 338.544 213.205 338.532C213.207 338.542 213.209 338.555 213.211 338.564ZM213.198 338.495C213.194 338.474 213.191 338.455 213.187 338.433C213.191 338.455 213.194 338.474 213.198 338.495ZM213.181 338.398C213.178 338.385 213.175 338.372 213.173 338.359C213.175 338.371 213.179 338.386 213.181 338.398ZM213.167 338.329C213.165 338.316 213.163 338.301 213.161 338.288C213.163 338.301 213.165 338.315 213.167 338.329ZM213.156 338.265C213.147 338.213 213.137 338.16 213.128 338.108C213.137 338.16 213.147 338.213 213.156 338.265ZM213.126 338.093C213.122 338.078 213.119 338.058 213.115 338.042C213.119 338.06 213.122 338.077 213.126 338.093ZM213.114 338.031C212.564 334.944 212.256 331.858 212.179 328.795C212.163 328.166 212.157 327.539 212.16 326.914C212.18 323.236 212.534 319.595 213.199 316.029C213.28 315.596 213.365 315.165 213.455 314.733C214.006 312.097 214.728 309.506 215.614 306.971C215.788 306.474 215.969 305.977 216.155 305.485C217.02 303.2 218.018 300.97 219.145 298.797C219.324 298.452 219.507 298.107 219.693 297.765C222.587 292.434 226.263 287.49 230.634 283.106C230.637 283.107 230.64 283.108 230.644 283.11C216.37 297.427 209.492 317.69 213.114 338.031" fill="#E9E8F3"/>
<path d="M559.374 455.673H115.568C114.984 455.673 114.512 455.409 114.512 455.083C114.512 454.758 114.984 454.494 115.568 454.494H559.374C559.956 454.494 560.429 454.758 560.429 455.083C560.429 455.409 559.956 455.673 559.374 455.673Z" fill="#DDDCEC"/>
</svg>
