<svg width="47" height="51" viewBox="0 0 47 51" fill="none" xmlns="http://www.w3.org/2000/svg">
<path d="M46.4133 23.5055L46.3333 22.1108C46.2907 21.3801 45.664 20.8201 44.9333 20.8628C44.2627 20.9001 43.76 21.4375 43.7093 22.0895C42.08 21.9748 39.7187 21.8135 37.7133 21.6868C37.2293 20.0015 36.448 18.4455 35.432 17.0708L40.0813 10.6668C40.6293 11.0815 41.4053 11.0255 41.8667 10.5001C42.352 9.9508 42.3 9.11347 41.7506 8.62947L40.7013 7.70548L39.6533 6.78148C39.104 6.29748 38.2667 6.34947 37.7827 6.8988C37.3387 7.4028 37.3667 8.13747 37.796 8.6308C36.196 10.0375 33.668 12.2681 32.0294 13.7441C30.248 12.5015 28.176 11.6561 25.936 11.3095L25.1827 3.39213C25.8667 3.34146 26.4133 2.78412 26.4133 2.08546C26.4133 1.35346 25.8186 0.760131 25.0866 0.760131H23.6907H22.2934C21.56 0.760131 20.9667 1.35346 20.9667 2.08546C20.9667 2.75746 21.4747 3.29081 22.1227 3.37748C21.8387 5.60015 21.388 9.18413 21.1413 11.3561C18.888 11.7535 16.8173 12.6668 15.048 13.9708C13.4266 12.5055 10.7147 10.1121 9.03066 8.6308C9.45999 8.13747 9.48664 7.4028 9.04264 6.8988C8.55864 6.34947 7.72133 6.29748 7.172 6.78148L6.12402 7.70548L5.07597 8.62947C4.52664 9.11347 4.47466 9.9508 4.95866 10.5001C5.41999 11.0255 6.19734 11.0815 6.74668 10.6668L11.6654 17.4455C10.7907 18.7175 10.116 20.1335 9.67597 21.6521C7.56264 21.7828 4.90268 21.9655 3.11601 22.0895C3.06535 21.4375 2.56266 20.9001 1.89199 20.8628C1.16132 20.8201 0.534689 21.3801 0.493356 22.1108L0.413343 23.5055L0.33333 24.9001C0.291997 25.6321 0.850679 26.2575 1.58268 26.3001C2.27868 26.3388 2.86532 25.8268 2.95599 25.1455L9.108 26.0868C9.18534 29.1388 10.1947 31.9508 11.8654 34.2601L7.09733 40.2748C6.56933 39.8375 5.7893 39.8615 5.30664 40.3655C4.79864 40.8935 4.81467 41.7321 5.34401 42.2401L6.35201 43.2081L7.36002 44.1748C7.88802 44.6828 8.72663 44.6655 9.23463 44.1375C9.69863 43.6521 9.70136 42.9175 9.29603 42.4055C10.932 41.0841 13.512 38.9975 15.212 37.5908C16.9746 38.8521 19.0266 39.7241 21.2506 40.1001L21.6747 48.1735C20.988 48.1961 20.42 48.7295 20.3893 49.4268C20.36 50.1588 20.9267 50.7775 21.6587 50.8081L23.0547 50.8668L24.4506 50.9268C25.1826 50.9575 25.8013 50.3895 25.8307 49.6588C25.86 48.9868 25.3747 48.4335 24.732 48.3188C25.1267 46.0108 25.7667 42.2228 26.0934 40.1055C28.2427 39.7481 30.2347 38.9348 31.9587 37.7481C33.46 39.2348 36.308 41.9708 38.0333 43.6241C37.5853 44.0988 37.5253 44.8321 37.948 45.3548C38.4093 45.9241 39.244 46.0121 39.812 45.5521L40.8987 44.6721L41.984 43.7935C42.5546 43.3335 42.6427 42.4988 42.1827 41.9295C41.7427 41.3868 40.9693 41.2961 40.404 41.6868L35.496 34.2841C37.1947 31.9481 38.216 29.0961 38.276 26.0015L43.8693 25.1455C43.96 25.8268 44.5467 26.3388 45.244 26.3001C45.976 26.2575 46.5333 25.6321 46.492 24.9001L46.4133 23.5055" fill="#C9D2EE"/>
</svg>
