<svg width="72" height="78" viewBox="0 0 72 78" fill="none" xmlns="http://www.w3.org/2000/svg">
<path d="M70.9946 35.7188L70.8733 33.5854C70.8093 32.4668 69.852 31.6134 68.7333 31.6774C67.708 31.7361 66.9387 32.5574 66.8627 33.5534C64.368 33.3801 60.7573 33.1307 57.6907 32.9374C56.9493 30.3601 55.7547 27.9814 54.2027 25.8774L61.3107 16.0828C62.148 16.7174 63.3373 16.6308 64.044 15.8281C64.7853 14.9894 64.704 13.7081 63.864 12.9668L62.2613 11.5534L60.6586 10.1401C59.8186 9.39873 58.5373 9.48008 57.7973 10.3201C57.1173 11.0894 57.16 12.2148 57.8146 12.9694C55.368 15.1214 51.5027 18.5321 48.996 20.7894C46.2707 18.8894 43.1027 17.5961 39.6773 17.0668L38.5253 4.95745C39.5733 4.87878 40.4066 4.02675 40.4066 2.95875C40.4066 1.83875 39.4986 0.930758 38.3786 0.930758H36.2426H34.104C32.984 0.930758 32.0773 1.83875 32.0773 2.95875C32.0773 3.98675 32.8533 4.80009 33.844 4.93343C33.4107 8.33343 32.72 13.8148 32.344 17.1361C28.8973 17.7454 25.732 19.1414 23.0253 21.1361C20.5453 18.8948 16.3973 15.2348 13.8213 12.9694C14.476 12.2148 14.52 11.0894 13.84 10.3201C13.0986 9.48008 11.8173 9.39873 10.9773 10.1401L9.37467 11.5534L7.772 12.9668C6.932 13.7081 6.85198 14.9894 7.59198 15.8281C8.29998 16.6308 9.48798 16.7174 10.3253 16.0828L17.852 26.4521C16.512 28.3948 15.48 30.5614 14.808 32.8841C11.5773 33.0841 7.50667 33.3627 4.77467 33.5534C4.69733 32.5574 3.92796 31.7361 2.90396 31.6774C1.7853 31.6134 0.826687 32.4668 0.762687 33.5854L0.642635 35.7188L0.519979 37.8521C0.455979 38.9721 1.30932 39.9295 2.42799 39.9935C3.49465 40.0548 4.39332 39.2694 4.53066 38.2281L13.94 39.6681C14.056 44.3334 15.6 48.6361 18.1573 52.1681L10.8654 61.3681C10.0547 60.6987 8.86401 60.7348 8.12401 61.5054C7.34801 62.3148 7.37467 63.5974 8.18267 64.3734L9.72401 65.8521L11.2654 67.3334C12.0734 68.1094 13.3573 68.0828 14.1333 67.2748C14.844 66.5334 14.8493 65.4094 14.2253 64.6268C16.7306 62.6054 20.6746 59.4135 23.276 57.2628C25.972 59.1908 29.108 60.5268 32.5107 61.1001L33.16 73.4494C32.1093 73.4828 31.24 74.2975 31.196 75.3655C31.1467 76.4841 32.016 77.4308 33.136 77.4774L35.2693 77.5681L37.4053 77.6587C38.524 77.7067 39.4706 76.8374 39.5173 75.7188C39.5613 74.6921 38.82 73.8454 37.8346 73.6707C38.4386 70.1401 39.4187 64.3468 39.9187 61.1081C43.2053 60.5628 46.2533 59.3174 48.888 57.5028C51.1853 59.7788 55.54 63.9614 58.1813 66.4908C57.4933 67.2161 57.4027 68.3388 58.0493 69.1361C58.7533 70.0068 60.0306 70.1414 60.9013 69.4374L62.5627 68.0934L64.224 66.7481C65.0947 66.0454 65.2293 64.7681 64.5253 63.8974C63.8533 63.0668 62.6693 62.9294 61.8053 63.5281L54.2987 52.2054C56.896 48.6334 58.46 44.2707 58.5506 39.5374L67.1053 38.2281C67.244 39.2694 68.1427 40.0548 69.208 39.9935C70.3253 39.9295 71.1813 38.9721 71.1173 37.8521L70.9946 35.7188" fill="#C9D2EE"/>
</svg>
