<svg width="102" height="110" viewBox="0 0 102 110" fill="none" xmlns="http://www.w3.org/2000/svg">
<g filter="url(#filter0_f)">
<path d="M96.8358 50.3383L96.6777 47.558C96.5943 46.1 95.3469 44.9879 93.8892 45.0713C92.5531 45.1478 91.5507 46.2182 91.4517 47.5162C88.201 47.2903 83.4962 46.9654 79.5002 46.7134C78.5342 43.3544 76.9775 40.2544 74.9551 37.5123L84.2172 24.7472C85.3082 25.5744 86.858 25.4614 87.7788 24.4153C88.7448 23.3223 88.6388 21.6524 87.5442 20.6862L85.4559 18.8442L83.3676 17.0022C82.273 16.0361 80.6034 16.1421 79.6391 17.2369C78.7531 18.2395 78.8086 19.7061 79.6617 20.6897C76.4736 23.4943 71.437 27.9393 68.1707 30.8813C64.6194 28.405 60.4914 26.7195 56.028 26.0296L54.5269 10.2479C55.8925 10.1454 56.9783 9.03493 56.9783 7.64303C56.9783 6.18336 55.7952 5 54.3358 5H51.5525H48.7657C47.3063 5 46.1249 6.18336 46.1249 7.64303C46.1249 8.9828 47.1361 10.0428 48.427 10.2166C47.8623 14.6477 46.9623 21.7914 46.4724 26.12C41.9813 26.9141 37.8567 28.7335 34.3298 31.3331C31.0982 28.412 25.6933 23.642 22.3366 20.6897C23.1897 19.7061 23.247 18.2395 22.3609 17.2369C21.3949 16.1421 19.7253 16.0361 18.6308 17.0022L16.5424 18.8442L14.4541 20.6862C13.3595 21.6524 13.2553 23.3223 14.2195 24.4153C15.1421 25.4614 16.6901 25.5744 17.7812 24.7472L27.5887 38.2613C25.8427 40.7931 24.4979 43.6168 23.6223 46.6439C19.4126 46.9046 14.1083 47.2677 10.5484 47.5162C10.4477 46.2182 9.44514 45.1478 8.11083 45.0713C6.65316 44.9879 5.40405 46.1 5.32066 47.558L5.16423 50.3383L5.0044 53.1186C4.92101 54.5783 6.03294 55.8259 7.49061 55.9094C8.88052 55.9893 10.0515 54.9657 10.2305 53.6086L22.4912 55.4853C22.6423 61.5655 24.6543 67.173 27.9866 71.7762L18.4849 83.7663C17.4285 82.894 15.877 82.941 14.9128 83.9453C13.9016 85.0001 13.9363 86.6717 14.9892 87.6831L16.9976 89.6103L19.0061 91.5408C20.0589 92.5522 21.732 92.5174 22.7431 91.4644C23.6692 90.4982 23.6761 89.0333 22.863 88.0133C26.1276 85.379 31.2667 81.2189 34.6564 78.416C38.1694 80.9287 42.2558 82.6699 46.6896 83.4171L47.5357 99.5116C46.1666 99.5551 45.0339 100.617 44.9765 102.009C44.9123 103.467 46.045 104.7 47.5044 104.761L50.2842 104.879L53.0675 104.998C54.5252 105.06 55.7587 103.927 55.8195 102.469C55.8769 101.131 54.9108 100.028 53.6269 99.8C54.414 95.1986 55.691 87.6484 56.3425 83.4275C60.6252 82.7168 64.5969 81.0938 68.0299 78.7288C71.0234 81.695 76.6977 87.1462 80.1395 90.4426C79.243 91.3879 79.1249 92.851 79.9675 93.8902C80.8849 95.0249 82.5492 95.2004 83.6837 94.2829L85.8486 92.5313L88.0134 90.7779C89.1479 89.8622 89.3233 88.1975 88.406 87.0628C87.5303 85.9802 85.9876 85.8012 84.8617 86.5814L75.0803 71.8249C78.4647 67.1696 80.5026 61.4838 80.6207 55.315L91.7678 53.6086C91.9485 54.9657 93.1195 55.9893 94.5077 55.9094C95.9636 55.8259 97.079 54.5783 96.9956 53.1186L96.8358 50.3383" fill="#C9D2EE"/>
</g>
<defs>
<filter id="filter0_f" x="0" y="0" width="102" height="110" filterUnits="userSpaceOnUse" color-interpolation-filters="sRGB">
<feFlood flood-opacity="0" result="BackgroundImageFix"/>
<feBlend mode="normal" in="SourceGraphic" in2="BackgroundImageFix" result="shape"/>
<feGaussianBlur stdDeviation="2.5" result="effect1_foregroundBlur"/>
</filter>
</defs>
</svg>
