<svg width="64" height="71" viewBox="0 0 64 71" fill="none" xmlns="http://www.w3.org/2000/svg">
<path d="M33.7759 20.4592C33.5659 20.484 33.3491 20.4626 33.1368 20.3892C32.3836 20.1283 31.985 19.3062 32.2458 18.5541L37.6494 2.95783C37.9102 2.20574 38.7335 1.80825 39.4844 2.06798C40.2365 2.32884 40.6351 3.14982 40.3754 3.90304L34.9719 19.4982C34.7856 20.038 34.3078 20.396 33.7759 20.4592Z" fill="#B3C5F9"/>
<path d="M43.2866 4.13566C43.5757 6.59633 41.8129 8.82661 39.3511 9.11457C36.8893 9.40253 34.659 7.642 34.3711 5.17907C34.082 2.71727 35.8448 0.488089 38.3066 0.198997C40.7684 -0.0889654 42.9975 1.67273 43.2866 4.13566" fill="#B3C5F9"/>
<path d="M38.4308 68.2689C37.7408 68.3502 37.0734 67.9211 36.8769 67.2311L32.649 52.3406C32.4321 51.5739 32.876 50.7766 33.6427 50.5586C34.4073 50.3396 35.2068 50.7856 35.4236 51.5524L39.6527 66.4429C39.8695 67.2085 39.4257 68.0069 38.6589 68.2237L38.4308 68.2689Z" fill="#B3C5F9"/>
<path d="M34.6004 68.5931C33.0555 66.8551 33.2125 64.1957 34.9493 62.6497C36.6861 61.106 39.3478 61.2619 40.8915 62.9987C42.4364 64.7366 42.2805 67.3972 40.5425 68.9409C38.8057 70.4857 36.1463 70.3299 34.6004 68.5931Z" fill="#B3C5F9"/>
<path d="M41.997 30.3007C41.4256 30.3685 40.8474 30.0873 40.5583 29.5498C40.1822 28.8485 40.4454 27.9744 41.1466 27.5973L58.4628 18.3045C59.1652 17.9285 60.0404 18.1916 60.4175 18.894C60.7936 19.5953 60.5293 20.4705 59.8269 20.8465L42.5108 30.1392C42.347 30.2273 42.172 30.2804 41.997 30.3007" fill="#B3C5F9"/>
<path d="M62.3194 23.6426C60.5848 26.031 57.2433 26.5606 54.856 24.8261C52.4676 23.0915 51.938 19.7501 53.6715 17.3617C55.406 14.9744 58.7475 14.4436 61.1359 16.1782C63.5243 17.9127 64.0539 21.2542 62.3194 23.6426Z" fill="#B3C5F9"/>
<path d="M5.12533 57.5613C4.71202 57.6087 4.28179 57.48 3.95769 57.1683C3.38289 56.6172 3.36368 55.7036 3.91589 55.13L17.5235 40.952C18.078 40.3784 18.9893 40.3592 19.5641 40.9103C20.1389 41.4625 20.157 42.3749 19.6059 42.9497L5.99715 57.1276C5.75549 57.3783 5.44492 57.5229 5.12533 57.5613" fill="#B3C5F9"/>
<path d="M0.682886 53.2384C1.59759 50.4322 4.61272 48.8975 7.41895 49.8111C10.2252 50.7258 11.7598 53.741 10.8451 56.5483C9.93267 59.3534 6.91642 60.8881 4.10906 59.9745C1.30284 59.0609 -0.23069 56.0447 0.682886 53.2384Z" fill="#B3C5F9"/>
<path d="M13.4164 23.716C13.0167 23.7623 12.6011 23.6437 12.2804 23.3535L4.90746 16.6942C4.31685 16.1601 4.27053 15.2476 4.80468 14.6559C5.33656 14.0653 6.24898 14.019 6.84072 14.5531L14.2149 21.2135C14.8055 21.7465 14.8518 22.659 14.3165 23.2496C14.0737 23.5206 13.7518 23.6765 13.4164 23.716" fill="#B3C5F9"/>
<path d="M7.26875 13.4194C8.70178 13.8383 9.52276 15.3391 9.1038 16.771C8.68484 18.2029 7.18519 19.025 5.75328 18.6061C4.32137 18.1871 3.49926 16.6863 3.91822 15.2544C4.33718 13.8225 5.83797 13.0015 7.26875 13.4194Z" fill="#B3C5F9"/>
<path d="M60.264 40.175C60.1488 40.1886 60.0302 40.1886 59.9105 40.1728L50.0565 38.9069C49.2672 38.8064 48.7093 38.0825 48.8087 37.2932C48.9115 36.5027 49.6353 35.9425 50.4235 36.0464L60.2786 37.3123C61.0691 37.414 61.627 38.1356 61.5253 38.9261C61.4395 39.5968 60.9054 40.1005 60.264 40.175Z" fill="#B3C5F9"/>
<path d="M60.2053 41.3484C58.7904 41.8215 57.2602 41.0571 56.787 39.6421C56.315 38.226 57.0784 36.6958 58.4945 36.2238C59.9095 35.7506 61.4396 36.514 61.9128 37.9301C62.3848 39.3451 61.6203 40.8752 60.2053 41.3484Z" fill="#B3C5F9"/>
<path d="M51.2535 31.8569C52.6515 43.7842 44.1154 54.5856 32.1893 55.9837C20.262 57.3806 9.46165 48.8456 8.06362 36.9182C6.66559 24.9921 15.2017 14.1906 27.1279 12.7926C39.0552 11.3946 49.8566 19.9307 51.2535 31.8569" fill="#B3C5F9"/>
<path d="M14.2678 32.9037C12.5717 32.9037 11.1105 31.6581 10.9117 29.9619C10.6983 28.1348 12.0286 26.4781 13.8851 26.2534C12.8744 26.3788 12.1516 27.2822 12.2679 28.2759C12.3763 29.2019 13.1736 29.8817 14.0985 29.8817C14.1719 29.8817 14.2464 29.8772 14.3198 29.8693C15.3373 29.7496 16.0657 28.8428 15.9493 27.8445C15.8409 26.9197 15.0437 26.2387 14.1188 26.2387C14.0454 26.2387 13.9708 26.2433 13.8963 26.2523C14.033 26.2365 14.1696 26.2286 14.3029 26.2286C15.999 26.2286 17.4603 27.4753 17.6579 29.1703C17.8725 31.0009 16.5366 32.662 14.6733 32.8799C14.5367 32.8958 14.4011 32.9037 14.2678 32.9037" fill="#B3C5F9"/>
<path d="M14.0985 29.8818C13.1736 29.8818 12.3764 29.202 12.268 28.276C12.1516 27.2822 12.8744 26.3788 13.8851 26.2535C13.8885 26.2535 13.893 26.2523 13.8964 26.2523C13.9709 26.2433 14.0454 26.2388 14.1188 26.2388C15.0437 26.2388 15.841 26.9197 15.9494 27.8446C16.0657 28.8429 15.3373 29.7497 14.3198 29.8694C14.2464 29.8773 14.1719 29.8818 14.0985 29.8818Z" fill="#C3D6F2"/>
<path d="M17.5055 24.8531C17.0899 24.8531 16.6709 24.7188 16.3197 24.441C15.4897 23.786 15.3509 22.5833 16.0058 21.7533C16.383 21.2756 16.9431 21.0261 17.5077 21.0261C17.9233 21.0261 18.3411 21.1616 18.6935 21.4382C19.5212 22.0932 19.6624 23.297 19.0074 24.1259C18.6291 24.6036 18.0701 24.8531 17.5055 24.8531Z" fill="#C3D6F2"/>
<path d="M23.0615 36.3491C20.8527 36.3491 18.9386 34.6529 18.6687 32.3537C18.3785 29.8806 20.1029 27.6458 22.5184 27.3635C22.6889 27.3432 22.8583 27.3342 23.0254 27.3342C25.2354 27.3342 27.1495 29.0292 27.4183 31.3295C27.7085 33.8014 25.9841 36.0374 23.5686 36.3197C23.3981 36.34 23.2287 36.3491 23.0615 36.3491Z" fill="#C3D6F2"/>
<path d="M34.8736 27.9553C31.4994 27.9553 28.6728 25.9565 28.3476 23.1819C27.9907 20.1317 30.7857 17.2984 34.5924 16.8523C34.9346 16.8117 35.2723 16.7925 35.6054 16.7925C38.9808 16.7925 41.8062 18.7901 42.1314 21.567C42.4894 24.616 39.6933 27.4493 35.8865 27.8954C35.5455 27.9349 35.2068 27.9553 34.8736 27.9553ZM38.6657 19.0307C38.4895 19.0307 38.3088 19.042 38.1282 19.0623C36.1056 19.2994 34.6207 20.8047 34.8104 22.4241C34.9843 23.8989 36.4839 24.9593 38.2761 24.9593C38.4534 24.9593 38.6329 24.9491 38.8148 24.9277C40.8361 24.6917 42.3211 23.1852 42.1314 21.567C41.9586 20.0922 40.4579 19.0307 38.6657 19.0307" fill="#B3C5F9"/>
<path d="M38.276 24.9593C36.4839 24.9593 34.9842 23.8989 34.8103 22.4241C34.6206 20.8047 36.1056 19.2994 38.1281 19.0623C38.3088 19.0419 38.4895 19.0306 38.6657 19.0306C40.4578 19.0306 41.9586 20.0921 42.1314 21.567C42.3211 23.1852 40.8361 24.6917 38.8147 24.9277C38.6329 24.9491 38.4533 24.9593 38.276 24.9593" fill="#C3D6F2"/>
<path d="M15.1013 44.1862C13.5553 44.1862 12.2431 43.1744 12.0805 41.7831C11.9032 40.2676 13.1544 38.8764 14.8766 38.6742C15.0166 38.6573 15.1566 38.6494 15.2944 38.6494C16.8415 38.6494 18.1526 39.6612 18.3163 41.0525C18.4936 42.5679 17.2412 43.9592 15.5191 44.1613C15.3779 44.1772 15.2391 44.1862 15.1013 44.1862Z" fill="#C3D6F2"/>
<path d="M43.4221 45.4126C42.5119 45.4126 41.7486 44.8604 41.6571 44.0947C41.56 43.2546 42.3098 42.4765 43.333 42.3568C43.4222 42.3466 43.5114 42.341 43.5994 42.341C44.5096 42.341 45.273 42.8943 45.3645 43.66C45.4627 44.5001 44.7118 45.2782 43.6887 45.3979C43.5994 45.4081 43.5102 45.4126 43.4221 45.4126Z" fill="#C3D6F2"/>
<path d="M22.4935 46.761C21.5821 46.761 20.8176 46.2088 20.7273 45.442C20.629 44.6018 21.3788 43.8249 22.4031 43.7041C22.4923 43.6939 22.5804 43.6894 22.6685 43.6894C23.5787 43.6894 24.3432 44.2416 24.4335 45.0084C24.5318 45.8474 23.7819 46.6255 22.7588 46.7452C22.6696 46.7565 22.5804 46.761 22.4935 46.761Z" fill="#C3D6F2"/>
</svg>
